<svg width="211" height="48" viewBox="0 0 211 48" fill="none" xmlns="http://www.w3.org/2000/svg">
<path d="M37.4361 13.2281C38.2261 13.1134 40.5286 13.1741 41.4671 13.3362C43.5198 13.694 45.4914 14.7271 47.1862 16.3409C47.6655 16.7932 48.0638 17.2118 48.064 17.2592C48.064 17.401 46.1193 19.4334 45.9843 19.4334C45.9099 19.4333 45.4305 19.0282 44.9174 18.5353C44.2625 17.9141 43.7088 17.5158 43.0944 17.2187C41.5549 16.4827 40.9472 16.3544 39.1241 16.3611C37.6724 16.3611 37.3955 16.3949 36.6055 16.6785C35.3361 17.1376 34.4786 17.6846 33.513 18.6502C32.1153 20.0479 31.4874 21.3375 31.2376 23.3227C30.9405 25.6994 31.5954 27.8669 33.1822 29.7035C34.2085 30.8919 36.0248 31.9587 37.4833 32.2287C38.3948 32.3908 39.9681 32.3975 40.8594 32.2287C42.4327 31.9384 44.6474 30.6623 45.6805 29.4537L46.0856 28.9877L47.1592 30.0614C48.4083 31.324 48.4083 31.2768 47.1727 32.3774C45.5927 33.7953 43.7966 34.7608 41.7844 35.2673C40.7919 35.5238 37.3752 35.4968 36.2814 35.2335C32.5407 34.3219 29.3199 31.3645 28.2126 27.8129C27.0985 24.2545 27.7196 20.4598 29.8938 17.6238C31.7642 15.1728 34.2895 13.7008 37.4361 13.2281Z" fill="white"/>
<path d="M139.639 25.9971L143.082 30.4136V35.4085H139.639V25.9971Z" fill="white"/>
<path d="M155.04 29.1577V13.4854H158.618V35.4085H155.538L149.685 27.9158L149.695 27.9074L144.799 21.6623L143.082 19.4644V19.472L139.639 15.081V13.4854H142.584L155.04 29.1577Z" fill="white"/>
<path d="M87.4426 13.3969V16.5368H80.92V35.2537H77.4157V16.5368H70.893V13.3969H87.4426Z" fill="white"/>
<path d="M115.464 13.3969V32.114H125.971V35.2537H111.96V24.403C111.96 18.4411 111.994 13.5189 112.041 13.4713C112.081 13.4307 112.871 13.3969 113.79 13.3969H115.464Z" fill="white"/>
<path d="M133.459 35.2537H129.954V13.3969H133.459V35.2537Z" fill="white"/>
<path fill-rule="evenodd" clip-rule="evenodd" d="M71.4948 35.2065H67.9265L65.6204 29.5212H55.9192L53.6131 35.2065H50.0449L59.0185 13.3969H62.5211L71.4948 35.2065ZM57.3169 26.2598C57.3361 26.279 58.9703 26.2825 60.7245 26.2786L60.8151 26.2785C62.5693 26.2824 64.2035 26.279 64.2227 26.2598L60.7698 17.6677L57.3169 26.2598Z" fill="white"/>
<path fill-rule="evenodd" clip-rule="evenodd" d="M108.285 35.2065H104.717L102.41 29.5212H92.7093L90.4032 35.2065H86.8349L95.8086 13.3969H99.3112L108.285 35.2065ZM94.107 26.2598C94.1262 26.279 95.7604 26.2825 97.5146 26.2786L97.6052 26.2785C99.3594 26.2824 100.994 26.279 101.013 26.2598L97.5599 17.6677L94.107 26.2598Z" fill="white"/>
<path fill-rule="evenodd" clip-rule="evenodd" d="M174.401 13.3969L183.375 35.2065H179.806L177.5 29.5212H167.799L165.493 35.2065H161.925L170.898 13.3969H174.401ZM169.197 26.2598C169.216 26.279 170.85 26.2825 172.604 26.2786L172.695 26.2785C174.449 26.2824 176.083 26.279 176.103 26.2598L172.65 17.6677L169.197 26.2598Z" fill="white"/>
<path d="M139.639 25.146L143.082 29.537V30.132L139.639 25.741V25.146Z" fill="white"/>
<path d="M139.639 24.2229L143.082 28.6139V29.2433L139.639 24.8523V24.2229Z" fill="white"/>
<path d="M139.639 23.1187L143.082 27.5097V28.1735L139.639 23.7824V23.1187Z" fill="white"/>
<path d="M139.639 21.9238L143.082 26.3148V26.9225L139.639 22.5315V21.9238Z" fill="white"/>
<path d="M139.639 20.3664L143.082 24.7575V25.5806L139.639 21.1896V20.3664Z" fill="white"/>
<path d="M139.639 18.5376L143.082 22.9286V23.8765L139.639 19.4855V18.5376Z" fill="white"/>
<path d="M139.639 16.2558L143.082 20.6468V21.9007L139.639 17.5097V16.2558Z" fill="white"/>
</svg>
