<svg width="211" height="48" viewBox="0 0 211 48" fill="none" xmlns="http://www.w3.org/2000/svg">
<path fill-rule="evenodd" clip-rule="evenodd" d="M75.6206 12.4499L83.787 36.1907H72.2708L71.0736 32.1526H58.2501L55.1861 36.1907H43.6699L60.6411 15.142L58.6062 12.4499H75.6206ZM62.0772 27.0694H69.5943L67.6691 20.6754H66.9568L62.0772 27.0694Z" fill="white"/>
<path fill-rule="evenodd" clip-rule="evenodd" d="M123.067 12.4499C124.139 12.4499 124.973 12.8373 125.567 13.6081C126.162 14.379 126.334 15.3026 126.088 16.3748L123.861 26.0208C123.607 27.1164 123.008 28.0475 122.061 28.8066C121.11 29.5657 120.101 29.9454 119.032 29.9454H98.7665L97.3266 36.1907H87.0076L91.5154 16.6721L88.2676 12.446H123.075L123.067 12.4499ZM99.9993 24.6H113.57L115.002 18.3941H101.432L99.9993 24.6Z" fill="white"/>
<path fill-rule="evenodd" clip-rule="evenodd" d="M164.268 12.4499C165.34 12.4499 166.174 12.8373 166.769 13.6081C167.363 14.379 167.536 15.3026 167.289 16.3748L165.062 26.0208C164.808 27.1164 164.209 28.0475 163.263 28.8066C162.312 29.5657 161.302 29.9454 160.234 29.9454H139.968L138.528 36.1907H128.209L132.717 16.6721L129.469 12.446H164.276L164.268 12.4499ZM141.2 24.6H154.771L156.203 18.3941H142.633L141.2 24.6Z" fill="white"/>
<path d="M146.441 32.7942L146.247 33.6273H144.614L144.035 36.1204H142.66L143.24 33.6273H141.611L141.804 32.7942H146.441Z" fill="white"/>
<path d="M154.12 32.7942L153.541 35.2873H155.159L155.738 32.7942H157.112L156.467 35.5705C156.432 35.7202 156.35 35.85 156.222 35.9576C156.095 36.0664 155.959 36.1203 155.817 36.1204H152.495C152.349 36.1204 152.237 36.0664 152.161 35.9576C152.085 35.85 152.064 35.7202 152.099 35.5705L152.744 32.7942H154.12Z" fill="white"/>
<path fill-rule="evenodd" clip-rule="evenodd" d="M162.166 32.7942C162.308 32.7943 162.418 32.8483 162.497 32.957C162.574 33.0658 162.596 33.1944 162.561 33.3441L162.256 34.6591C162.22 34.8088 162.14 34.9385 162.011 35.0462C161.883 35.155 161.748 35.209 161.605 35.209H161.51L162.15 36.1204H160.672L160.032 35.209H158.906L158.694 36.1204H157.319L157.955 33.3862L158.088 32.7942H162.166ZM159.099 34.3759H160.907L161.081 33.6273H159.273L159.099 34.3759Z" fill="white"/>
<path fill-rule="evenodd" clip-rule="evenodd" d="M151.308 32.7969C151.425 32.8087 151.518 32.8618 151.587 32.957V32.9555C151.665 33.0631 151.686 33.1932 151.651 33.343L151.134 35.5693C151.099 35.719 151.017 35.8488 150.89 35.9564C150.762 36.0652 150.626 36.1192 150.483 36.1192H146.933C146.786 36.1192 146.675 36.0652 146.599 35.9564C146.523 35.8488 146.502 35.7191 146.537 35.5693L147.024 33.4718L147.044 33.3617C147.078 33.212 147.157 33.0807 147.285 32.9719C147.412 32.862 147.547 32.8072 147.69 32.8061H147.743L148.489 32.8034H148.497L151.256 32.7942L151.308 32.7969ZM148.362 33.6342L148.361 33.633L148.32 33.8096L147.991 35.2873H149.095L149.821 35.2804L150.07 34.2085L150.2 33.6273H149.088L148.362 33.6342Z" fill="white"/>
</svg>
