<svg width="211" height="48" viewBox="0 0 211 48" fill="none" xmlns="http://www.w3.org/2000/svg">
<path d="M130.306 8.17542C130.306 8.17542 127.969 9.10658 125.251 12.1049C122.533 15.1033 120.95 18.4749 122.121 19.3716C122.571 19.7124 123.609 19.7773 125.492 18.0733C127.23 16.5632 128.594 14.6702 129.477 12.5431C130.693 9.5752 130.306 8.21194 130.306 8.17948M145.182 13.5696C142.162 12.0197 139.954 10.1209 137.658 8.94631C135.467 7.8204 134.05 7.34975 132.278 7.58711C132.031 7.6312 131.787 7.6922 131.549 7.76969C131.549 7.76969 132.461 10.8877 128.83 16.1257C125.154 21.4368 121.817 21.4003 120.869 19.9417C119.875 18.4019 121.159 15.2636 123.301 12.4701C125.545 9.54882 129.485 7.1266 129.485 7.1266C129.485 7.1266 128.228 6.35774 125.143 8.10847C122.133 9.80849 116.953 13.8658 112.145 20.7085C107.337 27.5512 106.384 31.3164 105.695 34.2802C105.006 37.2441 105.632 40.419 108.916 40.419C112.2 40.419 116.022 35.4061 117.101 33.6635C119.105 30.4177 120.413 25.4393 117.684 26.123C116.341 26.4597 115.252 27.9488 114.565 29.383C114.131 30.3042 113.799 31.2702 113.576 32.2637C112.622 32.657 111.727 33.1784 110.914 33.8136C110.01 34.4839 109.165 35.2304 108.389 36.0452C108.389 36.0452 108.401 33.6757 110.288 29.8415C112.175 26.0073 115.639 24.2566 117.601 24.0923C119.369 23.9503 121.669 25.4515 119.719 30.9897C117.77 36.528 112.017 43.2611 105.975 43.3443C100.399 43.4214 96.7503 36.2987 104.511 23.8691C113.102 10.1371 123.177 5.92361 126.449 5.45499C129.72 4.98637 130.784 6.43077 130.784 6.43077C132.754 5.62216 134.881 5.27118 137.005 5.40427C141 5.67408 144.089 8.50406 148.167 10.4921C147.107 11.5065 146.096 12.5715 145.184 13.5696M163.13 8.94631C160.361 10.7234 156.53 12.3342 152.85 11.9893C151.917 12.9529 150.92 14.0687 149.921 15.2859C156.303 16.5497 161.896 12.5918 164.869 9.22221C165.953 8.01071 166.884 6.67056 167.642 5.23183C166.288 6.64306 164.773 7.88981 163.128 8.94631M154.629 26.9446C154.677 26.8604 154.717 26.7713 154.747 26.6788C154.728 26.5325 154.659 26.3972 154.553 26.2953C154.446 26.1934 154.308 26.1312 154.161 26.1189C153.553 26.0905 152.724 26.2062 150.549 28.6162C148.745 30.6064 147.192 32.8112 145.926 35.1809C144.681 37.4571 144.176 39.1531 144.892 39.5913C145.124 39.7118 145.394 39.7393 145.646 39.6683C146.13 39.5527 146.68 39.0983 147.515 38.1306C147.906 37.6762 148.34 37.0331 148.858 36.3211C150.298 34.3614 153.914 28.1922 154.629 26.9446ZM132.037 29.5656C132.4 28.6162 132.862 26.7519 131.901 26.0195C130.87 25.2425 128.239 27.0663 128.224 28.9367C128.206 30.8518 130.077 31.718 130.525 31.8397C130.78 31.9087 130.87 31.8986 130.993 31.6937C131.39 31.0094 131.739 30.2983 132.037 29.5656ZM130.047 33.0488C129.395 32.7475 128.786 32.3592 128.239 31.8945C127.689 31.4333 127.23 30.8741 126.885 30.2452C126.848 30.1844 126.812 30.231 126.771 30.2858C126.731 30.3406 126.568 30.4887 125.166 32.5457C123.763 34.6028 121.609 38.865 123.558 39.5913C124.807 40.0558 126.885 37.8669 128.018 36.4164C128.79 35.404 129.489 34.3383 130.111 33.2274C130.17 33.1036 130.111 33.0752 130.049 33.0488M152.166 37.9724C151.637 38.8204 151.033 40.4474 152.775 39.4351C154.905 38.2037 157.939 33.5966 157.939 33.5966H159.315C158.063 35.5238 156.669 37.3546 155.144 39.0739C152.985 41.4678 150.352 43.6425 148.498 43.4275C146.331 43.1739 147.01 40.3277 147.01 40.3277C147.01 40.3277 143.911 43.6303 141.766 43.393C138.87 43.0724 139.754 39.4898 139.754 39.4898C139.754 39.4898 136.478 43.5127 134.246 43.3889C130.748 43.186 131.628 38.9259 132.601 35.9255C133.121 34.3208 133.604 33.061 133.604 33.061C133.604 33.061 133.257 33.1523 132.511 33.2639C132.122 33.3186 131.413 33.3592 131.413 33.3592C131.413 33.3592 129.955 35.9316 128.79 37.4774C127.624 39.0232 122.671 44.3525 119.756 43.2855C117.06 42.2995 117.952 38.1692 119.521 34.8868C121.811 30.1012 128.253 23.2261 131.968 24.1349C135.819 25.0701 132.055 32.1035 132.055 32.1035C132.055 32.1035 132.055 32.1298 132.096 32.1481C132.173 32.1765 132.374 32.1988 132.838 32.1075C133.319 32.0093 133.79 31.8688 134.246 31.6876C134.246 31.6876 138.118 23.573 142.395 18.2639C146.671 12.9549 155.203 3.81177 158.551 6.02301C159.362 6.56669 158.997 8.43915 157.895 10.7112C157.398 10.8727 156.893 11.0081 156.382 11.117C157.12 9.77603 157.609 8.64607 157.755 7.85692C158.259 5.11417 151.86 10.8999 147.288 17.1157C144.533 20.863 142.086 24.8271 139.97 28.9692C140.796 28.465 141.585 27.9016 142.33 27.2834C144.369 25.5907 146.308 23.7793 148.135 21.8587C149.894 20.056 151.544 18.1498 153.077 16.1501C153.563 16.1265 154.048 16.0764 154.53 16C152.859 18.2693 151.038 20.4232 149.077 22.447C147.253 24.2931 145.279 26.2792 143.564 27.7216C142.032 29.0252 140.417 30.2267 138.728 31.3184C138.728 31.3184 134.729 39.3904 136.904 39.9077C138.183 40.2161 140.708 36.3231 140.708 36.3231C140.708 36.3231 144.004 31.29 145.99 29.0199C148.7 25.9363 151.033 24.1511 153.364 24.1187C154.722 24.0943 155.523 25.5387 155.523 25.5387L156.162 24.5487H160.094C160.094 24.5487 152.75 37.0209 152.162 37.9602M163.128 8.94631C160.359 10.7234 156.528 12.3342 152.847 11.9893C151.915 12.9529 150.918 14.0687 149.919 15.2859C156.301 16.5497 161.894 12.5918 164.867 9.22221C165.952 8.01082 166.884 6.67066 167.642 5.23183C166.288 6.64306 164.773 7.88981 163.128 8.94631ZM107.904 15.0648H104.165L102.051 18.483H105.79L107.904 15.0648ZM90.1973 26.902C91.7884 24.7191 96.1787 17.0691 96.1787 17.0691C96.1602 16.9229 96.0921 16.7876 95.9859 16.6857C95.8796 16.5838 95.7416 16.5215 95.595 16.5092C94.9869 16.4808 93.9734 16.6857 91.9607 19.2073C89.9479 21.7289 88.3852 23.7352 87.2461 25.8227C85.9975 28.1009 85.4522 29.7076 86.1698 30.1438C86.4026 30.2605 86.6701 30.288 86.9217 30.2209C87.3879 30.1032 87.998 29.6346 88.8352 28.671C89.2284 28.2206 89.6743 27.614 90.1973 26.902ZM70.1307 16.5558C69.097 15.7748 66.468 17.6026 66.4539 19.469C66.4376 21.3861 68.8193 21.9723 69.1274 21.9865C69.218 21.9941 69.3088 21.9751 69.3888 21.9318C69.4438 21.8997 69.4876 21.8515 69.5145 21.7938C69.7945 21.2431 70.0462 20.6784 70.2685 20.1019C70.6313 19.1525 71.0915 17.2882 70.1307 16.5558ZM68.572 23.155C67.8592 22.9322 67.178 22.6186 66.5451 22.2219C65.9317 21.8217 65.433 21.2687 65.0978 20.6172C65.0614 20.5563 65.0208 20.603 64.9843 20.6578C64.9478 20.7125 64.737 20.9763 63.3304 23.0414C61.9237 25.1066 59.84 29.3303 61.7919 30.0566C63.0365 30.5292 65.1384 28.322 66.2795 26.8776C67.1335 25.7426 67.9226 24.56 68.6429 23.3356C68.6896 23.2119 68.6429 23.1835 68.574 23.1611M99.1157 24.427H100.486C100.486 24.427 93.6207 34.3675 89.7432 33.9049C87.5785 33.6513 88.221 30.9776 88.221 30.9776C88.221 30.9776 85.1806 34.5399 82.3875 33.8177C79.8539 33.1665 81.4896 28.9489 81.4896 28.9489C81.2018 29.0645 75.7189 35.2499 71.8657 33.767C67.8342 32.209 69.928 27.0298 70.6942 25.4718C71.3448 24.1592 72.0644 22.8812 72.0644 22.8812C72.0644 22.8812 71.4462 23.0556 71.0509 23.1449C70.6557 23.2342 70.0841 23.3478 70.0841 23.3478C70.0841 23.3478 68.1767 26.4496 67.0113 27.9975C65.8458 29.5453 60.892 34.8645 57.9732 33.8055C55.0544 32.7466 55.778 28.6588 57.4178 25.4129C60.0771 20.1486 66.387 13.6792 70.1874 14.661C74.0264 15.6409 70.8482 21.8729 70.8482 21.8729C70.8482 21.8729 71.6124 21.9723 73.4427 20.7227C76.0777 18.9233 79.5559 14.0829 83.3219 14.6509C85.0975 14.9187 86.7515 16.7343 84.4894 20.1831C83.7678 21.2907 82.5578 22.2807 81.6315 21.3009C81.0538 20.6923 81.5585 19.5826 82.1645 18.8239C82.4004 18.5146 82.7087 18.2681 83.0621 18.106C83.4156 17.944 83.8034 17.8715 84.1915 17.8947C84.1915 17.8947 84.8137 16.4747 83.2307 16.495C81.9497 16.5193 78.7066 19.5075 76.8763 22.5262C75.198 25.2973 72.6542 30.018 75.2081 31.0465C77.5492 31.9919 82.0044 26.6991 84.0678 23.9259C86.1312 21.1528 90.8337 14.868 94.7781 14.6164C96.1361 14.5272 96.9449 15.7667 96.9449 15.7667L97.4009 15.0445H101.345C101.345 15.0445 93.9167 27.4518 93.337 28.391C92.8809 29.1254 92.2749 30.7767 93.945 29.8517C95.6152 28.9266 99.1157 24.427 99.1157 24.427ZM96.9692 44.3079C94.0649 42.2958 90.5873 41.28 87.0575 41.413C86.1022 41.4391 85.1664 41.6902 84.3261 42.1459C83.4859 42.6017 82.7648 43.2492 82.2213 44.0361C80.7173 41.4089 77.7438 39.7962 73.1468 39.8327C65.7181 39.9179 58.3502 43.3463 52.5127 43.3423C46.9183 43.3423 42.8381 39.8225 42.9699 33.5722C43.2152 22.6033 52.4762 12.7257 59.388 8.28091C63.3729 5.72683 66.7052 4.96811 68.8841 5.21358C70.4732 5.39007 72.3846 7.22803 71.1786 9.9363C69.4071 13.8942 66.9606 13.5696 67.0518 11.6769C67.1025 10.4455 67.9213 9.67054 68.5375 9.24249C68.9287 8.97268 69.6199 8.89559 69.9807 8.88748C70.3314 8.59129 70.5888 6.42469 67.7511 7.13675C64.9134 7.84881 61.4676 10.6484 58.1962 14.2655C54.9247 17.8826 49.831 24.7191 48.5723 31.8986C47.9845 35.2276 48.3696 41.2994 56.2564 41.2304C62.9452 41.1756 72.8042 36.7674 81.8646 36.8587C85.3813 36.8931 88.4419 37.8426 90.8276 39.3154C93.1708 40.7598 95.9801 42.8696 96.9773 44.3099" fill="white"/>
</svg>
