<svg width="211" height="48" viewBox="0 0 211 48" fill="none" xmlns="http://www.w3.org/2000/svg">
<path fill-rule="evenodd" clip-rule="evenodd" d="M136.862 19.1889C141.923 19.1889 146.223 22.773 146.223 28.2409C146.223 28.734 146.185 29.3885 146.108 30.2748H133.131C133.663 31.9702 135.152 32.9702 137.278 32.9702C138.935 32.9734 140.534 32.3556 141.768 31.2362L144.662 34.9405C142.913 36.8677 139.869 37.945 136.862 37.945C131.269 37.945 127.273 34.1338 127.273 28.6636C127.273 22.8093 131.763 19.189 136.862 19.1889ZM136.977 23.9979C135.264 23.9979 133.665 24.7683 133.095 26.925H140.592C140.554 25.1523 138.993 23.9979 136.977 23.9979Z" fill="white"/>
<path d="M172.858 31.161C174.762 31.161 176.358 32.5858 176.358 34.5107C176.358 36.5152 174.762 37.9378 172.858 37.9378C172.409 37.9476 171.963 37.866 171.545 37.6977C171.128 37.5294 170.749 37.278 170.429 36.9583C170.11 36.6386 169.857 36.2571 169.686 35.8367C169.515 35.4163 169.43 34.9653 169.434 34.5107C169.434 32.5858 170.992 31.161 172.858 31.161Z" fill="white"/>
<path fill-rule="evenodd" clip-rule="evenodd" d="M65.0576 19.2213C66.8717 19.2427 69.2152 19.9404 70.4882 21.6093V19.6436H76.0811V37.5973H70.4882V35.5519C69.195 37.2472 66.797 37.9382 64.9717 37.9382C60.5575 37.9382 56.3723 34.3951 56.3723 28.5795C56.3723 22.7639 60.5575 19.2208 64.9717 19.2208L65.0576 19.2213ZM66.1908 24.5342C63.9838 24.5342 62.0821 26.3045 62.0821 28.5771C62.0821 30.8498 63.9838 32.6225 66.1908 32.6225C67.2604 32.631 68.2896 32.2099 69.053 31.4517C69.8165 30.6934 70.2519 29.6597 70.2637 28.5771C70.2637 26.2659 68.3216 24.5342 66.1908 24.5342Z" fill="white"/>
<path fill-rule="evenodd" clip-rule="evenodd" d="M117.618 37.5927H112.025V35.5473C110.732 37.2427 108.332 37.9336 106.509 37.9336C102.095 37.9336 97.9072 34.3905 97.9072 28.5749C97.9073 22.7593 102.095 19.2163 106.509 19.2162C108.332 19.2162 110.732 19.9094 112.025 21.6048V10.1689H117.618V37.5927ZM107.73 24.5342C105.514 24.5364 103.615 26.3045 103.615 28.5771C103.615 30.8498 105.519 32.6225 107.726 32.6225C108.796 32.6316 109.826 32.2108 110.589 31.4525C111.353 30.6942 111.789 29.6601 111.801 28.5771C111.801 26.2659 109.861 24.5342 107.73 24.5342Z" fill="white"/>
<path fill-rule="evenodd" clip-rule="evenodd" d="M167.497 37.5927H161.901V35.5473C160.608 37.2427 158.21 37.9336 156.385 37.9336C151.971 37.9336 147.786 34.3905 147.786 28.5749C147.786 22.7593 151.971 19.2162 156.385 19.2162C158.21 19.2163 160.608 19.9094 161.901 21.6048V10.1689H167.497V37.5927ZM157.602 24.5342C155.395 24.5342 153.493 26.3045 153.493 28.5771C153.493 30.8498 155.395 32.6225 157.602 32.6225C158.671 32.631 159.701 32.2099 160.464 31.4517C161.227 30.6934 161.663 29.6597 161.675 28.5771C161.675 26.2659 159.733 24.5342 157.602 24.5342Z" fill="white"/>
<path d="M39.8652 11.0553V21.6843H48.5027V11.0553H54.4773V37.5927H48.5027V27.1159H39.8652V37.5927H33.8906V11.0553H39.8652Z" fill="white"/>
<path d="M88.9734 19.1822C93.6929 19.1822 96.0145 22.4161 96.0145 27.9249V37.5927H90.3835V28.5771C90.3834 25.8046 88.7084 24.766 87.3006 24.766C85.7784 24.766 83.8767 25.5751 83.8767 28.5771V37.5905H78.2434V19.6366H83.8767V22.8411C84.4852 20.298 87.3007 19.1822 88.9734 19.1822Z" fill="white"/>
<path d="M125.416 37.5927H119.783V10.1689H125.416V37.5927Z" fill="white"/>
</svg>
