<svg width="211" height="48" viewBox="0 0 211 48" fill="none" xmlns="http://www.w3.org/2000/svg">
<path d="M58.5343 3.44604C57.6193 5.4619 57.5654 7.09655 58.0497 8.67656C58.4265 9.76625 59.0723 10.7474 59.772 11.8916C61.333 14.5613 62.9479 16.7407 64.7241 19.6283H64.509C68.0615 25.4038 67.954 35.1025 63.2173 41.096C63.0559 41.2594 62.8945 41.4772 62.7331 41.6406L62.6252 41.7496C62.3023 42.131 61.979 42.5126 61.6022 42.8395C61.2793 43.1663 60.9023 43.4931 60.5256 43.8199C60.5255 43.8734 60.422 43.9271 60.4184 43.929C60.1493 44.1469 59.8796 44.3102 59.6105 44.5281C59.2876 44.8005 58.9111 45.0187 58.5882 45.2366L55.3584 39.9512L52.075 34.6117C51.4291 36.9546 50.2987 39.189 48.7916 41.096C48.6303 41.3137 48.4688 41.477 48.3074 41.6947C47.9307 42.0761 47.6076 42.4581 47.2308 42.8395C46.8541 43.1664 46.4769 43.5476 46.0463 43.8745C45.885 43.9834 45.7772 44.0924 45.6158 44.2013C45.562 44.2557 45.4545 44.3101 45.4006 44.3645C45.2932 44.4189 45.2393 44.4737 45.1855 44.5281C45.1328 44.5814 45.0798 44.5829 45.0776 44.583C45.0239 44.5832 44.9699 44.6916 44.9161 44.6917C44.9159 44.7454 44.8113 44.7994 44.8086 44.8007C44.7548 44.8552 44.7007 44.8549 44.7007 44.8549C44.4854 44.9639 44.324 45.0735 44.1625 45.1824L40.9328 39.8971L38.1875 35.3747V35.3202C38.1341 35.3196 38.1339 35.2111 38.1339 35.2111C37.811 34.6119 37.4881 33.9581 37.1652 33.3044C36.5193 31.7789 35.9808 30.1441 36.1422 28.4007C36.3037 26.5482 37.3265 24.9135 38.2954 23.7148C39.421 22.3584 40.6002 21.5422 40.6101 21.5354L40.5266 21.7231C39.692 23.6532 39.6563 25.2335 40.1256 26.7114C40.4485 27.801 41.0406 28.8362 41.8478 29.9258C42.6014 30.9065 43.4629 32.2146 43.8935 32.814C44.1087 33.1952 44.2701 33.3588 44.5392 34.0122C44.8083 34.666 45.0237 35.3747 45.0237 36.2465C45.0375 36.2196 47.6595 31.1133 47.0154 26.7659C46.9077 26.0032 46.6386 25.2948 46.3157 24.6411C45.8313 23.6058 44.8622 21.3174 45.1312 19.3015C45.3465 17.5035 46.262 15.8684 47.2308 14.6698C48.3566 13.259 49.5361 12.4427 49.5455 12.4362L49.454 12.6235C48.5053 14.4899 47.4443 14.2906 49.0607 17.7212C50.7293 21.2628 53.3132 25.1313 57.5116 31.4515C58.5341 32.9767 58.8033 33.5764 58.9648 34.0122C59.2339 34.666 59.4493 35.3747 59.4493 36.1919C59.7724 35.4289 62.7325 28.4004 60.149 24.0961C60.1482 24.0402 59.7182 23.1696 59.4493 22.7885L56.112 17.2854C55.789 16.686 55.4123 15.9775 55.0893 15.2692C54.4435 13.7437 53.9053 12.1093 54.0667 10.3659C54.282 8.51341 55.251 6.87862 56.2199 5.67995C57.342 4.27372 58.5172 3.45785 58.5343 3.44604Z" fill="white"/>
<path d="M170.393 27.9391L170.567 27.9411C171.431 27.9611 172.218 28.1303 172.893 28.4131C173.614 28.7148 174.165 29.1889 174.547 29.7923C174.928 30.3957 175.14 31.0855 175.14 31.8613H172.3L172.343 31.7322C172.343 31.3012 172.131 30.913 171.792 30.6975C171.495 30.439 171.029 30.3098 170.436 30.3098C169.842 30.3098 169.715 30.3528 169.461 30.4821C169.206 30.5683 168.994 30.7406 168.867 30.9129C168.74 31.0853 168.655 31.3009 168.655 31.5164C168.655 31.6887 168.655 31.8612 168.782 32.0336C168.867 32.1628 168.995 32.2923 169.164 32.4216C169.334 32.5508 169.503 32.6372 169.757 32.7233C170.011 32.8095 170.224 32.896 170.52 32.9391L171.58 33.1973C172.173 33.3266 172.724 33.4994 173.191 33.7148C173.657 33.9303 174.038 34.189 174.377 34.5337C174.716 34.8354 174.928 35.18 175.098 35.6109C175.267 35.9987 175.352 36.473 175.352 36.9901C175.352 37.7659 175.14 38.456 174.758 39.0163C174.377 39.5765 173.826 40.0075 173.063 40.3092C172.343 40.6108 171.453 40.7835 170.436 40.7835C169.419 40.7835 168.486 40.6109 167.723 40.3092C166.96 40.0075 166.366 39.5335 165.943 38.8871C165.519 38.2407 165.307 37.4214 165.307 36.4733H168.147C168.147 36.8611 168.274 37.2059 168.486 37.4644C168.698 37.723 168.952 37.9386 169.249 38.0679C169.588 38.1972 169.969 38.2837 170.393 38.2837C170.817 38.2837 171.156 38.2404 171.41 38.1111C171.707 37.9818 171.919 37.8522 172.046 37.6367C172.173 37.4213 172.258 37.2058 172.3 36.9473C172.3 36.7319 172.215 36.5165 172.088 36.3441C171.961 36.1718 171.749 36.0422 171.453 35.913C171.156 35.7837 170.774 35.6543 170.351 35.5681L169.079 35.2663C168.02 35.0077 167.172 34.6197 166.536 34.0594C165.943 33.4991 165.604 32.7662 165.604 31.8181C165.604 31.0424 165.816 30.3526 166.197 29.7923C166.578 29.2321 167.172 28.7579 167.892 28.4131C168.613 28.0683 169.461 27.9391 170.393 27.9391Z" fill="white"/>
<path fill-rule="evenodd" clip-rule="evenodd" d="M94.654 27.9822C95.5863 27.9822 96.3917 28.1547 97.0274 28.4994C97.663 28.8442 98.2141 29.3185 98.5955 29.9649C98.9769 30.6113 99.1467 31.344 99.1467 32.2058C99.1467 33.0677 98.9769 33.8006 98.5955 34.4039C98.2229 34.9934 97.7286 35.4589 97.0344 35.7614L99.5706 40.5246H96.3066L94.0666 36.2575H92.4921V40.6109H89.5254L89.5676 40.5246V27.9822H94.654ZM92.4921 33.8871H93.9758C94.4419 33.8871 94.7811 33.8441 95.1201 33.7148C95.4591 33.5856 95.6708 33.4127 95.798 33.1542C95.9675 32.8956 96.0523 32.5937 96.0523 32.2058C96.0522 31.8181 95.9674 31.5163 95.798 31.2578C95.6285 30.9994 95.4166 30.8268 95.1201 30.6975C94.8605 30.5844 94.5358 30.5369 94.1464 30.5269L93.9758 30.5252H92.4921V33.8871Z" fill="white"/>
<path d="M121.057 27.7708C121.869 27.7902 122.198 27.8796 122.754 28.0682C123.39 28.2837 123.941 28.5858 124.407 28.9737C124.873 29.3616 125.298 29.8783 125.594 30.4386C125.891 31.0419 126.103 31.6887 126.145 32.4213L126.103 32.5079H123.094C123.094 32.2062 122.966 31.9041 122.839 31.6455C122.712 31.387 122.542 31.1716 122.331 30.9992C122.119 30.8269 121.864 30.6977 121.61 30.5684C121.35 30.493 121.091 30.4504 120.803 30.4409L120.678 30.4386C120.085 30.4386 119.576 30.5681 119.152 30.8698C118.728 31.1715 118.389 31.6028 118.177 32.163C117.965 32.7233 117.838 33.4131 117.838 34.1889C117.838 34.9646 117.965 35.6976 118.177 36.301C118.431 36.8611 118.728 37.2922 119.152 37.5507C119.576 37.8524 120.085 37.9816 120.678 37.9816C121.271 37.9816 121.314 37.9818 121.568 37.8525C121.822 37.7663 122.076 37.6368 122.288 37.4644C122.5 37.2921 122.67 37.0764 122.797 36.861C122.924 36.6024 123.009 36.3437 123.094 36.0421H126.103C126.06 36.6023 125.891 37.163 125.636 37.6802C125.382 38.1973 125.001 38.7145 124.577 39.1454C124.111 39.5764 123.56 39.9212 122.924 40.2229C122.288 40.4814 121.525 40.6109 120.678 40.6109C119.83 40.6109 118.558 40.3521 117.668 39.878C116.778 39.3608 116.1 38.6282 115.592 37.6802C115.083 36.732 114.829 35.568 114.829 34.1889C114.829 32.8097 115.083 31.6457 115.592 30.6975C116.1 29.7494 116.821 29.0166 117.711 28.4994C118.601 27.9822 119.576 27.7668 120.678 27.7668L121.057 27.7708Z" fill="white"/>
<path d="M83.2531 27.9822V30.4389H77.8279V33.0247H82.7444V35.4818H77.8279V40.5246H74.8186V27.9822H83.2531Z" fill="white"/>
<path d="M87.7036 40.5246H84.7365V27.9822H87.7036V40.5246Z" fill="white"/>
<path d="M109.403 30.4389H103.766V33.0247H108.937V35.4818H103.766V38.0679H109.403V40.5246H100.8V27.9822H109.403V30.4389Z" fill="white"/>
<path d="M130.765 33.0247H135.639V27.9822H138.606V40.5246H135.639V35.4818H130.765V40.5246H127.798V27.9822H130.765V33.0247Z" fill="white"/>
<path d="M143.48 40.5246H140.513V27.9822H143.48V40.5246Z" fill="white"/>
<path d="M153.948 30.4389H148.311V33.0247H153.482V35.4818H148.311V38.0679H153.948V40.5246H145.344V27.9822H153.948V30.4389Z" fill="white"/>
<path d="M164.205 27.9822V30.4389H158.78V33.0247H163.697V35.4818H158.78V40.5246H155.771V27.9822H164.205Z" fill="white"/>
<path d="M112.993 8.24403C114.119 8.2697 115.145 8.48614 116.025 8.84816C116.964 9.23439 117.682 9.84131 118.179 10.6137C118.676 11.3862 118.952 12.2693 118.952 13.2625H115.252L115.307 13.0969C115.307 12.5452 115.031 12.0487 114.589 11.7728C114.227 11.4625 113.67 11.2975 112.965 11.2781L112.822 11.2764C112.049 11.2764 111.883 11.3314 111.552 11.4969C111.221 11.6072 110.944 11.8278 110.779 12.0485C110.613 12.2691 110.502 12.5451 110.502 12.8209C110.502 13.0415 110.502 13.2623 110.668 13.4829C110.778 13.6484 110.945 13.8145 111.166 13.98C111.386 14.1454 111.607 14.2557 111.938 14.366C112.269 14.4764 112.546 14.5868 112.932 14.642L114.313 14.9728C115.086 15.1383 115.804 15.3594 116.411 15.6352C117.019 15.9111 117.516 16.2422 117.958 16.6836C118.4 17.0697 118.676 17.5111 118.896 18.0628C119.117 18.5593 119.228 19.1663 119.228 19.8284C119.228 20.8215 118.952 21.7046 118.455 22.4219C117.958 23.1391 117.24 23.6905 116.246 24.0767C115.307 24.4629 114.147 24.6839 112.822 24.6839C111.497 24.6839 110.282 24.4629 109.288 24.0767C108.294 23.6905 107.52 23.0839 106.968 22.2563C106.416 21.4287 106.14 20.3801 106.14 19.1663H109.84C109.84 19.6628 110.006 20.1042 110.282 20.4352C110.558 20.7662 110.889 21.0424 111.275 21.2079C111.717 21.3734 112.215 21.4839 112.767 21.4839C113.319 21.4839 113.761 21.4283 114.092 21.2628C114.479 21.0973 114.755 20.9315 114.92 20.6556C115.086 20.3798 115.197 20.1041 115.252 19.7732C115.252 19.4973 115.141 19.2215 114.975 19.0008C114.81 18.7801 114.534 18.6146 114.147 18.4491C113.76 18.2836 113.263 18.1179 112.711 18.0076L111.055 17.6212C109.674 17.2902 108.57 16.7937 107.741 16.0764C106.968 15.3592 106.526 14.4211 106.526 13.2073C106.526 12.2142 106.802 11.331 107.299 10.6137C107.796 9.89653 108.57 9.28954 109.509 8.84816C110.447 8.40682 111.552 8.24169 112.767 8.24168L112.993 8.24403Z" fill="white"/>
<path fill-rule="evenodd" clip-rule="evenodd" d="M154.39 8.29688C155.605 8.29688 156.654 8.51752 157.483 8.95889C158.311 9.40029 159.029 10.0073 159.526 10.8349C160.023 11.6625 160.244 12.6005 160.244 13.704C160.244 14.8074 160.023 15.7452 159.526 16.5176C159.04 17.2721 158.396 17.8676 157.492 18.2548L160.796 24.3527H156.544L153.625 18.89H151.574V24.4628H147.708L147.763 24.3527V8.29688H154.39ZM151.574 15.8556H153.507C154.114 15.8556 154.556 15.8007 154.998 15.6352C155.439 15.4697 155.716 15.2487 155.881 14.9176C156.102 14.5866 156.212 14.2005 156.212 13.704C156.212 13.2075 156.102 12.8211 155.881 12.4901C155.66 12.1591 155.384 11.9384 154.998 11.7728C154.659 11.628 154.237 11.5676 153.729 11.5547L153.507 11.5517H151.574V15.8556Z" fill="white"/>
<path d="M74.3223 8.29688L76.7523 18.8352H76.8629L79.6239 8.29688H83.103L85.864 18.8352H85.9746L88.4042 8.29688H92.7119L88.0179 24.3527H84.2627L81.3911 14.642H81.2808L78.4092 24.3527H74.7087L70.0149 8.29688H74.3223Z" fill="white"/>
<path d="M104.893 11.4417H97.5477V14.7521H104.285V17.8972H97.5477V21.2079H104.893V24.3527H93.682V8.29688H104.893V11.4417Z" fill="white"/>
<path d="M133.562 8.29688V11.4417H128.702V24.3527H124.892V11.4417H119.977V8.29688H133.562Z" fill="white"/>
<path d="M146.019 11.4417H138.675V14.7521H145.412V17.8972H138.675V21.2079H146.019V24.3527H134.809V8.29688H146.019V11.4417Z" fill="white"/>
<path d="M171.321 17.566H171.431V8.29688H175.352V24.3527H172.038L165.632 15.0829H165.522V24.3527H161.656V8.29688H165.025L171.321 17.566Z" fill="white"/>
</svg>
