<svg width="211" height="48" viewBox="0 0 211 48" fill="none" xmlns="http://www.w3.org/2000/svg">
<path d="M75.0909 39.5144H22.9915L22.9923 35.9588H75.0909V39.5144Z" fill="white"/>
<path d="M131.532 39.5144H79.4324V35.9588H131.532V39.5144Z" fill="white"/>
<path d="M187.431 39.5144H135.332L135.331 35.9588H187.431V39.5144Z" fill="white"/>
<path d="M64.6956 24.2885C64.8394 24.2885 64.9102 24.3128 64.9102 24.3619C64.9102 24.4198 64.8495 24.4452 64.7251 24.4395C64.6317 24.4395 64.5313 24.4478 64.4278 24.465C64.298 24.4823 64.2046 24.5288 64.1509 24.6052C64.0872 24.6842 64.0523 24.8028 64.0453 24.9608C64.0391 25.0767 64.0351 25.2532 64.0351 25.4889C64.0282 25.925 64.0253 26.3612 64.0266 26.7974V27.7238C64.0336 28.2093 63.9815 28.6826 63.8711 29.1458C63.7531 29.5998 63.4676 30.0132 63.0534 30.3301C62.6878 30.5843 62.3253 30.7526 61.9643 30.8341C61.6065 30.9163 61.2565 30.9571 60.9166 30.9571C60.6342 30.9628 60.2818 30.9329 59.8563 30.8679C59.4332 30.8004 59.024 30.6309 58.6327 30.3614C58.3714 30.169 58.1552 29.8912 57.9865 29.5281C57.8075 29.1713 57.7195 28.6827 57.7195 28.0653V26.7987C57.7195 25.6644 57.7127 25.0516 57.701 24.9608C57.6955 24.8079 57.6629 24.695 57.6061 24.6218C57.5454 24.5396 57.431 24.488 57.2598 24.465C57.1276 24.4461 56.9934 24.4376 56.8592 24.4395C56.741 24.4452 56.6828 24.4204 56.6827 24.3619C56.6827 24.3128 56.7589 24.2885 56.909 24.2885C57.5243 24.2943 58.0246 24.3026 58.4081 24.3128C58.7729 24.3083 59.1945 24.3 59.6721 24.2885L59.7249 24.2896C59.8399 24.2949 59.8976 24.319 59.8976 24.3619C59.8975 24.4198 59.8431 24.4452 59.7319 24.4395C59.6355 24.4395 59.5374 24.4478 59.4363 24.465C59.3048 24.4822 59.2116 24.5288 59.1548 24.6052C59.0941 24.6842 59.0613 24.8028 59.0543 24.9608C59.0473 25.0767 59.0444 25.2531 59.0444 25.4894C59.0366 25.727 59.0334 26.1635 59.0334 26.7987V28.0143C59.0334 28.6271 59.1096 29.0916 59.2605 29.4082C59.3966 29.7382 59.5904 29.9842 59.8378 30.1453C59.9607 30.2218 60.0796 30.2825 60.194 30.3271C60.3106 30.3812 60.4219 30.4188 60.5253 30.4417C60.6365 30.464 60.7417 30.4785 60.842 30.4836C60.9462 30.4951 61.0395 30.5009 61.1235 30.5009C61.3538 30.5009 61.5958 30.464 61.8517 30.3907C62.106 30.3206 62.3339 30.2014 62.5377 30.0352C62.82 29.7924 62.9967 29.4827 63.0651 29.1075C63.1196 28.738 63.1429 28.3296 63.1359 27.8831V26.7987C63.1359 25.6644 63.1297 25.0516 63.1158 24.9608C63.1103 24.8079 63.0768 24.695 63.0201 24.6218C62.9602 24.5396 62.8457 24.488 62.6746 24.465C62.5825 24.4517 62.4895 24.4435 62.3961 24.4406L62.3028 24.4395C62.1854 24.4452 62.1262 24.4204 62.1262 24.3619C62.1262 24.3128 62.1994 24.2885 62.3425 24.2885L62.6387 24.29C62.935 24.293 63.2313 24.3006 63.5272 24.3128C63.5996 24.3128 63.7637 24.3083 64.0172 24.2968C64.2583 24.2911 64.484 24.2885 64.6956 24.2885Z" fill="white"/>
<path fill-rule="evenodd" clip-rule="evenodd" d="M42.3908 24.1649C45.1033 24.2133 46.488 25.2933 46.5447 27.4041C46.5385 28.417 46.158 29.2534 45.4027 29.916C44.6505 30.5919 43.6136 30.9391 42.2943 30.9563C40.8351 30.934 39.7749 30.5582 39.1168 29.8313C38.4665 29.1267 38.1444 28.3697 38.1522 27.5606C38.1444 26.7687 38.4696 26.0163 39.1246 25.3034C39.778 24.5663 40.8663 24.1878 42.3908 24.1649ZM42.0984 24.579C41.8106 24.579 41.5197 24.6155 41.2257 24.6894C40.9121 24.7776 40.6295 24.9271 40.4026 25.1251C40.1552 25.32 39.9568 25.5939 39.8059 25.9469C39.6488 26.2998 39.5711 26.749 39.5711 27.2937C39.5711 28.2175 39.8511 28.9795 40.4127 29.5809C40.9611 30.1996 41.732 30.5142 42.7245 30.5257C42.9143 30.5257 43.1415 30.4945 43.4021 30.4328C43.6681 30.3678 43.9325 30.2434 44.1939 30.06C44.4552 29.8676 44.6708 29.584 44.8404 29.2082C45.0115 28.8386 45.1003 28.3442 45.1073 27.7256C45.0933 26.7432 44.8061 25.9737 44.2437 25.4175C43.6759 24.8639 42.9603 24.5847 42.0984 24.579Z" fill="white"/>
<path fill-rule="evenodd" clip-rule="evenodd" d="M163.885 24.1649C166.597 24.2133 167.983 25.2933 168.039 27.4041C168.032 28.417 167.65 29.2534 166.897 29.916C166.142 30.5919 165.108 30.9391 163.788 30.9563C162.329 30.9341 161.27 30.5582 160.611 29.8313C159.961 29.1267 159.641 28.3697 159.646 27.5606C159.641 26.7687 159.964 26.0163 160.619 25.3034C161.273 24.5663 162.36 24.1878 163.885 24.1649ZM163.593 24.579C163.305 24.579 163.014 24.6155 162.719 24.6894C162.406 24.7776 162.124 24.9272 161.897 25.1251C161.65 25.32 161.449 25.5939 161.301 25.9469C161.143 26.2998 161.065 26.749 161.065 27.2937C161.065 28.2175 161.345 28.9795 161.908 29.5809C162.454 30.1995 163.226 30.5142 164.219 30.5257C164.407 30.5257 164.636 30.4945 164.896 30.4328C165.163 30.3678 165.427 30.2434 165.688 30.06C165.949 29.8676 166.166 29.584 166.335 29.2082C166.506 28.8386 166.594 28.3442 166.601 27.7256C166.587 26.7433 166.3 25.9737 165.738 25.4175C165.17 24.8639 164.454 24.5848 163.593 24.579Z" fill="white"/>
<path d="M76.3589 24.1388C76.4173 24.1388 76.4764 24.163 76.5332 24.2114C76.5938 24.2624 76.66 24.3287 76.7339 24.4102C77.1112 24.7632 78.1729 25.6896 79.9168 27.1905C80.3073 27.5192 80.7531 27.9034 81.2548 28.3411C81.7456 28.7858 82.0537 29.0611 82.1782 29.1656H82.228L82.1267 25.269C82.1267 25.0091 82.102 24.823 82.0522 24.7052C82.0279 24.6551 81.9906 24.61 81.9431 24.5727C81.8956 24.5354 81.8388 24.507 81.7767 24.4893C81.5981 24.4509 81.4136 24.4344 81.2291 24.4402C81.1148 24.4402 81.061 24.4134 81.068 24.3611C81.068 24.3287 81.0961 24.3071 81.149 24.2963C81.2034 24.2899 81.2634 24.2873 81.3341 24.2873C81.9098 24.2936 82.3229 24.302 82.5773 24.3128C82.6379 24.3128 82.757 24.3071 82.9335 24.2963C83.1147 24.2899 83.3295 24.2873 83.5799 24.2873C83.7308 24.2822 83.8101 24.3064 83.8172 24.3611C83.8172 24.4134 83.7565 24.4402 83.6352 24.4402C83.5442 24.4402 83.4406 24.4485 83.3224 24.4638C83.2562 24.4741 83.1945 24.4988 83.144 24.5353C83.0935 24.5719 83.056 24.6189 83.0353 24.6714C82.9786 24.7816 82.9459 24.9582 82.9405 25.2009L82.83 30.6736C82.83 30.8501 82.7833 30.9393 82.6931 30.9393C82.6394 30.9393 82.5857 30.915 82.5344 30.8672C82.4687 30.832 82.4064 30.7928 82.3478 30.75C81.3335 29.905 80.3242 29.0559 79.3202 28.2028C78.2006 27.2245 77.4377 26.5452 77.0289 26.1636L76.8754 26.0182H76.8443L76.9625 29.6625C76.9758 29.99 77.0123 30.2264 77.073 30.3729C77.1336 30.5111 77.2145 30.5945 77.318 30.6226C77.5031 30.6678 77.6812 30.6876 77.8562 30.6819L77.8969 30.683C77.9853 30.688 78.0306 30.7106 78.0306 30.7513C78.0205 30.806 77.9403 30.8329 77.7902 30.8329C77.1353 30.8233 76.7097 30.8151 76.516 30.8093C76.1469 30.82 75.7776 30.8279 75.4083 30.8329C75.2574 30.8392 75.1812 30.8118 75.1812 30.7513C75.1812 30.7048 75.2364 30.6819 75.3477 30.6819C75.4993 30.6819 75.6534 30.6679 75.8105 30.6398C75.9427 30.6118 76.0306 30.5156 76.0773 30.3519C76.12 30.1907 76.1395 29.9281 76.1317 29.5637L76.222 24.432C76.215 24.2427 76.2609 24.1452 76.3589 24.1388Z" fill="white"/>
<path d="M179.69 24.1399C179.743 24.1452 179.794 24.169 179.842 24.2114C179.903 24.2624 179.969 24.3287 180.043 24.4102C180.42 24.7632 181.482 25.6896 183.226 27.1905C183.618 27.5192 184.062 27.9034 184.564 28.3411C185.056 28.7858 185.363 29.0611 185.489 29.1656H185.537L185.436 25.269C185.436 25.0091 185.413 24.823 185.36 24.7052C185.336 24.655 185.299 24.6098 185.251 24.5725C185.203 24.5353 185.146 24.5069 185.084 24.4893C184.907 24.4508 184.723 24.4343 184.54 24.4402C184.423 24.4402 184.37 24.4134 184.376 24.3611C184.376 24.3287 184.407 24.3071 184.458 24.2963C184.512 24.2899 184.575 24.2873 184.643 24.2873C185.219 24.2936 185.634 24.302 185.886 24.3128C185.947 24.3128 186.067 24.3071 186.242 24.2963C186.426 24.2899 186.64 24.2873 186.889 24.2873C187.039 24.2822 187.119 24.3064 187.126 24.3611C187.126 24.4134 187.067 24.4402 186.944 24.4402C186.855 24.4402 186.75 24.4485 186.633 24.4638C186.567 24.4738 186.505 24.4984 186.454 24.535C186.404 24.5715 186.366 24.6187 186.346 24.6714C186.288 24.7816 186.254 24.9582 186.249 25.2009L186.141 30.6736C186.141 30.8501 186.092 30.9393 186.002 30.9393C185.948 30.9393 185.895 30.915 185.845 30.8672C185.779 30.832 185.716 30.7928 185.657 30.75C184.642 29.9051 183.633 29.0559 182.629 28.2028C181.51 27.2246 180.746 26.5452 180.338 26.1636L180.184 26.0182H180.155L180.271 29.6625C180.286 29.99 180.321 30.2264 180.382 30.3729C180.444 30.5111 180.523 30.5945 180.627 30.6226C180.812 30.6678 180.99 30.6876 181.167 30.6819C181.28 30.6819 181.339 30.7048 181.339 30.7513C181.329 30.806 181.249 30.8329 181.099 30.8329C180.772 30.8281 180.502 30.8235 180.29 30.8196L179.825 30.8093C179.675 30.8151 179.305 30.8233 178.719 30.8329C178.568 30.8392 178.493 30.8118 178.493 30.7513C178.493 30.7048 178.545 30.6819 178.656 30.6819C178.808 30.6819 178.962 30.6679 179.119 30.6398C179.252 30.6118 179.34 30.5156 179.386 30.3519C179.431 30.1907 179.448 29.9281 179.443 29.5637L179.531 24.432C179.524 24.2427 179.571 24.1452 179.668 24.1388L179.69 24.1399Z" fill="white"/>
<path fill-rule="evenodd" clip-rule="evenodd" d="M97.7559 24.2866C98.4677 24.2775 99.1792 24.3188 99.8824 24.4097C100.634 24.5116 101.3 24.7995 101.879 25.2723C102.144 25.4927 102.377 25.7851 102.577 26.1476C102.768 26.5121 102.866 26.9543 102.873 27.4767C102.866 28.0169 102.756 28.4928 102.538 28.9011C102.316 29.3076 102.056 29.6364 101.755 29.8906C101.644 29.9894 101.49 30.0971 101.293 30.2124C101.065 30.3431 100.823 30.4561 100.57 30.5499C100.019 30.7793 99.2663 30.9005 98.3142 30.9145C97.9186 30.9082 97.5234 30.8896 97.1295 30.8589C96.8795 30.8369 96.6286 30.8223 96.3774 30.8149L96.1262 30.8099C95.7816 30.8156 95.349 30.8227 94.8325 30.8341C94.6941 30.8341 94.6264 30.8055 94.6264 30.752C94.6194 30.7055 94.6715 30.6819 94.7858 30.6819C94.9461 30.6819 95.0691 30.6703 95.1554 30.6474C95.2055 30.6368 95.2516 30.6161 95.2894 30.5872C95.3271 30.5582 95.3553 30.522 95.3715 30.4818C95.4151 30.4035 95.4424 30.2989 95.4572 30.1689C95.4891 29.772 95.5069 29.1553 95.5069 28.3233L95.5063 26.7987C95.5063 25.6634 95.5 25.0506 95.4891 24.9601C95.4821 24.8078 95.4502 24.695 95.3942 24.6218C95.3336 24.5396 95.2175 24.4873 95.0464 24.465C94.9142 24.4461 94.7801 24.4375 94.6459 24.4395C94.5285 24.4452 94.4709 24.4179 94.4709 24.3619C94.4709 24.3122 94.5455 24.2866 94.6963 24.2866C95.3186 24.2929 95.811 24.3012 96.1759 24.3121L97.7559 24.2866ZM97.5916 24.6937C97.4827 24.6937 97.3583 24.6962 97.2214 24.7019C97.1184 24.7108 97.0168 24.7292 96.9188 24.7568C96.8332 24.7854 96.7928 24.8435 96.7998 24.9308C96.7928 25.3105 96.7896 25.8877 96.7896 26.6617V27.7531C96.7896 28.7132 96.796 29.2961 96.81 29.5051C96.8154 29.6153 96.8294 29.7371 96.8496 29.8696C96.8574 30.0078 96.8792 30.1052 96.9196 30.1619C96.9896 30.2434 97.1334 30.32 97.3512 30.3907C97.5651 30.4697 97.8717 30.5091 98.2692 30.5091C99.2773 30.5206 100.066 30.3129 100.634 29.8867C100.954 29.6382 101.181 29.3261 101.312 28.9502C101.44 28.5512 101.502 28.14 101.497 27.7276C101.49 27.1714 101.383 26.7152 101.175 26.3565C101.089 26.1902 100.983 26.0314 100.859 25.8825C100.743 25.7551 100.625 25.6481 100.509 25.5602C100.029 25.1907 99.5261 24.9505 98.9972 24.8416C98.4682 24.7371 98.0015 24.6879 97.5916 24.6937Z" fill="white"/>
<path fill-rule="evenodd" clip-rule="evenodd" d="M116.49 24.1025C116.576 24.1025 116.661 24.1943 116.751 24.3764C117.593 26.1544 118.441 27.9305 119.295 29.7046C119.495 30.0805 119.67 30.329 119.82 30.4487C119.97 30.5647 120.098 30.6309 120.202 30.6481C120.359 30.6704 120.503 30.6819 120.632 30.6819C120.721 30.6819 120.764 30.7061 120.764 30.752C120.764 30.7851 120.736 30.8029 120.683 30.8093C120.614 30.8259 120.482 30.8347 120.292 30.8347C119.874 30.8347 119.226 30.8284 118.351 30.8176C118.153 30.8176 118.051 30.7959 118.044 30.7513C118.044 30.706 118.091 30.6787 118.187 30.6736C118.283 30.6507 118.314 30.5843 118.281 30.4741L117.458 28.6348C117.451 28.6167 117.437 28.601 117.418 28.5902C117.404 28.5821 117.387 28.5771 117.37 28.5754L117.353 28.5749H115.067C115.017 28.5749 114.985 28.598 114.971 28.6432L114.419 29.8854C114.316 30.1167 114.263 30.2933 114.263 30.415C114.263 30.4882 114.294 30.5486 114.356 30.597C114.418 30.6537 114.524 30.6819 114.675 30.6819H114.83L114.868 30.683C114.95 30.6882 114.987 30.7119 114.981 30.752C114.981 30.8061 114.924 30.8347 114.811 30.8347C114.629 30.8291 114.447 30.8242 114.264 30.8199L113.718 30.8093C113.527 30.8144 113.124 30.8232 112.509 30.8347C112.379 30.8347 112.314 30.8061 112.314 30.752C112.314 30.7042 112.355 30.6819 112.44 30.6819C112.547 30.6819 112.652 30.6761 112.755 30.6646C112.99 30.6366 113.171 30.5532 113.302 30.415C113.378 30.342 113.439 30.2596 113.482 30.1709C113.533 30.0861 113.581 29.9911 113.627 29.8867L116.205 24.4485C116.316 24.2128 116.411 24.0968 116.49 24.1025ZM116.234 25.8787C116.208 25.8839 116.187 25.9094 116.176 25.9533L115.231 28.0851C115.214 28.1245 115.228 28.1449 115.273 28.145H117.163C117.21 28.1449 117.227 28.1277 117.213 28.0939L116.285 25.9533C116.279 25.9094 116.262 25.8838 116.234 25.8787Z" fill="white"/>
<path d="M27.6358 24.2235C27.6743 24.2328 27.6946 24.2572 27.6946 24.2968C27.6869 24.3414 27.6581 24.4702 27.6083 24.6836C27.5943 24.9079 27.5771 25.141 27.5561 25.3825C27.5561 25.464 27.5235 25.5047 27.4558 25.5047C27.392 25.5047 27.3554 25.4582 27.3484 25.3652V25.2187C27.3419 25.1555 27.3217 25.0938 27.2886 25.0364C27.2621 24.974 27.1897 24.9136 27.0723 24.8544C26.961 24.8091 26.8054 24.7835 26.6086 24.7778L25.0165 24.7523C24.9558 24.7523 24.9246 24.7919 24.9246 24.8709V27.0415C24.9184 27.095 24.9425 27.1217 24.9961 27.1217L26.3108 27.1134C26.4858 27.1134 26.6399 27.1103 26.7729 27.1046C26.968 27.1046 27.1173 27.0523 27.2208 26.9479C27.2605 26.8886 27.3041 26.8585 27.3524 26.8585C27.3912 26.8585 27.4106 26.8861 27.4106 26.9396C27.405 27.0519 27.3884 27.1638 27.3609 27.2739C27.3555 27.3376 27.3452 27.4052 27.3312 27.4759C27.3075 27.6854 27.2943 27.8957 27.2916 28.1061C27.292 28.1415 27.2888 28.1769 27.2816 28.2118C27.2738 28.2513 27.2427 28.2711 27.1859 28.2711C27.133 28.2654 27.1066 28.2245 27.1066 28.148C27.1065 28.0805 27.0862 27.9925 27.0458 27.8811C27.0169 27.8072 26.963 27.7416 26.8903 27.692C26.8462 27.6535 26.7927 27.623 26.7332 27.6027C26.6639 27.5842 26.592 27.573 26.5193 27.5691C26.26 27.5486 25.9995 27.5401 25.7391 27.5435H24.9961C24.9495 27.5435 24.9246 27.569 24.9246 27.6199V28.3233C24.9183 29.1732 24.9355 29.7887 24.9752 30.1703C24.9892 30.2996 25.0235 30.404 25.0802 30.4836C25.1292 30.5709 25.228 30.6257 25.3781 30.6486C25.5492 30.6709 25.7204 30.6806 25.8916 30.6806C26.0082 30.6806 26.0672 30.7048 26.0672 30.752C26.0671 30.8067 25.9918 30.8334 25.8417 30.8334C25.4855 30.8286 25.1772 30.8241 24.9172 30.8199L24.2821 30.8093L22.9768 30.8334C22.8329 30.8334 22.7621 30.8067 22.7621 30.752C22.7551 30.7048 22.8033 30.6824 22.9106 30.6824C23.0716 30.6824 23.1946 30.6709 23.281 30.6486C23.3312 30.6383 23.3773 30.6177 23.4151 30.5888C23.453 30.5598 23.4813 30.5234 23.4973 30.4831C23.54 30.4041 23.5672 30.2996 23.582 30.1703C23.6146 29.7887 23.6318 29.1732 23.6318 28.3227V26.7981C23.6318 25.6635 23.6248 25.0524 23.6147 24.9613C23.6069 24.8078 23.5758 24.6962 23.5198 24.6223C23.4591 24.5408 23.3431 24.4885 23.1735 24.4643C23.0409 24.4467 22.9066 24.4387 22.7722 24.4402C22.6556 24.4402 22.5965 24.4166 22.5964 24.3701C22.5964 24.3147 22.6742 24.288 22.8328 24.288C23.3269 24.2916 23.821 24.3 24.3148 24.3133C25.298 24.3133 26.2043 24.3108 27.0358 24.3051C27.2193 24.2987 27.361 24.2878 27.4574 24.2713C27.5068 24.2464 27.5613 24.2292 27.6183 24.2204L27.6358 24.2235Z" fill="white"/>
<path d="M129.256 24.1677C129.293 24.1735 129.337 24.188 129.388 24.2114C129.474 24.2456 129.567 24.2658 129.662 24.2707C129.988 24.2994 130.33 24.3133 130.692 24.3133H134.76C135.374 24.2961 135.705 24.2682 135.748 24.2287L135.758 24.2294C135.805 24.2365 135.829 24.2967 135.829 24.409C135.822 24.7186 135.812 25.0518 135.798 25.4092C135.791 25.5022 135.76 25.5487 135.703 25.5487C135.629 25.5545 135.591 25.4964 135.591 25.3747L135.583 25.2773C135.583 25.1563 135.493 25.0479 135.316 24.9511C135.135 24.8581 134.82 24.8058 134.368 24.7943L133.073 24.769V28.3233C133.067 29.156 133.084 29.7759 133.124 30.1824C133.141 30.3034 133.176 30.4041 133.229 30.4831C133.276 30.571 133.377 30.6257 133.527 30.6486C133.696 30.6697 133.872 30.6806 134.054 30.6806C134.165 30.6806 134.22 30.7048 134.22 30.7513C134.21 30.8067 134.144 30.8334 134.023 30.8334L132.408 30.8093L131.115 30.8334C130.977 30.8334 130.909 30.8067 130.909 30.7513C130.902 30.7048 130.958 30.6824 131.074 30.6824C131.199 30.6856 131.324 30.6743 131.445 30.6486C131.496 30.6368 131.542 30.6158 131.581 30.5872C131.62 30.5585 131.65 30.5228 131.67 30.4831C131.711 30.4041 131.734 30.2996 131.74 30.1696C131.774 29.7733 131.791 29.1572 131.791 28.3258V24.7695L130.258 24.8033C130.037 24.8034 129.817 24.8206 129.6 24.8544C129.461 24.886 129.34 24.9562 129.258 25.053C129.165 25.1855 129.108 25.2862 129.087 25.3569C129.074 25.4245 129.035 25.4589 128.971 25.4589C128.904 25.4588 128.875 25.4129 128.882 25.3244C128.882 25.2817 128.896 25.2123 128.921 25.1168C128.942 25.0193 128.962 24.9116 128.983 24.7976C129.049 24.5448 129.087 24.3881 129.101 24.3301C129.129 24.2205 129.169 24.1649 129.222 24.1649L129.256 24.1677Z" fill="white"/>
<path d="M148.887 24.2803C149.024 24.2803 149.096 24.3032 149.101 24.3471C149.101 24.4029 149.059 24.4314 148.975 24.4338L148.936 24.4332C148.833 24.4343 148.73 24.4427 148.629 24.4586C148.498 24.4751 148.404 24.5224 148.348 24.597C148.287 24.676 148.254 24.7944 148.247 24.9523C148.24 25.0683 148.237 25.2435 148.237 25.4811C148.229 25.7175 148.226 26.1527 148.226 26.7866V28.3074C148.218 29.1713 148.234 29.8039 148.268 30.2034C148.287 30.3193 148.325 30.4111 148.379 30.4786C148.428 30.5608 148.529 30.6098 148.68 30.6271C148.851 30.6481 149.024 30.6589 149.201 30.6589C149.312 30.6589 149.367 30.6838 149.367 30.729C149.36 30.7838 149.295 30.8118 149.172 30.8118C148.439 30.801 147.91 30.7927 147.574 30.7863L146.285 30.8118C146.149 30.8118 146.079 30.7837 146.079 30.7302C146.072 30.6837 146.126 30.6608 146.238 30.6608C146.399 30.6608 146.522 30.6481 146.608 30.6271C146.795 30.5933 146.894 30.4487 146.908 30.1964C146.94 29.8027 146.958 29.1744 146.958 28.3105V26.7821C146.958 25.6513 146.952 25.0415 146.94 24.9511C146.926 24.6619 146.811 24.5008 146.59 24.467C146.468 24.4441 146.344 24.4327 146.219 24.4332C146.112 24.439 146.058 24.4102 146.058 24.3471C146.058 24.3026 146.142 24.2803 146.304 24.2803C146.748 24.2847 147.192 24.2936 147.635 24.307C147.983 24.3019 148.4 24.293 148.887 24.2803Z" fill="white"/>
<path fill-rule="evenodd" clip-rule="evenodd" d="M83.2295 8.32053C87.2931 8.39061 89.3668 10.0152 89.4524 13.1886C89.4415 14.7112 88.8714 15.969 87.7396 16.9641C86.6133 17.9822 85.0605 18.5033 83.0832 18.5288C80.8982 18.4944 79.3121 17.9311 78.3227 16.8372C77.3511 15.7777 76.8688 14.6399 76.8812 13.4224C76.8688 12.233 77.3566 11.1021 78.3382 10.0286C79.3152 8.92328 80.9449 8.35302 83.2295 8.32053ZM82.79 8.94173C82.3591 8.94173 81.9235 8.99644 81.4833 9.10727C81.0329 9.22959 80.6214 9.44819 80.2511 9.76352C79.8808 10.0553 79.582 10.4682 79.3565 10.9977C79.1231 11.5283 79.0034 12.203 79.0034 13.0223C79.0034 14.4099 79.4235 15.5567 80.2667 16.4601C81.0881 17.3902 82.2424 17.8631 83.7289 17.8803C84.0151 17.8803 84.3527 17.8337 84.7439 17.7401C85.143 17.6432 85.5397 17.4552 85.9302 17.18C86.3199 16.8907 86.6435 16.4658 86.8986 15.9007C87.1538 15.3445 87.286 14.6017 87.2969 13.6715C87.2775 12.1947 86.8474 11.0383 86.005 10.2037C85.154 9.37105 84.082 8.95001 82.79 8.94173Z" fill="white"/>
<path d="M38.2614 8.50351C38.434 8.50352 38.525 8.53594 38.5351 8.60219C38.5351 8.68882 38.4651 8.73214 38.322 8.73214C38.1431 8.73214 37.9618 8.75309 37.7728 8.79577C37.5939 8.84674 37.4493 8.99459 37.3373 9.24046C37.1791 9.54857 37.0314 9.86028 36.8945 10.1751C35.8184 12.7461 34.7787 15.3272 33.7754 17.9178C33.6976 18.1344 33.63 18.288 33.5693 18.381C33.5094 18.4798 33.4252 18.5275 33.3171 18.5275C33.2471 18.5275 33.181 18.4797 33.1196 18.381C33.0418 18.281 32.9501 18.1159 32.8381 17.8853L29.5866 11.3615H29.5577C28.7332 13.2562 27.718 15.4135 26.5131 17.8344C26.4199 18.0167 26.3154 18.1949 26.1998 18.3683C26.1251 18.4747 26.0409 18.5275 25.9484 18.5275C25.8115 18.5275 25.6924 18.3702 25.5898 18.0523L22.2793 9.77574C22.1004 9.28714 21.9082 8.97809 21.7006 8.84682C21.4804 8.77037 21.2726 8.73214 21.0742 8.73214C20.9171 8.74105 20.8332 8.70085 20.8223 8.61549C20.8332 8.54035 20.9468 8.50351 21.1653 8.50351C22.101 8.51243 22.7053 8.52442 22.9808 8.54162C23.0624 8.54162 23.261 8.53329 23.5768 8.51609C23.8763 8.50781 24.2551 8.50351 24.7132 8.50351C24.9318 8.50352 25.04 8.54042 25.04 8.61495C25.0322 8.70093 24.9372 8.74106 24.7591 8.73214C24.6261 8.73214 24.497 8.74943 24.3694 8.78319C24.2434 8.83416 24.1835 8.92845 24.1944 9.06989C24.1944 9.10365 24.2115 9.15595 24.2488 9.22788C24.2566 9.30559 24.2784 9.39609 24.308 9.50181C24.3694 9.70948 24.448 9.9649 24.546 10.2655C25.2017 12.18 25.8683 14.0283 26.545 15.8116H26.5903L29.6185 9.02333C29.7149 8.84115 29.788 8.71373 29.8386 8.64173C29.9008 8.58248 29.9561 8.5524 30.0066 8.5524C30.0945 8.55241 30.173 8.6009 30.243 8.69961C30.3037 8.80154 30.3776 8.95513 30.4647 9.16281L33.714 15.7154H33.7606C34.4361 13.7657 35.1276 11.8197 35.8352 9.87766C35.8967 9.72093 35.944 9.57689 35.9805 9.44501C35.9906 9.31701 35.9961 9.20938 35.9961 9.12021C35.9967 9.06686 35.9842 9.01383 35.9592 8.96455C35.9342 8.91533 35.8973 8.87076 35.8508 8.83352C35.7496 8.76599 35.5449 8.73214 35.2408 8.73214C35.062 8.73213 34.9733 8.69264 34.9733 8.61495C34.9733 8.54041 35.0954 8.50351 35.3388 8.50351C36.2256 8.51243 36.7656 8.52441 36.9647 8.54162C37.0456 8.54161 37.2167 8.53328 37.4756 8.51609C37.7253 8.50781 37.9861 8.50351 38.2614 8.50351Z" fill="white"/>
<path d="M94.8018 8.28224C94.8912 8.28224 94.9791 8.3174 95.0639 8.38937C95.1549 8.46582 95.2554 8.56587 95.3651 8.68883C95.9307 9.2183 97.5191 10.6122 100.132 12.8668C100.718 13.3625 101.387 13.9398 102.137 14.5967C102.591 15.0154 103.052 15.4291 103.519 15.8376H103.593L103.443 9.98083C103.443 9.58969 103.405 9.30745 103.33 9.13352C103.24 8.96853 103.103 8.85951 102.917 8.80854C102.65 8.74998 102.374 8.72428 102.098 8.73214C101.927 8.73214 101.849 8.69322 101.859 8.61549C101.859 8.56581 101.898 8.53273 101.977 8.51681C102.058 8.50853 102.151 8.50405 102.257 8.50405L102.858 8.51106C103.413 8.51894 103.833 8.52943 104.118 8.54233C104.208 8.54233 104.386 8.53337 104.651 8.51681C104.921 8.50853 105.246 8.50405 105.621 8.50405C105.844 8.49578 105.963 8.53206 105.972 8.61549C105.972 8.69322 105.883 8.73268 105.702 8.73268C105.566 8.73269 105.409 8.74549 105.233 8.77097C105.134 8.78679 105.042 8.82411 104.967 8.879C104.891 8.93391 104.835 9.00448 104.804 9.08319C104.718 9.2482 104.67 9.51327 104.66 9.87766L104.494 18.1031C104.494 18.3707 104.427 18.5032 104.292 18.5033C104.212 18.5033 104.131 18.4676 104.051 18.3956C103.953 18.3423 103.86 18.2824 103.774 18.2166C102.254 16.9477 100.742 15.6718 99.2396 14.3889C97.3221 12.7102 96.1025 11.6156 95.5758 11.1078H95.5292L95.7066 16.5843C95.7253 17.0755 95.782 17.4316 95.8723 17.6514C95.9617 17.8604 96.0853 17.9846 96.24 18.0273C96.5162 18.0948 96.783 18.1249 97.0436 18.1166C97.2186 18.1166 97.3065 18.1516 97.3065 18.2203C97.2933 18.3025 97.1728 18.3447 96.9473 18.3447C96.6291 18.3398 96.3108 18.334 95.9927 18.3276L95.0384 18.3064C94.8128 18.3154 94.2597 18.3282 93.3777 18.3447C93.1536 18.3536 93.04 18.3127 93.04 18.2203C93.0401 18.1516 93.1226 18.1159 93.2882 18.1159C93.5153 18.1159 93.744 18.095 93.9805 18.0523C94.1765 18.0102 94.3094 17.8661 94.3802 17.6189C94.4455 17.3774 94.4736 16.9818 94.4627 16.4358L94.5989 8.71992C94.5888 8.43651 94.6556 8.28929 94.8018 8.28224Z" fill="white"/>
<path d="M58.0949 8.50279C58.3119 8.50279 58.4186 8.54097 58.4186 8.61423C58.4186 8.69003 58.3489 8.72972 58.2101 8.7325L58.1463 8.73143C57.9519 8.73143 57.7497 8.74423 57.5451 8.76971C57.3491 8.7952 57.2075 8.86534 57.1235 8.98001C57.0317 9.09915 56.9819 9.27685 56.9718 9.51511C56.9632 9.68903 56.9576 9.95467 56.9576 10.3101C56.9475 10.6669 56.9421 11.3225 56.9421 12.2769V14.5686C56.932 15.4032 56.9477 16.0455 56.9873 16.4946C57.0262 16.9647 57.1219 17.2566 57.2666 17.3712C57.3872 17.4572 57.5833 17.5247 57.8539 17.5751C58.1207 17.6311 58.5462 17.6579 59.1335 17.6579C59.5457 17.6579 59.9051 17.6349 60.2123 17.5871C60.5079 17.5546 60.749 17.4545 60.9341 17.2889C61.1512 17.0646 61.2842 16.8034 61.3332 16.5072C61.3333 16.3887 61.3924 16.325 61.5075 16.3161C61.5868 16.3161 61.628 16.3888 61.6281 16.5327C61.6281 16.6296 61.6079 16.8488 61.5659 17.1877C61.5161 17.5266 61.4632 17.8075 61.401 18.0318C61.3714 18.1719 61.3044 18.2637 61.1987 18.3057C61.0734 18.3567 60.8168 18.3823 60.431 18.3823C58.9373 18.3649 57.4437 18.3399 55.9504 18.3072C55.4331 18.3142 54.7874 18.3268 54.0103 18.344C53.805 18.344 53.7016 18.3045 53.7016 18.2198C53.6915 18.1504 53.7724 18.1154 53.9412 18.1154C54.1807 18.1154 54.3651 18.0981 54.4957 18.0643C54.5708 18.0486 54.6398 18.0175 54.6963 17.9741C54.7527 17.9307 54.7947 17.8762 54.8185 17.8159C54.8912 17.6658 54.9342 17.507 54.9455 17.3457C54.996 16.7468 55.02 15.8224 55.02 14.5699V12.2769C55.02 10.5714 55.0114 9.65082 54.9935 9.51511C54.9857 9.28576 54.9367 9.11558 54.8512 9.00536C54.7609 8.88245 54.5891 8.80348 54.3325 8.76971C54.1646 8.74162 53.9934 8.72874 53.8222 8.73143C53.6471 8.74035 53.5592 8.70088 53.5592 8.61423C53.5592 8.54098 53.6728 8.5028 53.8967 8.50279L54.5133 8.51016C55.1003 8.51828 55.5988 8.52847 56.0072 8.5409C56.5929 8.53261 57.2906 8.51999 58.0949 8.50279Z" fill="white"/>
<path d="M173.473 8.50279C173.689 8.50279 173.796 8.54097 173.796 8.61423C173.796 8.69001 173.729 8.72972 173.589 8.7325L173.525 8.73143C173.328 8.73143 173.127 8.74423 172.921 8.76971C172.723 8.79519 172.583 8.86517 172.496 8.97983C172.405 9.09897 172.354 9.27684 172.347 9.51511C172.337 9.68904 172.33 9.95468 172.33 10.3101C172.317 10.9656 172.312 11.6213 172.314 12.2769V14.5685C172.304 15.403 172.32 16.0453 172.36 16.4944C172.401 16.9646 172.494 17.2563 172.64 17.371C172.761 17.4571 172.958 17.5247 173.229 17.5751C173.499 17.6311 173.926 17.6577 174.513 17.6577C174.929 17.6577 175.29 17.6349 175.596 17.5871C175.893 17.5546 176.135 17.4545 176.32 17.2889C176.537 17.0646 176.673 16.8034 176.721 16.5072C176.721 16.3887 176.78 16.325 176.896 16.3161C176.975 16.3162 177.019 16.3888 177.019 16.5327C177.019 16.6296 176.996 16.8488 176.957 17.1877C176.905 17.5266 176.851 17.8075 176.789 18.0318C176.759 18.1719 176.692 18.2637 176.588 18.3057C176.46 18.3567 176.203 18.3821 175.816 18.3821C173.824 18.3566 172.325 18.3312 171.32 18.307C170.8 18.314 170.152 18.3268 169.373 18.344C169.168 18.344 169.063 18.3045 169.063 18.2198C169.052 18.1504 169.133 18.1152 169.303 18.1152C169.544 18.1152 169.73 18.0981 169.86 18.0643C169.935 18.0484 170.004 18.0173 170.061 17.9739C170.117 17.9305 170.16 17.8761 170.185 17.8157C170.251 17.6973 170.29 17.5406 170.311 17.3457C170.361 16.7468 170.385 15.8223 170.385 14.5697V12.2769C170.385 10.5717 170.377 9.65104 170.36 9.51511C170.35 9.28576 170.302 9.11558 170.216 9.00536C170.126 8.8824 169.953 8.80348 169.697 8.76971C169.528 8.74165 169.356 8.72877 169.184 8.73143C169.008 8.74034 168.919 8.70085 168.919 8.61423C168.919 8.54098 169.036 8.5028 169.258 8.50279L169.877 8.51016C170.467 8.51828 170.968 8.52847 171.378 8.5409C171.965 8.53261 172.664 8.51999 173.473 8.50279Z" fill="white"/>
<path fill-rule="evenodd" clip-rule="evenodd" d="M45.4525 8.23425C45.5709 8.25027 45.6957 8.38672 45.8241 8.64479C47.1036 11.3176 48.3924 13.9875 49.6902 16.6544C49.9966 17.2175 50.2619 17.5921 50.4913 17.7737C50.72 17.9476 50.9131 18.0464 51.0702 18.0719C51.3098 18.1056 51.5283 18.1242 51.7259 18.1242C51.8581 18.1242 51.925 18.1579 51.925 18.2286C51.925 18.2783 51.8829 18.3064 51.8028 18.3147C51.6962 18.3402 51.4963 18.3528 51.2078 18.3528C50.5715 18.3528 49.5891 18.3434 48.2567 18.3275C47.9572 18.3275 47.8015 18.2936 47.7914 18.2286C47.7915 18.1586 47.863 18.1184 48.0045 18.1102C48.1531 18.0764 48.2006 17.9776 48.1501 17.8107L46.8992 15.0457C46.8696 14.9858 46.8152 14.9558 46.7405 14.9558H43.262C43.1873 14.9558 43.1375 14.9896 43.1172 15.059L42.2794 16.9258C42.1223 17.2742 42.043 17.5399 42.043 17.7221C42.043 17.8317 42.0889 17.9234 42.1799 17.996C42.2756 18.0801 42.4404 18.1242 42.6675 18.1242H42.9033L42.9609 18.1258C43.0855 18.1332 43.1416 18.1668 43.1328 18.2286C43.1328 18.3108 43.0472 18.3515 42.8738 18.3516C42.5915 18.343 42.3115 18.336 42.0346 18.33L41.2129 18.3147C40.922 18.3236 40.3106 18.3344 39.375 18.3516C39.1758 18.3516 39.0777 18.3108 39.0777 18.2286C39.0778 18.1586 39.14 18.1229 39.2683 18.1229C39.4309 18.1229 39.5896 18.1146 39.7475 18.0974C40.1038 18.0547 40.3799 17.9304 40.5798 17.7233C40.6895 17.617 40.7821 17.4927 40.8545 17.3545C40.9291 17.2271 41.0022 17.085 41.0746 16.9283L44.9934 8.753C45.1614 8.39756 45.3061 8.22437 45.429 8.23263L45.4525 8.23425ZM45.0377 10.9026C44.9981 10.9115 44.9662 10.9498 44.9468 11.0172L43.5131 14.2207C43.4867 14.2799 43.5077 14.3098 43.5745 14.3098H46.4489L46.4497 14.3093C46.522 14.3093 46.5476 14.2837 46.5274 14.2327L45.1148 11.0172C45.1047 10.9498 45.0797 10.9115 45.0377 10.9026Z" fill="white"/>
<path fill-rule="evenodd" clip-rule="evenodd" d="M132.196 8.2249C132.319 8.2249 132.449 8.36201 132.583 8.63724C133.539 10.6804 134.799 13.3499 136.367 16.6469C136.666 17.21 136.927 17.5846 137.151 17.7661C137.375 17.94 137.563 18.0388 137.717 18.0643C137.952 18.0981 138.166 18.1154 138.359 18.1154C138.489 18.1154 138.554 18.1503 138.554 18.2211C138.554 18.2707 138.513 18.2987 138.434 18.307C138.33 18.3325 138.137 18.3453 137.853 18.3453C137.23 18.3453 136.267 18.3357 134.964 18.3197C134.67 18.3197 134.519 18.286 134.51 18.2211C134.51 18.151 134.579 18.1109 134.717 18.1026C134.863 18.0688 134.908 17.97 134.859 17.8032L133.635 15.0381C133.61 14.9858 133.566 14.9563 133.506 14.9497L133.48 14.9483H130.076C130.002 14.9483 129.953 14.982 129.935 15.0514L129.113 16.9181C128.959 17.2666 128.882 17.5323 128.882 17.7145C128.88 17.7653 128.891 17.8159 128.914 17.863C128.937 17.9101 128.972 17.9528 129.016 17.9885C129.109 18.0726 129.27 18.1154 129.493 18.1154H129.724L129.78 18.117C129.902 18.1247 129.958 18.1592 129.949 18.2211C129.949 18.3032 129.865 18.344 129.695 18.344C129.143 18.3268 128.601 18.3159 128.069 18.307C127.785 18.3159 127.186 18.3268 126.27 18.344C126.076 18.344 125.979 18.3032 125.979 18.2211C125.979 18.151 126.042 18.1154 126.166 18.1154C126.326 18.1154 126.481 18.107 126.635 18.0898C126.984 18.0472 127.254 17.9228 127.449 17.7158C127.559 17.6094 127.648 17.4852 127.719 17.347C127.792 17.2196 127.864 17.0775 127.934 16.9208L131.769 8.74616C131.934 8.39004 132.076 8.216 132.196 8.2249ZM131.814 10.8945C131.775 10.9034 131.746 10.9416 131.725 11.0092L130.321 14.2124C130.296 14.2723 130.317 14.3015 130.381 14.3015H133.196C133.266 14.3015 133.291 14.2761 133.271 14.2252L131.89 11.0092C131.88 10.9416 131.855 10.9034 131.814 10.8945Z" fill="white"/>
<path d="M63.7533 8.31927C63.8023 8.31928 63.8609 8.33256 63.9295 8.35881L64.0371 8.40465C64.1259 8.4391 64.2518 8.46347 64.4145 8.47852C64.9006 8.52057 65.414 8.54233 65.9546 8.54233H72.0499C72.97 8.51686 73.464 8.47413 73.5295 8.41489C73.6088 8.41489 73.6501 8.50536 73.6501 8.68757C73.6399 9.15263 73.6243 9.65346 73.6056 10.1899C73.5947 10.3299 73.5466 10.3987 73.4611 10.3987C73.3506 10.4083 73.2938 10.321 73.2938 10.1388L73.2797 9.99234C73.2797 9.81013 73.1474 9.64625 72.8822 9.50163C72.6115 9.36214 72.1378 9.28319 71.4627 9.26599L69.5242 9.2277V14.5692C69.5141 15.8217 69.5383 16.7538 69.5982 17.3648C69.6247 17.547 69.676 17.698 69.7569 17.8172C69.8277 17.9484 69.9755 18.0312 70.2018 18.0656C70.4628 18.0985 70.7264 18.1149 70.9904 18.1147C71.1553 18.1147 71.2385 18.1503 71.2386 18.2203C71.2246 18.3025 71.1266 18.3447 70.9454 18.3447L68.5261 18.3064C68.0151 18.3154 67.3695 18.3282 66.5893 18.3447C66.3824 18.3447 66.2805 18.3025 66.2805 18.2203C66.2705 18.1516 66.353 18.1159 66.5287 18.1159C66.7628 18.1159 66.9487 18.0994 67.0833 18.065C67.1589 18.0473 67.2285 18.0157 67.287 17.9727C67.3455 17.9296 67.3912 17.8761 67.4208 17.8165C67.4814 17.698 67.5157 17.5413 67.5258 17.347C67.5756 16.7494 67.6022 15.8262 67.6022 14.5757V9.22842L65.3049 9.27929C64.8748 9.28757 64.5458 9.31318 64.3202 9.35586C64.0947 9.41447 63.922 9.51512 63.8085 9.65334C63.6669 9.85401 63.5828 10.0063 63.5517 10.112C63.5307 10.214 63.4739 10.265 63.3775 10.265C63.2779 10.265 63.2328 10.1968 63.2429 10.0612C63.2429 9.99747 63.2639 9.89474 63.3035 9.75076C63.3346 9.60425 63.3657 9.4431 63.3968 9.27048C63.4933 8.89077 63.5516 8.65623 63.5719 8.56768C63.6139 8.40206 63.6724 8.31927 63.7533 8.31927Z" fill="white"/>
<path d="M152.954 8.22437C153.099 8.2244 153.195 8.35819 153.233 8.62574L154.636 16.6729C154.73 17.461 154.984 17.9 155.388 17.9892C155.831 18.0822 156.153 18.1243 156.348 18.1166L156.403 18.1181C156.523 18.1248 156.588 18.1549 156.597 18.209C156.597 18.2504 156.563 18.2829 156.491 18.3064C156.405 18.3319 156.308 18.3447 156.195 18.3447C155.15 18.3333 154.104 18.3084 153.06 18.2701C152.743 18.2459 152.593 18.1981 152.616 18.1287C152.616 18.0694 152.67 18.0229 152.779 17.9885C152.837 17.9719 152.871 17.9184 152.893 17.8292C152.904 17.7445 152.893 17.6119 152.862 17.4278L151.934 11.7017H151.874L148.504 17.6018C148.207 18.1132 148.017 18.3572 147.931 18.332C147.871 18.332 147.801 18.2714 147.72 18.1484C147.602 17.9981 147.494 17.8431 147.395 17.684C147.178 17.3196 146.866 16.7946 146.45 16.1098C146.162 15.6544 145.884 15.1949 145.616 14.7317C145.371 14.2682 145.007 13.6104 144.527 12.7584L144.008 11.8417H143.947L143.14 17.0234C143.112 17.2394 143.097 17.4439 143.097 17.6389C143.107 17.8733 143.263 18.0101 143.561 18.0528C143.84 18.0949 144.056 18.1166 144.211 18.1166C144.351 18.1166 144.428 18.1472 144.438 18.209C144.428 18.2995 144.306 18.3447 144.068 18.3447L142.45 18.3064C142.042 18.3154 141.536 18.3282 140.93 18.3447C140.755 18.3447 140.664 18.3001 140.652 18.209C140.652 18.1472 140.735 18.1159 140.894 18.1159C141 18.1242 141.154 18.1122 141.361 18.0778C141.567 18.0268 141.718 17.8975 141.82 17.6892C141.914 17.4993 141.973 17.2858 141.994 17.0488L143.524 8.56211C143.572 8.33721 143.656 8.22437 143.777 8.22437L143.804 8.2258C143.865 8.23152 143.923 8.25321 143.968 8.28799C144.029 8.34725 144.107 8.46009 144.201 8.62574L148.414 15.9671L152.615 8.53658C152.716 8.32889 152.83 8.22437 152.954 8.22437Z" fill="white"/>
<path d="M189.677 8.50495C189.812 8.51207 189.884 8.54424 189.895 8.60273C189.883 8.68872 189.785 8.73213 189.6 8.73214C189.413 8.73214 189.188 8.78317 188.921 8.88511C188.649 8.99087 188.371 9.20545 188.084 9.52716C187.767 9.89284 187.252 10.5734 186.54 11.5723C186.24 11.9948 185.949 12.4212 185.665 12.851C185.393 13.2421 185.219 13.5161 185.14 13.6728C185.088 13.7875 185.048 13.8946 185.017 13.9978C184.982 14.1118 184.954 14.2208 184.936 14.3228C184.912 14.5425 184.905 14.7611 184.905 14.977V16.0472C184.894 16.3059 184.908 16.7393 184.949 17.3452C184.96 17.5413 185.017 17.698 185.122 17.8165C185.203 17.9477 185.357 18.0313 185.584 18.065C185.841 18.0975 186.101 18.1146 186.358 18.1147C186.524 18.1147 186.603 18.1498 186.603 18.2205C186.592 18.302 186.479 18.3447 186.274 18.3447L183.914 18.3064C183.369 18.3147 182.726 18.3275 181.984 18.3447C181.758 18.3447 181.644 18.302 181.644 18.2205C181.644 18.1511 181.727 18.1159 181.894 18.1159C182.111 18.1159 182.291 18.0988 182.437 18.065C182.59 18.0313 182.707 17.9477 182.794 17.8165C182.863 17.698 182.906 17.5413 182.916 17.3464C182.944 16.7412 182.959 16.3085 182.959 16.0505V14.977C182.959 14.6387 182.93 14.3685 182.87 14.1678C182.811 13.9731 182.722 13.7853 182.605 13.6092C182.584 13.5372 182.461 13.3409 182.235 13.023C181.968 12.6442 181.693 12.2686 181.412 11.8966C180.918 11.2079 180.411 10.5261 179.889 9.8516C179.484 9.36489 179.127 9.04569 178.817 8.89787C178.619 8.803 178.397 8.74627 178.168 8.73214C178.025 8.74106 177.951 8.7015 177.941 8.61549C177.951 8.54035 178.047 8.50351 178.237 8.50351C178.767 8.51243 179.415 8.52505 180.181 8.54162C180.351 8.54162 180.587 8.53329 180.89 8.51609C181.177 8.50781 181.489 8.50351 181.832 8.50351C181.984 8.50352 182.058 8.54036 182.058 8.61549C182.058 8.67729 181.945 8.7239 181.718 8.75767C181.576 8.79207 181.508 8.8691 181.508 8.99331C181.508 9.09525 181.568 9.24184 181.689 9.43297C181.765 9.53875 181.929 9.77447 182.187 10.1388C182.433 10.5045 182.706 10.9181 183 11.3812L184.311 13.3352C184.369 13.2378 184.509 13.0192 184.735 12.679C184.951 12.3611 185.192 11.9909 185.459 11.5718C185.859 10.968 186.251 10.3607 186.635 9.75022C186.775 9.46232 186.846 9.23488 186.846 9.06989C186.845 8.99707 186.824 8.92526 186.786 8.85958C186.746 8.80862 186.659 8.77039 186.524 8.74491C186.346 8.72834 186.253 8.68429 186.243 8.61549C186.243 8.54036 186.33 8.50352 186.509 8.50351C186.994 8.51115 187.48 8.52377 187.965 8.54162C188.536 8.53333 189.087 8.52071 189.615 8.50351L189.677 8.50495Z" fill="white"/>
<path d="M124.239 8.40213C124.315 8.41106 124.35 8.44929 124.35 8.51681C124.342 8.58312 124.299 8.77809 124.222 9.09846C124.203 9.43611 124.178 9.78656 124.147 10.1503C124.147 10.2733 124.097 10.3337 123.996 10.3337C123.902 10.3336 123.849 10.2636 123.839 10.1248V9.90175C123.828 9.80676 123.798 9.71398 123.748 9.62781C123.709 9.5348 123.601 9.44441 123.426 9.35586C123.26 9.28769 123.031 9.24947 122.736 9.24118L120.366 9.2029C120.275 9.2029 120.231 9.26225 120.231 9.38138V12.642C120.221 12.7222 120.254 12.7631 120.335 12.7631L122.293 12.7503C122.554 12.7503 122.783 12.7465 122.981 12.7376C123.271 12.7376 123.493 12.6585 123.647 12.5018C123.707 12.4126 123.772 12.368 123.842 12.368L123.863 12.37C123.908 12.3789 123.931 12.4188 123.931 12.489C123.931 12.5234 123.921 12.6139 123.902 12.7617C123.891 12.8209 123.876 12.8974 123.856 12.991C123.848 13.0879 123.832 13.1899 123.811 13.2957C123.773 13.6938 123.753 14.0098 123.753 14.2429C123.753 14.3022 123.748 14.3557 123.737 14.4022C123.727 14.4614 123.679 14.4915 123.596 14.4915C123.517 14.4833 123.476 14.4214 123.476 14.3068C123.476 14.2048 123.447 14.071 123.387 13.9054C123.356 13.8079 123.279 13.7135 123.156 13.6205C123.09 13.563 123.011 13.5175 122.922 13.4868C122.818 13.4589 122.71 13.4417 122.601 13.4357C122.418 13.4166 122.155 13.4047 121.812 13.3999L121.442 13.3976H120.335C120.265 13.3976 120.231 13.4358 120.231 13.5116V14.5699C120.221 15.8472 120.244 16.7723 120.306 17.3457C120.327 17.5406 120.378 17.6987 120.463 17.8172C120.532 17.9484 120.679 18.0318 120.905 18.0656C121.158 18.0981 121.413 18.1154 121.668 18.1154C121.843 18.1154 121.93 18.1503 121.93 18.2211C121.93 18.3026 121.819 18.344 121.595 18.344C120.821 18.3327 120.047 18.3203 119.273 18.307C118.72 18.3153 118.075 18.3281 117.331 18.344C117.117 18.344 117.011 18.3026 117.011 18.2211C117.001 18.1503 117.074 18.1166 117.234 18.1166C117.472 18.1166 117.655 18.0993 117.784 18.0656C117.859 18.0497 117.928 18.0186 117.984 17.9752C118.04 17.9317 118.081 17.8773 118.105 17.8172C118.168 17.6987 118.211 17.5419 118.232 17.3457C118.281 16.7723 118.305 15.8472 118.305 14.5699V12.2782C118.305 10.5728 118.297 9.65095 118.279 9.51511C118.271 9.2864 118.223 9.11685 118.138 9.00536C118.048 8.88243 117.877 8.80473 117.622 8.77097C117.425 8.74204 117.225 8.72876 117.024 8.73143C116.852 8.73142 116.765 8.69769 116.765 8.62699C116.765 8.54545 116.881 8.50405 117.115 8.50405L117.765 8.51142C118.381 8.51954 118.901 8.52973 119.324 8.54215C120.785 8.54215 122.134 8.53849 123.371 8.52957C123.645 8.52129 123.853 8.50401 124 8.47852C124.073 8.44125 124.154 8.4154 124.239 8.40213Z" fill="white"/>
<path d="M164.109 8.50279C164.316 8.50279 164.423 8.53712 164.434 8.60147C164.434 8.69764 164.351 8.74032 164.185 8.73143C164.048 8.73143 163.892 8.74423 163.721 8.76971C163.525 8.79519 163.384 8.86517 163.297 8.97983C163.206 9.09897 163.156 9.27684 163.146 9.51511C163.135 9.68904 163.132 9.95467 163.132 10.3114C163.118 10.9669 163.112 11.6225 163.115 12.2782V14.5697C163.106 15.8732 163.125 16.8264 163.177 17.4291C163.206 17.6024 163.259 17.7394 163.342 17.8432C163.419 17.9656 163.571 18.0388 163.798 18.0643C164.053 18.0981 164.316 18.1152 164.583 18.1152C164.75 18.1152 164.833 18.1491 164.833 18.2198C164.824 18.3026 164.726 18.344 164.539 18.344C163.437 18.3268 162.637 18.3159 162.134 18.307C161.616 18.3159 160.968 18.3268 160.19 18.344C159.982 18.344 159.88 18.3032 159.88 18.2211C159.869 18.151 159.947 18.1164 160.12 18.1164C160.361 18.1164 160.545 18.0981 160.677 18.0643C160.955 18.0133 161.107 17.7973 161.128 17.4163C161.178 16.8238 161.203 15.8758 161.203 14.5755V12.2724C161.203 10.5691 161.194 9.64983 161.176 9.51386C161.157 9.07744 160.982 8.83344 160.649 8.78247C160.489 8.75338 160.325 8.73711 160.16 8.73394L160.09 8.7334C159.93 8.74168 159.848 8.69766 159.848 8.60147C159.848 8.53713 159.971 8.5028 160.219 8.50279C160.955 8.51298 161.627 8.52561 162.224 8.5409C162.746 8.53261 163.375 8.51999 164.109 8.50279Z" fill="white"/>
</svg>
