<svg width="211" height="48" viewBox="0 0 211 48" fill="none" xmlns="http://www.w3.org/2000/svg">
<path d="M80.517 27.8071C81.1252 27.6357 81.7051 27.8056 81.8129 28.1865C81.9205 28.5677 81.5146 29.0157 80.9065 29.1876C80.2983 29.3594 79.7186 29.1891 79.6108 28.8082C79.5033 28.4273 79.909 27.979 80.517 27.8071Z" fill="white"/>
<path d="M75.4357 25.5669C75.7382 25.3115 76.3141 25.4958 76.7218 25.9783C77.1296 26.4608 77.2152 27.0594 76.9128 27.3151C76.6104 27.5705 76.0345 27.3862 75.6264 26.9037C75.2186 26.4212 75.1334 25.8222 75.4357 25.5669Z" fill="white"/>
<path d="M84.0343 25.5535C84.4141 25.0481 85.0085 24.8538 85.3618 25.119C85.7146 25.3846 85.6928 26.0093 85.3134 26.5147C84.9336 27.0196 84.3397 27.2144 83.9865 26.9488C83.6333 26.6836 83.655 26.0585 84.0343 25.5535Z" fill="white"/>
<path d="M80.8545 22.2723C81.6037 22.2724 82.2116 22.8801 82.2116 23.6294C82.2115 24.3785 81.6037 24.9864 80.8545 24.9865C80.1052 24.9865 79.497 24.3786 79.4969 23.6294C79.4969 22.8801 80.1052 22.2723 80.8545 22.2723Z" fill="white"/>
<path d="M84.6907 20.575C85.1156 20.4552 85.5997 20.8509 85.7712 21.459C85.943 22.0672 85.7378 22.6575 85.3125 22.7774C84.8876 22.8971 84.4037 22.502 84.2319 21.894C84.06 21.2859 84.2655 20.6954 84.6907 20.575Z" fill="white"/>
<path d="M75.2596 21.0764C75.4345 20.4695 75.9203 20.0759 76.3448 20.198C76.7689 20.3202 76.9715 20.912 76.7966 21.5194C76.6216 22.1264 76.1359 22.5199 75.7114 22.3977C75.2872 22.2755 75.0847 21.6839 75.2596 21.0764Z" fill="white"/>
<path d="M79.5695 18.5141C79.5892 18.1185 80.1171 17.8238 80.748 17.8556C81.3792 17.8879 81.8741 18.2346 81.8542 18.6299C81.8341 19.0252 81.3065 19.3203 80.6755 19.288C80.0443 19.2562 79.5495 18.9094 79.5695 18.5141Z" fill="white"/>
<path fill-rule="evenodd" clip-rule="evenodd" d="M82.812 11.0407C89.1678 10.8491 95.4148 15.3236 93.8047 24.6732C92.3827 32.9326 85.2839 36.878 78.6352 36.878H73.5279L72.6685 40.9699C71.9734 43.3339 70.2713 44.9575 67.8071 44.9575H62.5896L69.9445 11.0407H82.812ZM80.5142 17.159C76.9971 17.159 74.1456 20.0102 74.1456 23.5276C74.1456 27.045 76.9972 29.8962 80.5142 29.8963C84.0317 29.8963 86.883 27.0451 86.883 23.5276C86.883 20.0101 84.0317 17.159 80.5142 17.159Z" fill="white"/>
<path d="M32.1789 22.7703L36.5514 13.5851C37.2199 12.1814 38.5341 11.2189 40.0391 10.981L40.0517 10.9221H49.2307L43.7729 36.8058H34.5939L36.3225 27.8672L32.3899 36.8058H25.4975L25.9661 27.8672L23.6321 36.8058H14.582L19.3455 14.2143C19.7503 12.2957 21.4432 10.9222 23.404 10.9221H32.4438L32.1789 22.7703Z" fill="white"/>
<path d="M60.9408 10.9221L57.4274 27.8805H63.7955L62.0532 36.8058H51.6024C48.8509 36.8058 46.8016 34.266 47.3833 31.5767L51.8501 10.9221H60.9408Z" fill="white"/>
<path d="M117.067 24.8063C117.589 24.8063 118.043 24.8455 118.426 24.924C118.818 25.0024 119.189 25.1112 119.537 25.2507L119.079 27.3944C118.409 27.0633 117.646 26.8976 116.792 26.8975C115.999 26.8975 115.372 27.0807 114.91 27.4467C114.448 27.804 114.13 28.3834 113.956 29.1851C113.921 29.3419 113.895 29.4901 113.877 29.6295C113.86 29.7602 113.851 29.8865 113.851 30.0085C113.851 30.4877 114.004 30.8408 114.309 31.0673C114.622 31.2852 115.136 31.394 115.851 31.394C116.269 31.394 116.683 31.3548 117.093 31.2764C117.511 31.1979 117.934 31.076 118.361 30.9104L117.903 33.0671C117.502 33.1978 117.084 33.2981 116.648 33.3678C116.221 33.4462 115.746 33.4855 115.224 33.4855C114.012 33.4855 113.058 33.2065 112.361 32.6489C111.673 32.0912 111.328 31.2982 111.328 30.27C111.328 29.9388 111.368 29.5772 111.446 29.1851C111.751 27.7734 112.344 26.6928 113.224 25.9434C114.104 25.1854 115.385 24.8063 117.067 24.8063Z" fill="white"/>
<path fill-rule="evenodd" clip-rule="evenodd" d="M105.086 24.937C105.94 24.937 106.594 25.1636 107.047 25.6168C107.5 26.0612 107.727 26.6276 107.727 27.3159C107.727 27.5425 107.701 27.7822 107.648 28.0349C107.526 28.6274 107.313 29.1546 107.008 29.6164C106.712 30.0782 106.319 30.4398 105.831 30.7012C105.352 30.9627 104.764 31.0935 104.067 31.0935H102.08L101.609 33.3547H99.152L100.93 24.937H105.086ZM102.485 29.2113H103.753C104.197 29.2113 104.52 29.1022 104.72 28.8844C104.929 28.6665 105.069 28.3834 105.139 28.0349C105.156 27.9477 105.169 27.8649 105.178 27.7865C105.187 27.708 105.191 27.6339 105.191 27.5642C105.191 27.3289 105.125 27.1459 104.995 27.0152C104.88 26.8927 104.678 26.8277 104.388 26.82L104.328 26.8193H102.995L102.485 29.2113Z" fill="white"/>
<path d="M109.638 33.3547H107.181L108.959 24.937H111.416L109.638 33.3547Z" fill="white"/>
<path d="M122.379 27.9041L125.555 24.937H128.352L124.653 28.3877L126.784 33.3547H124.17L122.81 29.9562L121.738 30.9235L121.229 33.3547H118.771L120.549 24.937H123.006L122.379 27.9041Z" fill="white"/>
<path d="M131.942 24.937L130.556 31.4725H134.347L133.955 33.3547H127.707L129.484 24.937H131.942Z" fill="white"/>
<path d="M142.389 26.8193H138.468L138.167 28.1916H141.605L141.2 30.1H137.762L137.475 31.4725H141.396L141.004 33.3547H134.625L136.403 24.937H142.781L142.389 26.8193Z" fill="white"/>
<path fill-rule="evenodd" clip-rule="evenodd" d="M148.204 24.937C148.927 24.9371 149.472 25.0939 149.838 25.4076C150.212 25.7125 150.4 26.1352 150.4 26.6755C150.4 26.7626 150.391 26.8584 150.373 26.9629C150.365 27.0588 150.352 27.1591 150.334 27.2636C150.247 27.6993 150.09 28.0653 149.864 28.3616C149.637 28.6578 149.371 28.8931 149.066 29.0674C149.336 29.1807 149.546 29.3375 149.694 29.5379C149.851 29.7297 149.929 29.9911 149.929 30.3223C149.929 30.4007 149.92 30.4878 149.903 30.5836C149.894 30.6707 149.881 30.7623 149.864 30.8581C149.698 31.6511 149.323 32.2655 148.74 32.7012C148.164 33.1369 147.428 33.3547 146.531 33.3547H141.799L143.576 24.937H148.204ZM144.518 31.6425H146.217C146.548 31.6424 146.805 31.5727 146.988 31.4333C147.18 31.2938 147.31 31.0629 147.38 30.7405C147.389 30.6969 147.393 30.6576 147.393 30.6228C147.402 30.5793 147.406 30.5401 147.406 30.5053C147.406 30.3049 147.337 30.1566 147.197 30.0608C147.075 29.9769 146.89 29.9297 146.641 29.9192L146.531 29.9171H144.884L144.518 31.6425ZM145.236 28.2962H146.831C147.145 28.2962 147.385 28.2266 147.55 28.0872C147.724 27.9478 147.842 27.7472 147.903 27.4857C147.92 27.4422 147.929 27.3987 147.929 27.3552V27.2375C147.929 27.0458 147.864 26.9021 147.733 26.8062C147.626 26.7223 147.453 26.6752 147.213 26.6647L147.106 26.6624H145.576L145.236 28.2962Z" fill="white"/>
<path fill-rule="evenodd" clip-rule="evenodd" d="M157.135 24.937L158.586 33.3547H156.024L155.723 31.564H153.162L152.09 33.3547H149.528L154.534 24.937H157.135ZM153.854 29.7994H155.737L155.318 27.329L153.854 29.7994Z" fill="white"/>
<path d="M163.751 24.937L162.366 31.4725H166.156L165.764 33.3547H159.516L161.294 24.937H163.751Z" fill="white"/>
<path d="M170.67 24.937L169.284 31.4725H173.075L172.683 33.3547H166.435L168.212 24.937H170.67Z" fill="white"/>
<path d="M126.732 20.4358C126.532 21.3856 126.118 22.1133 125.491 22.6187C124.863 23.1154 123.983 23.3638 122.85 23.3638C122.484 23.3638 122.14 23.3377 121.818 23.2854C121.495 23.2418 121.195 23.1677 120.916 23.0631L121.347 21.024C121.748 21.1982 122.227 21.2855 122.785 21.2855C123.308 21.2855 123.678 21.1895 123.896 20.9978C124.114 20.8061 124.266 20.4881 124.354 20.0437L125.465 14.8152H127.922L126.732 20.4358Z" fill="white"/>
<path fill-rule="evenodd" clip-rule="evenodd" d="M133.101 14.6847C134.217 14.6847 135.084 14.9285 135.703 15.4165C136.321 15.8958 136.631 16.6496 136.631 17.6779C136.631 18.0787 136.578 18.5363 136.474 19.0504C136.151 20.5666 135.563 21.6645 134.709 22.3442C133.864 23.0239 132.709 23.3638 131.245 23.3638C130.165 23.3638 129.307 23.1285 128.671 22.658C128.034 22.1787 127.716 21.4205 127.716 20.3835C127.716 19.9914 127.769 19.547 127.873 19.0504C128.1 18.0047 128.435 17.1638 128.88 16.5277C129.324 15.8828 129.895 15.4166 130.592 15.129C131.298 14.8327 132.134 14.6847 133.101 14.6847ZM132.657 16.7759C132.03 16.7759 131.537 16.9502 131.18 17.2987C130.831 17.6386 130.566 18.2226 130.383 19.0504C130.339 19.2595 130.304 19.4512 130.278 19.6255C130.252 19.7998 130.239 19.961 130.239 20.1091C130.239 20.5273 130.352 20.8279 130.579 21.0109C130.814 21.1852 131.185 21.2724 131.69 21.2724C132.317 21.2724 132.81 21.0981 133.167 20.7496C133.533 20.3923 133.799 19.8259 133.964 19.0504C134.008 18.8413 134.038 18.6494 134.056 18.4751C134.082 18.2921 134.095 18.1309 134.095 17.9915C134.095 17.5558 133.982 17.2465 133.755 17.0636C133.537 16.8718 133.171 16.7759 132.657 16.7759Z" fill="white"/>
<path d="M177.102 14.6861C177.547 14.6927 177.948 14.7226 178.307 14.776C178.716 14.837 179.095 14.9286 179.444 15.0506L178.987 17.1551C178.638 17.0069 178.263 16.9066 177.862 16.8544C177.47 16.8021 177.061 16.7759 176.634 16.7759C175.884 16.7759 175.253 16.9589 174.738 17.3249C174.224 17.6909 173.88 18.2834 173.706 19.1025C173.627 19.4424 173.588 19.7387 173.588 19.9914C173.588 20.4358 173.719 20.7625 173.98 20.9717C174.25 21.1721 174.699 21.2724 175.327 21.2724C175.553 21.2724 175.767 21.2593 175.967 21.2332C176.176 21.1983 176.377 21.1547 176.568 21.1024L176.83 19.8737H175.157L175.484 18.3576H179.209L178.307 22.5926C177.941 22.793 177.47 22.9716 176.895 23.1285C176.329 23.2853 175.658 23.3638 174.882 23.3638C174.115 23.3638 173.444 23.2417 172.869 22.9977C172.303 22.7537 171.863 22.3965 171.549 21.926C171.235 21.4467 171.079 20.8629 171.079 20.1745C171.079 19.8346 171.118 19.4772 171.196 19.1025C171.501 17.6909 172.116 16.6017 173.039 15.8349C173.963 15.0681 175.253 14.6847 176.908 14.6847L177.102 14.6861Z" fill="white"/>
<path d="M183.279 14.8152L182.233 19.7299C182.181 19.9739 182.155 20.1874 182.154 20.3704C182.154 20.6928 182.255 20.9238 182.455 21.0632C182.655 21.2026 182.982 21.2724 183.435 21.2724C183.993 21.2724 184.411 21.1548 184.69 20.9195C184.969 20.6843 185.165 20.2876 185.278 19.7299L186.324 14.8152H188.781L187.684 19.9914C187.44 21.1765 186.934 22.0349 186.167 22.5664C185.4 23.098 184.342 23.3638 182.991 23.3638C182.277 23.3638 181.671 23.2461 181.174 23.0108C180.677 22.7668 180.298 22.4401 180.037 22.0306C179.784 21.6123 179.658 21.1417 179.658 20.6188C179.658 20.3923 179.684 20.157 179.736 19.913L180.821 14.8152H183.279Z" fill="white"/>
<path d="M105.655 14.8152L106.844 19.0894L109.824 14.8152H112.282L110.504 23.2331H108.047L108.936 19.0242L107.001 21.7952H105.681L104.91 19.0242L104.021 23.2331H101.564L103.341 14.8152H105.655Z" fill="white"/>
<path fill-rule="evenodd" clip-rule="evenodd" d="M120.482 23.2331H117.92L117.62 21.4424H115.058L113.986 23.2331H111.424L116.43 14.8152H119.031L120.482 23.2331ZM115.751 19.6778H117.633L117.215 17.2074L115.751 19.6778Z" fill="white"/>
<path fill-rule="evenodd" clip-rule="evenodd" d="M142.67 14.8152C143.471 14.8152 144.081 15.02 144.5 15.4296C144.918 15.8304 145.127 16.3664 145.127 17.0374C145.127 17.2727 145.101 17.5298 145.049 17.8086C144.927 18.375 144.678 18.876 144.304 19.3117C143.929 19.7387 143.48 20.0656 142.957 20.2921C143.044 20.3706 143.11 20.4663 143.153 20.5796C143.197 20.6842 143.24 20.8323 143.284 21.024L143.794 23.2331H141.232L140.761 21.207C140.727 21.0502 140.665 20.9413 140.578 20.8803C140.502 20.8193 140.389 20.7849 140.239 20.7773L140.173 20.7757H139.48L138.97 23.2331H136.513L138.291 14.8152H142.67ZM139.886 18.8935H141.18C141.929 18.8935 142.382 18.5318 142.539 17.8086C142.556 17.7302 142.57 17.6561 142.578 17.5864C142.587 17.5167 142.591 17.4512 142.591 17.3902C142.591 17.1637 142.526 16.9938 142.395 16.8805C142.273 16.7661 142.07 16.7053 141.786 16.6982L141.729 16.6975H140.356L139.886 18.8935Z" fill="white"/>
<path d="M151.739 14.8152L150.353 21.3508H154.144L153.751 23.2331H147.504L149.281 14.8152H151.739Z" fill="white"/>
<path d="M162.186 16.6975H158.265L157.964 18.07H161.402L160.997 19.9783H157.559L157.271 21.3508H161.193L160.801 23.2331H154.422L156.2 14.8152H162.578L162.186 16.6975Z" fill="white"/>
<path fill-rule="evenodd" clip-rule="evenodd" d="M170.38 23.2331H167.818L167.517 21.4424H164.955L163.883 23.2331H161.321L166.327 14.8152H168.929L170.38 23.2331ZM165.648 19.6778H167.53L167.112 17.2074L165.648 19.6778Z" fill="white"/>
<path d="M195.885 16.6975H191.964L191.663 18.07H195.101L194.695 19.9783H191.258L190.97 21.3508H194.892L194.499 23.2331H188.121L189.898 14.8152H196.277L195.885 16.6975Z" fill="white"/>
</svg>
