<svg width="211" height="48" viewBox="0 0 211 48" fill="none" xmlns="http://www.w3.org/2000/svg">
<path d="M130.446 4.7229L135.084 5.72301L148.872 25.8902C148.872 25.8902 147.326 29.557 147.326 31.5571C147.284 35.2655 148.997 38.0156 152.047 40.0157C154.144 41.3495 156.544 42.1374 159.025 42.3073C163.215 42.7245 167.445 42.1829 171.393 40.7238C175.275 39.2306 178.731 36.8131 181.462 33.6821C183.551 31.3904 185.264 28.807 187.186 26.3902C187.311 26.2237 187.562 25.9326 187.562 25.9319L180.919 15.4731L182.13 15.7648L189.066 25.9319C189.054 25.9489 187.183 28.5196 186.225 29.8485C185.724 30.4735 185.306 31.182 184.804 31.807C183.885 32.932 183.008 34.0988 182.047 35.1405C177.434 40.2439 171.128 43.514 164.29 44.349C160.416 44.8872 156.472 44.6033 152.716 43.5158C150.355 42.8782 148.179 41.693 146.365 40.0572C145.384 39.2117 144.583 38.1789 144.009 37.0195C143.435 35.8602 143.099 34.5979 143.023 33.3071C142.856 30.6836 144.733 25.8958 144.736 25.8902L130.446 4.7229Z" fill="white"/>
<path fill-rule="evenodd" clip-rule="evenodd" d="M128.662 25.7233C131.589 25.7233 134.01 27.8796 134.339 31.5521C134.768 36.3695 131.447 39.8184 127.665 39.8184C125.628 39.8184 124.337 38.9859 123.354 37.7127L123.26 37.5882L122.22 43.6212H118.416L121.496 25.9726H125.303L125.033 27.4462C126.093 26.3581 127.159 25.7233 128.662 25.7233ZM127.372 28.9622C125.269 28.9622 123.508 31.0931 123.738 33.6774C123.891 35.4003 125.195 36.5651 126.875 36.5651C128.923 36.5651 130.671 34.5419 130.427 31.8017C130.267 30.0278 129.074 28.9622 127.372 28.9622Z" fill="white"/>
<path d="M144.067 7.76474L156.351 25.9319C155.861 26.8954 155.456 27.8992 155.139 28.932C154.746 30.7395 155.035 32.6284 155.953 34.2359C156.87 35.8433 158.352 37.0558 160.111 37.6405C161.81 38.1829 163.597 38.3952 165.376 38.2656C168.069 38.1878 170.716 37.549 173.147 36.3905C176.053 34.9445 178.584 32.8481 180.543 30.2653C181.713 28.8069 183.969 25.8902 183.969 25.8902L176.991 14.6399L178.328 14.9731L185.765 25.9319C185.755 25.9461 184.133 28.1852 183.259 29.2652C182.548 30.1819 181.963 31.1403 181.211 32.0154C179.955 33.5397 178.509 34.8978 176.908 36.057C175.314 37.2262 173.572 38.1791 171.727 38.8905C168.876 39.9833 165.838 40.5071 162.785 40.4322C160.195 40.3905 157.688 39.8907 155.474 38.474C152.758 36.724 151.128 34.3071 151.253 30.9737C151.38 29.4927 151.792 28.0498 152.465 26.7237C152.575 26.4529 152.701 26.1885 152.841 25.9319L140.766 7.18139L144.067 7.76474Z" fill="white"/>
<path d="M71.0224 21.5095C74.7276 21.5095 77.0833 22.9548 78.4558 24.5757L75.8301 27.1374C74.7401 26.0311 73.338 25.14 71.2469 25.0854L71.0423 25.0829C67.2859 25.0829 64.6942 28.3275 65.0266 32.0284C65.271 34.794 67.4108 36.2873 69.8858 36.2873C71.2383 36.2873 72.2101 35.9559 72.9517 35.6046L73.5256 32.7169H69.6471L70.2465 29.3446H77.8561L76.1681 38.1917C74.5258 39.1807 72.5851 39.8635 69.9568 39.8635C65.9446 39.8635 61.5006 37.4549 61.0289 32.1559C60.5401 26.6301 64.7142 21.5095 71.0224 21.5095Z" fill="white"/>
<path fill-rule="evenodd" clip-rule="evenodd" d="M96.1441 25.7175C100.125 25.7175 102.838 28.3785 103.162 32.0057C103.523 36.0636 100.409 39.8635 96.0985 39.8635C92.1176 39.8635 89.404 37.1999 89.08 33.5756C88.7191 29.5177 91.8363 25.7175 96.1441 25.7175ZM96.2606 29.0161C93.9334 29.0161 92.6289 31.5523 92.8022 33.4793C92.9784 35.4543 94.2572 36.5706 95.9848 36.5706C98.3091 36.565 99.6077 34.0344 99.4401 32.1075C99.2639 30.1325 97.991 29.0162 96.2606 29.0161Z" fill="white"/>
<path d="M25.3282 31.3708C25.2088 31.9801 25.1576 32.561 25.223 33.2977C25.3764 35.049 26.5616 36.2391 28.5393 36.2391C29.6928 36.2391 30.6105 35.8595 31.2953 35.1228C31.9772 34.3634 32.4603 33.2695 32.7047 31.8272L34.4664 21.8128H38.3197L36.4555 32.3826C36.0548 34.6636 35.336 36.412 34.2222 37.656C32.9237 39.1012 31.0624 39.8352 28.4596 39.8353C24.402 39.8381 21.7026 37.6335 21.3673 33.8562C21.2877 32.9692 21.3529 32.0028 21.5404 31.0166L23.1487 21.8128H27.0075L25.3282 31.3708Z" fill="white"/>
<path d="M116.319 39.5546H112.514L112.761 38.135C111.886 38.9965 110.758 39.807 109.257 39.807C106.856 39.8127 105.174 38.3163 104.955 35.8594C104.887 35.0972 105.026 34.1365 105.174 33.2723L106.45 25.9699H110.255L108.939 33.4225C108.874 33.8022 108.843 34.3095 108.871 34.641C108.968 35.7291 109.695 36.313 110.874 36.313C112.377 36.313 113.256 35.2247 113.537 33.601L114.887 25.9668H118.691L116.319 39.5546Z" fill="white"/>
<path d="M47.7035 25.7214C50.0477 25.7673 51.6866 27.2552 51.9019 29.6764C51.9701 30.4358 51.8308 31.3993 51.6802 32.2636L50.4043 39.5632H46.5969L47.9125 32.1105C47.9807 31.7309 48.0063 31.2236 47.9807 30.8921C47.887 29.804 47.1566 29.2201 45.9803 29.2201C44.4772 29.2201 43.5991 30.3083 43.3178 31.9321L41.9681 39.5605H38.1632L40.5274 25.9726H44.3323L44.0851 27.3923C44.9602 26.5308 46.0883 25.7205 47.5914 25.7205L47.7035 25.7214Z" fill="white"/>
<path d="M56.9767 39.5632H53.172L55.5704 25.9726H59.375L56.9767 39.5632Z" fill="white"/>
<path d="M84.4398 28.7101C85.6162 26.7066 87.0625 25.5392 89.2817 25.7205L88.5628 29.75H88.3641C85.8323 29.75 84.0136 31.2236 83.3998 34.7431L82.5532 39.5605H78.7482L81.1183 25.9726H84.9229L84.4398 28.7101Z" fill="white"/>
<path d="M151.922 9.4315L162.994 25.8902C162.994 25.8902 161.616 28.3903 161.741 29.8903C161.815 30.7993 162.149 31.6678 162.705 32.392C163.261 33.1161 164.014 33.6653 164.875 33.9738C166.419 34.3759 168.038 34.4045 169.596 34.0571C173.022 33.4321 175.654 31.557 177.785 28.8902L180.25 25.8902L172.646 13.7231L174.192 14.0565L182.13 25.8902C182.121 25.9018 179.705 28.9765 178.454 30.4737C174.986 34.4738 170.599 36.3489 165.334 36.2239C163.483 36.2638 161.688 35.5923 160.32 34.3488C159.483 33.6228 158.883 32.6625 158.6 31.5925C158.317 30.5225 158.363 29.3922 158.733 28.3486C159.063 27.5157 159.454 26.708 159.903 25.9319L149.123 8.84815L151.922 9.4315Z" fill="white"/>
<path d="M158.941 10.9314L168.802 25.9319C168.796 25.9403 168.382 26.5174 168.133 26.807C167.738 27.274 167.517 27.8628 167.507 28.4737C167.557 28.9715 167.789 29.4335 168.159 29.7716C168.529 30.1097 169.011 30.3004 169.512 30.3071C170.891 30.4321 172.061 29.8487 173.106 29.0571C174.15 28.2654 175.78 26.1818 175.78 26.1818L176.03 25.9319C176.03 25.9319 174.86 24.0986 174.275 23.2236C172.022 19.7276 167.851 12.8227 167.841 12.8065L169.554 13.0982L177.994 25.9735C177.075 27.1818 176.114 28.3485 175.069 29.4736C173.356 31.0986 171.309 32.1819 168.844 32.2652C167.59 32.3069 166.462 32.0987 165.543 31.1403C165.126 30.7227 164.84 30.1925 164.721 29.615C164.603 29.0375 164.656 28.4381 164.875 27.8904C165.233 27.2019 165.653 26.5464 166.128 25.9319L156.351 10.3065L158.941 10.9314Z" fill="white"/>
<path d="M59.7416 24.4736H55.7321L56.3601 21.0504H60.364L59.7416 24.4736Z" fill="white"/>
</svg>
