<svg width="211" height="48" viewBox="0 0 211 48" fill="none" xmlns="http://www.w3.org/2000/svg">
<path fill-rule="evenodd" clip-rule="evenodd" d="M106.917 15.5128C108.806 15.4058 110.834 16.0668 111.735 17.8673C112.158 18.7122 112.19 19.8181 111.851 20.6973C110.681 23.7227 107.138 25.1427 104.428 26.4323C104.951 29.2874 105.699 30.688 107.313 33.1009C107.859 32.3595 108.188 31.5743 108.311 30.6585C108.423 29.8241 108.239 29.3061 107.58 28.7826H111.597C111.335 31.5643 110.505 32.9822 108.681 34.9961C110.395 36.9096 113.887 38.9836 116.309 39.8175L113.32 39.8175C112.216 39.8192 109.544 39.8656 108.519 39.7826C108.106 39.7491 106.081 37.877 105.623 37.4598C104.483 38.2642 103.253 38.9339 101.959 39.4553C99.6749 40.358 96.9729 40.644 94.6737 39.6419C93.2431 39.0284 92.1159 37.87 91.5417 36.4231C90.9463 34.8852 91.0216 32.8449 91.6862 31.348C92.746 28.9608 95.1449 27.489 97.4917 26.5754C98.3019 26.26 99.1268 25.9941 99.9398 25.6808C99.6405 20.9054 101.508 15.9867 106.917 15.5128ZM100.339 28.178C97.7433 29.4008 94.8027 31.998 96.2133 35.243C96.7777 36.5411 98.1459 37.0379 99.4851 37.1175C100.985 37.0805 102.696 36.4982 103.981 35.7321C102.735 34.0364 101.731 32.1767 100.995 30.2059C100.828 29.7667 100.7 29.3561 100.568 28.9048C100.537 28.7994 100.382 28.2541 100.339 28.178ZM108.52 18.9098C108.717 17.958 108.294 17.1254 107.215 17.222C106.36 17.3742 105.747 17.9146 105.265 18.614C104.138 20.2516 103.887 22.319 104.055 24.2558C104.27 24.141 104.649 23.9199 104.833 23.7626C106.378 22.6437 108.124 20.8178 108.52 18.9098Z" fill="white"/>
<path d="M132.895 8.01332C136.166 7.90576 139.122 8.45706 142.229 9.39978C141.828 10.7703 141.341 12.2221 140.91 13.5918C135.005 8.70921 129.533 10.0897 125.341 16.1362C124.359 17.5715 123.527 19.1034 122.856 20.7079C121.343 24.294 119.964 29.6228 120.56 33.5574C121.079 36.9851 123.681 38.2483 126.946 37.6397C127.761 35.183 128.535 32.5825 129.313 30.1048L130.101 27.5924C130.669 25.7776 131.121 24.5954 128.991 23.6041L141.376 23.6039C141.123 23.6992 140.876 23.8092 140.636 23.9333C139.065 24.7589 138.815 25.7176 138.319 27.2949L135.018 37.7932C132.269 39.178 128.953 40.0782 125.866 40.2451C122.684 40.4172 118.593 39.6554 116.157 37.4794C113.977 35.5323 113.067 32.2268 112.98 29.3672C112.823 24.205 114.649 18.4343 118.199 14.6164C122.246 10.2651 127.034 8.25051 132.895 8.01332Z" fill="white"/>
<path fill-rule="evenodd" clip-rule="evenodd" d="M90.7202 8.37455C91.5119 8.37447 92.3298 8.35612 93.1168 8.43494C95.2816 8.65172 97.589 9.42033 99.0161 11.1408C100.09 12.4356 100.465 14.1828 100.268 15.8255C99.8714 19.1357 98.2373 22.3488 95.6514 24.458C91.7726 27.6217 86.0519 28.4445 81.221 27.9621C80.8478 29.0549 80.4917 30.2662 80.147 31.3769C79.7166 32.5915 79.3568 33.9696 78.9385 35.207C78.6995 36.0642 78.3414 36.9221 78.167 37.7931C77.9771 38.7416 78.555 39.4563 79.359 39.8175L67.8906 39.8207C68.5781 39.5378 69.2598 38.93 69.6782 38.3256C70.1412 37.6567 70.4497 36.41 70.701 35.6043L76.965 15.5826C77.4679 13.9763 77.9808 12.3726 78.4718 10.7628C78.7783 9.75776 78.5112 8.97932 77.6576 8.37581L90.7202 8.37455ZM89.6884 10.9946C88.771 10.7352 87.5664 10.8061 86.5975 10.8094L82.52 23.803C82.3515 24.3395 82.1611 25.0075 81.974 25.5299C83.6226 25.7988 85.0424 25.6614 86.5534 24.8878C89.2776 23.3854 90.5614 20.782 91.4053 17.9045C92.076 15.6174 92.7276 11.8538 89.6884 10.9946Z" fill="white"/>
</svg>
