<svg width="211" height="48" viewBox="0 0 211 48" fill="none" xmlns="http://www.w3.org/2000/svg">
<g clip-path="url(#clip0_46_791)">
<path d="M113.168 19.523L117.575 27.0589L120.706 19.523H129.432L132.606 28.4698L135.648 19.523H140.1L143.141 28.1171L146.051 19.523H148.651L143.582 34.3321H139.086L136.089 25.8251L133.18 34.3321H128.419L123.194 19.5806L115.945 37.1083C115.504 38.2103 114.182 40.8104 111.052 40.9422C107.923 41.0748 106.336 39.0034 106.326 37.4164C106.326 35.9019 107.553 34.6746 109.068 34.6746C110.583 34.6746 111.811 35.9018 111.811 37.4164C111.997 38.2539 112.947 38.2103 113.344 37.3282L114.49 34.5082L105.718 19.523H113.168Z" fill="white"/>
<path fill-rule="evenodd" clip-rule="evenodd" d="M58.0691 18.7701C63.0616 18.7701 67.1084 22.4812 67.1084 27.0589C67.1084 31.6381 63.0616 35.3493 58.0691 35.3493C53.0775 35.3493 49.0316 31.6381 49.0316 27.0589C49.0316 22.4812 53.0775 18.7701 58.0691 18.7701ZM58.0691 20.9347C56.8287 20.9347 55.8221 21.9403 55.8221 23.1814V30.9372C55.8221 32.1791 56.8287 33.1855 58.0691 33.1855C59.3112 33.1855 60.3178 32.1791 60.3178 30.9372V23.1814C60.3178 21.9403 59.3112 20.9347 58.0691 20.9347Z" fill="white"/>
<path fill-rule="evenodd" clip-rule="evenodd" d="M97.4765 18.7701C102.468 18.7701 106.515 22.4812 106.515 27.0589C106.515 27.418 106.49 27.9022 106.442 28.249L95.2278 28.2498V30.9372C95.2279 32.1791 96.2344 33.3544 97.4765 33.3544C100.006 33.3544 102.219 32.1197 103.425 30.2758L105.422 31.0147C103.89 33.5966 100.906 35.3493 97.4765 35.3493C92.4841 35.3493 88.4372 31.6381 88.4372 27.0589C88.4372 22.4812 92.4841 18.7701 97.4765 18.7701ZM97.4765 20.9347C96.2344 20.9347 95.2278 21.9403 95.2278 23.1814V26.1339H99.7244V23.1814C99.7244 21.9403 98.7177 20.9347 97.4765 20.9347Z" fill="white"/>
<path fill-rule="evenodd" clip-rule="evenodd" d="M157.863 18.7701C162.855 18.7701 166.902 22.4812 166.902 27.0589C166.902 27.418 166.877 27.9022 166.829 28.249L155.615 28.2498V30.9372C155.615 32.1791 156.621 33.3544 157.863 33.3544C160.393 33.3544 162.606 32.1197 163.812 30.2758L165.809 31.0147C164.277 33.5966 161.293 35.3493 157.863 35.3493C152.871 35.3493 148.824 31.6381 148.824 27.0589C148.824 22.4812 152.871 18.7701 157.863 18.7701ZM157.863 20.9347C156.621 20.9347 155.615 21.9403 155.615 23.1814V26.1339H160.112V23.1814C160.112 21.9403 159.105 20.9347 157.863 20.9347Z" fill="white"/>
<path d="M34.047 21.2854H38.8954V13H46.8299V34.3321H38.8954V23.7546H34.047V34.3321H26.1133V13H34.047V21.2854Z" fill="white"/>
<path d="M76.1418 20.9328C80.4621 17.2317 86.4998 19.3468 86.4998 24.724V34.3321H79.976V24.5476C79.976 22.6081 78.8304 22.4319 77.9491 22.4319C76.8914 22.4319 75.6567 23.4893 75.6566 25.4288V34.3321H69.133V19.523H75.6566L76.1418 20.9328Z" fill="white"/>
<path d="M175.098 34.3321H169.103V13H175.098V34.3321Z" fill="white"/>
<path d="M183.913 34.3321H177.919V13H183.913V34.3321Z" fill="white"/>
</g>
<defs>
<clipPath id="clip0_46_791">
<rect width="157.8" height="27.9484" fill="white" transform="translate(26.0684 12.5374)"/>
</clipPath>
</defs>
</svg>
