<svg width="211" height="48" viewBox="0 0 211 48" fill="none" xmlns="http://www.w3.org/2000/svg">
<path fill-rule="evenodd" clip-rule="evenodd" d="M59.9996 17.4397C64.8137 17.4744 67.3954 19.7137 67.3954 24.7108V35.6777H61.8523V33.3894C61.0111 34.992 59.4756 36.1844 56.9053 36.1844C53.8357 36.1844 51.7198 34.3069 51.7198 31.0884C51.7198 27.6016 54.0444 26.1413 58.0675 25.3068C60.7199 24.7405 61.6736 24.383 61.6736 23.4889C61.6736 22.4622 61.0094 21.9552 59.2262 21.9396L59.1404 21.9392C56.1603 21.9392 53.8954 23.3399 52.8225 24.2936V19.5254C53.7463 18.6612 56.2794 17.4393 59.8854 17.4393L59.9996 17.4397ZM61.6438 27.1549C61.1388 27.5967 60.3929 27.8881 59.6471 28.1678C58.2166 28.6744 57.0841 29.2406 57.0841 30.6711C57.0841 31.7738 57.7994 32.5783 59.1106 32.5783C60.6603 32.5783 61.6437 31.5055 61.6438 29.6281V27.1549Z" fill="white"/>
<path fill-rule="evenodd" clip-rule="evenodd" d="M112.789 17.4393C117.676 17.4393 120.299 19.6744 120.299 24.7108V35.6777H114.756V33.3894C113.914 34.992 112.379 36.1844 109.809 36.1844C106.739 36.1844 104.623 34.3069 104.623 31.0884C104.623 27.6016 106.948 26.1413 110.971 25.3068C113.623 24.7405 114.577 24.383 114.577 23.4889C114.577 22.4459 113.891 21.9392 112.044 21.9392C109.064 21.9392 106.799 23.3399 105.726 24.2936V19.5254C106.65 18.6612 109.183 17.4393 112.789 17.4393ZM114.547 27.1549C114.042 27.5967 113.296 27.8881 112.55 28.1678C111.12 28.6744 109.987 29.2406 109.987 30.6711C109.987 31.7738 110.703 32.5783 112.014 32.5783C113.564 32.5783 114.547 31.5055 114.547 29.6281V27.1549Z" fill="white"/>
<path d="M141.16 14.5783V18.0055H144.825V22.4757H141.16V28.9723C141.16 30.8498 141.994 31.4161 143.276 31.3863C143.961 31.3863 144.497 31.2075 144.825 30.9691V35.4094C144.408 35.6776 143.454 36.0353 141.666 36.0353C137.822 36.0353 135.408 34.0385 135.408 29.7769V14.5783H141.16Z" fill="white"/>
<path d="M32.0658 27.9591L35.344 13.3266H41.036L44.3142 27.9591L47.2347 13.3266H52.7777L48.0692 35.6777H41.4532L38.1453 20.8365L34.8374 35.6777H28.0725L23.334 13.3266H29.1453L32.0658 27.9591Z" fill="white"/>
<path d="M75.2211 35.6777H69.4694V13.3266H75.2211V35.6777Z" fill="white"/>
<path d="M98.3052 17.4988C101.613 17.4988 103.371 20.0022 103.372 23.7273V35.6777H97.6199V24.532C97.6199 23.0419 97.143 22.0883 95.7424 22.0882C94.0139 22.0882 93.2093 23.4592 93.2093 25.8731V35.6777H87.4576V24.532C87.4576 23.0419 86.9808 22.0882 85.5801 22.0882C83.8516 22.0882 83.047 23.4592 83.047 25.8731V35.6777H77.2953V18.0055H82.9576V21.231C83.8363 19.0506 85.5712 17.4989 88.2324 17.4988C90.5805 17.4988 92.2623 19.0163 92.7681 21.4092C93.7117 19.1759 95.5147 17.4989 98.3052 17.4988Z" fill="white"/>
<path d="M127.898 22.9983C128.656 19.7972 130.622 17.73 133.858 17.8863V23.9657C133.579 23.882 132.985 23.7982 132.347 23.7881L132.219 23.787C130.163 23.787 128.017 24.7108 128.017 28.1678V35.6777H122.266V18.0055H127.898V22.9983Z" fill="white"/>
<path d="M170.091 30.3537C171.037 30.3537 171.873 30.9646 172.177 31.8791C172.441 32.677 173.193 40.656 173.193 41.4069C173.193 43.1213 171.804 44.5111 170.091 44.5111C168.378 44.5111 166.99 43.1213 166.99 41.4069C166.99 40.656 167.741 32.677 168.006 31.8791C168.309 30.9646 169.145 30.3537 170.091 30.3537Z" fill="white"/>
<path d="M174.935 27.5547C175.409 26.7345 176.355 26.3153 177.298 26.5096C178.121 26.6792 185.401 30.0174 186.051 30.3929C187.534 31.2501 188.042 33.1487 187.186 34.6334C186.329 36.1181 184.432 36.6268 182.949 35.7696C182.299 35.394 175.771 30.7534 175.212 30.1251C174.573 29.4049 174.462 28.3749 174.935 27.5547Z" fill="white"/>
<path d="M162.884 26.5096C163.827 26.3153 164.774 26.7345 165.247 27.5546C165.72 28.3747 165.61 29.4048 164.97 30.125C164.412 30.7534 157.883 35.3939 157.234 35.7695C155.75 36.6267 153.853 36.118 152.997 34.6333C152.14 33.1486 152.648 31.2501 154.132 30.3929C154.782 30.0175 162.061 26.6793 162.884 26.5096Z" fill="white"/>
<path d="M152.997 14.8778C153.853 13.3931 155.75 12.8844 157.234 13.7416C157.884 14.1172 164.412 18.7577 164.97 19.386C165.61 20.1062 165.72 21.1362 165.247 21.9564C164.774 22.7766 163.827 23.1958 162.884 23.0014C162.061 22.8318 154.782 19.4936 154.132 19.1181C152.648 18.2609 152.14 16.3625 152.997 14.8778Z" fill="white"/>
<path d="M182.949 13.7416C184.432 12.8844 186.329 13.3931 187.186 14.8778C188.042 16.3625 187.534 18.2609 186.05 19.1181C185.401 19.4936 178.121 22.8318 177.298 23.0014C176.355 23.1958 175.409 22.7766 174.935 21.9565C174.462 21.1363 174.573 20.1063 175.212 19.3861C175.77 18.7577 182.299 14.1171 182.949 13.7416Z" fill="white"/>
<path d="M170.091 5C171.804 5.00002 173.193 6.38981 173.193 8.10418C173.193 8.85509 172.441 16.8341 172.177 17.632C171.873 18.5465 171.037 19.1573 170.091 19.1574C169.145 19.1574 168.309 18.5465 168.006 17.632C167.741 16.8341 166.99 8.85509 166.99 8.10418C166.99 6.3898 168.378 5 170.091 5Z" fill="white"/>
</svg>
