<svg width="211" height="48" viewBox="0 0 211 48" fill="none" xmlns="http://www.w3.org/2000/svg">
<path fill-rule="evenodd" clip-rule="evenodd" d="M36.2363 5.18694V7.59387C32.0323 11.24 29.4297 16.4127 29.4297 22.0885C29.4297 22.8967 29.4698 23.7589 29.6099 24.5312L29.2696 25.2317L35.8561 12.3714C36.0364 12.2996 36.6768 12.2995 36.857 12.3714L42.9829 24.2617C42.7627 26.1296 42.2421 27.8719 41.5014 29.5423L39.8198 26.3991C38.6587 26.2374 37.4776 26.1297 36.2764 26.1297C34.4547 26.1297 32.733 26.3272 30.9914 26.7044L30.3664 27.9178C31.4908 31.204 33.5263 34.1334 36.2363 36.4933C36.7168 36.9244 37.2372 37.3016 37.7577 37.6967C41.6414 40.4986 46.5462 42.205 51.8713 42.205C54.0333 42.205 56.1153 41.9356 58.0171 41.3968L60.3594 42.6001C57.7168 43.5341 54.814 44.0011 51.8312 44.0011C45.9409 44.0011 40.5057 42.1197 36.2725 38.9746C32.029 42.1162 26.5654 44.0191 20.6415 44.0191C17.6663 44.0191 14.7709 43.5543 12.1339 42.6252L12.1133 42.636C12.1143 42.6304 12.1153 42.6248 12.1164 42.6193C12.1153 42.6189 12.1143 42.6185 12.1133 42.6181L12.117 42.6161C13.605 34.8119 19.7074 28.3726 27.7483 25.6986C27.5281 24.5312 27.4078 23.3278 27.4078 22.0885C27.4078 15.3351 30.8712 9.19229 36.2363 5.18694ZM28.0686 27.5127C21.4022 29.8835 16.2972 35.0564 14.4755 41.4146L14.4689 41.4177C16.4665 41.9185 18.4842 42.187 20.6415 42.187C25.9616 42.205 30.902 40.5377 34.7442 37.7405C34.721 37.7199 34.6978 37.6995 34.6748 37.6789C32.307 35.608 30.4139 33.0933 29.1526 30.2763L27.6082 33.3501C26.0467 36.5292 26.8275 37.4272 28.6492 37.7325C28.8293 37.8044 28.7692 38.505 28.609 38.5409H21.1219C20.9418 38.5049 20.9017 37.8045 21.0817 37.7325C22.383 37.3014 23.4242 36.637 25.2459 33.0628L28.0686 27.5127ZM32.0324 24.621C33.4137 24.4234 34.7951 24.2797 36.2764 24.2797C37.1372 24.3336 38.0181 24.3696 38.8388 24.4414L35.4556 17.8675L32.0324 24.621Z" fill="white"/>
<path d="M36.2764 5.16895C41.6416 9.17429 45.105 15.3171 45.105 22.0705C45.105 23.3278 44.9848 24.5312 44.8046 25.6448C44.8012 25.6638 44.7974 25.6828 44.7939 25.7018C52.877 28.4157 58.9788 34.8259 60.4396 42.636L58.0974 41.4326C56.3557 35.1462 51.2909 30.0091 44.7647 27.6382L47.9678 33.9248C49.4491 36.7626 50.31 37.4272 51.8314 37.6607C52.0115 37.6969 52.0115 38.5226 51.8314 38.5587H42.7027C42.5225 38.5228 42.5225 37.6966 42.7027 37.6607C44.4843 37.4631 45.1249 36.6189 44.0039 34.4277L42.6226 31.7516C43.1154 30.8674 43.5406 29.9428 43.8924 28.9876C43.5445 29.9237 43.1261 30.8301 42.6426 31.6976C41.4415 33.9428 39.7798 35.9724 37.8379 37.6787C37.3175 37.2836 36.797 36.9064 36.3166 36.4753C38.5387 34.5355 40.3605 32.1646 41.5216 29.5243C42.2623 27.8539 42.7826 26.1116 43.0028 24.2437C43.0829 23.5432 43.123 22.8069 43.123 22.0705C43.123 16.3948 40.5205 11.2218 36.2764 7.57569V5.16895Z" fill="white"/>
<path fill-rule="evenodd" clip-rule="evenodd" d="M120.987 21.3854C125.01 21.3854 127.033 24.0644 126.824 27.3084H118.01C117.964 27.413 117.964 27.5386 117.964 27.6432C117.964 30.5942 119.382 32.5825 122.243 32.5825C123.963 32.5825 125.103 31.7663 126.266 30.4477L126.824 30.8454C125.568 32.6035 123.847 33.922 120.987 33.922C116.801 33.922 114.243 31.578 114.243 27.8108C114.243 23.9179 117.103 21.3854 120.987 21.3854ZM120.731 22.1597C119.127 22.1597 118.173 23.7085 118.01 26.5966L123.103 26.5549C123.405 23.9806 122.661 22.1598 120.731 22.1597Z" fill="white"/>
<path d="M97.1505 21.4062V25.1944H96.3367C94.9403 23.2373 93.8594 22.1927 92.2955 22.1605L92.2206 22.1597C90.9648 22.1597 90.0578 22.8923 90.0577 23.9806C90.0578 25.0689 91.2206 25.5294 93.2669 26.0108C96.29 26.7433 97.8481 27.6852 97.8482 29.778C97.8481 32.0802 95.8249 33.901 92.6158 33.9011C91.5693 33.9011 89.7089 33.4407 88.8949 33.0012L87.9881 33.9011H87.2904L87.3137 29.5898H88.1276C89.6856 31.9965 91.1972 33.1267 93.011 33.1268C94.569 33.1268 95.2668 32.3105 95.2669 31.3687C95.2669 30.2386 94.4065 29.6524 91.6392 28.9199C88.6161 28.1455 87.3602 27.2874 87.3602 25.3829C87.3602 22.976 89.4764 21.4062 92.5926 21.4062C93.7553 21.4062 95.0111 21.762 95.7553 22.2224L96.4529 21.4062H97.1505Z" fill="white"/>
<path d="M156.265 21.4062V25.1944H155.451C154.032 23.2062 152.939 22.1597 151.334 22.1597C150.079 22.1598 149.172 22.8924 149.172 23.9806C149.172 25.0689 150.335 25.5294 152.381 26.0108C155.404 26.7433 156.962 27.6852 156.962 29.778C156.962 32.0802 154.939 33.901 151.73 33.9011C150.716 33.9011 148.938 33.469 148.088 33.0424L148.009 33.0012L147.102 33.9011H146.404V29.5898H147.242C148.8 31.9966 150.311 33.1268 152.125 33.1268C153.683 33.1267 154.381 32.3105 154.381 31.3687C154.381 30.2386 153.52 29.6524 150.753 28.9199C147.73 28.1455 146.474 27.2874 146.474 25.3829C146.474 22.976 148.59 21.4062 151.707 21.4062L151.816 21.4073C152.947 21.4286 154.148 21.7764 154.869 22.2224L155.567 21.4062H156.265Z" fill="white"/>
<path d="M107.104 21.3435C110.824 21.3435 112.243 23.0179 112.243 24.3364C112.243 25.4247 111.545 26.1991 110.336 26.1991C108.987 26.1991 108.266 25.4665 108.266 24.5247C108.266 23.7923 108.778 23.1643 109.22 22.9759C108.917 22.5155 108.173 22.118 107.15 22.118C105.127 22.118 103.778 23.9808 103.778 27.3713C103.778 30.2595 105.127 32.478 108.057 32.4781C109.615 32.4781 110.871 31.7453 111.987 30.5314L112.545 30.9291C111.289 32.6872 109.522 33.8803 106.708 33.8803C102.615 33.8803 100.057 31.4522 100.057 27.7687C100.057 23.834 103.081 21.3435 107.104 21.3435Z" fill="white"/>
<path fill-rule="evenodd" clip-rule="evenodd" d="M174.566 21.3435C178.798 21.3435 181.45 23.7504 181.45 27.5386C181.45 31.3896 178.636 33.8803 174.566 33.8803C170.217 33.8803 167.613 31.4523 167.613 27.6432C167.613 23.876 170.427 21.3435 174.566 21.3435ZM174.403 22.1597C172.287 22.1598 171.496 23.876 171.496 27.6013C171.496 31.3685 172.543 33.1267 174.706 33.1268C176.775 33.064 177.613 31.3058 177.613 27.6013C177.613 23.8969 176.566 22.1597 174.403 22.1597Z" fill="white"/>
<path fill-rule="evenodd" clip-rule="evenodd" d="M76.1978 15.5042L82.3835 30.8035C82.9882 32.2058 83.3836 32.6662 85.5463 32.9383V33.6082H75.5467V32.8756C78.2675 32.7919 78.7093 32.2895 78.221 30.9291L76.7095 26.9526H70.2213L69.3142 29.3176C68.2678 31.8918 68.6168 32.5825 71.1282 32.9383V33.5662H64.3378V32.9383C66.2447 32.4779 67.0585 31.5361 68.105 29.0874L74.0352 15.5042H76.1978ZM73.5933 19.0831C73.5869 19.0986 70.6883 26.1317 70.6167 26.1364H76.4535L73.7327 19.0831H73.5933Z" fill="white"/>
<path d="M138.98 21.3864C141.279 21.4282 142.451 22.7835 142.451 25.1527V31.9967C142.451 32.7291 142.754 32.8964 144.474 32.9383V33.5662H137.219V32.9383C138.428 32.8964 138.87 32.7082 138.87 31.9967V25.655C138.87 23.9925 138.259 23.1744 136.846 23.1249L136.707 23.1225C135.544 23.1225 134.638 23.6668 133.893 24.483V31.9967C133.893 32.7291 134.289 32.8964 135.498 32.9383V33.5662H128.243L128.266 32.9383C129.917 32.8964 130.335 32.7082 130.335 31.9967V23.6248C130.335 22.8505 129.94 22.3481 128.266 22.3063V21.6783L133.8 21.4481V23.7924C135.149 22.3901 137.01 21.3854 138.87 21.3854L138.98 21.3864Z" fill="white"/>
<path d="M193.559 21.3864C195.859 21.4281 197.03 22.7834 197.03 25.1527V31.9967C197.03 32.7291 197.333 32.8964 199.054 32.9383V33.5662H191.798V32.9383C193.007 32.8964 193.449 32.7082 193.449 31.9967V25.655C193.449 23.9388 192.798 23.1225 191.286 23.1225C190.124 23.1225 189.217 23.6667 188.473 24.483V31.9967C188.473 32.7291 188.868 32.8964 190.077 32.9383V33.5662H182.822L182.845 32.9383C184.496 32.8964 184.915 32.7082 184.915 31.9967V23.6248C184.915 22.8505 184.519 22.3481 182.845 22.3063V21.6783L188.38 21.4481V23.7924C189.728 22.3901 191.589 21.3854 193.449 21.3854L193.559 21.3864Z" fill="white"/>
<path d="M164.404 21.4273V31.9755C164.404 32.7081 164.706 32.8757 166.473 32.9175V33.5453H158.776V32.9361C160.37 32.8906 160.822 32.6981 160.822 31.9967V23.6248C160.822 22.8505 160.427 22.3481 158.706 22.3063V21.6783L164.404 21.4273Z" fill="white"/>
<path d="M158.776 32.9361C158.753 32.9367 158.73 32.9377 158.706 32.9383V32.9175H158.776V32.9361Z" fill="white"/>
<path d="M162.52 15.2741C163.822 15.2742 164.683 16.0484 164.683 17.2205C164.683 18.4343 163.822 19.2087 162.52 19.2087C161.218 19.2087 160.357 18.4971 160.357 17.3041C160.357 16.0902 161.218 15.2742 162.52 15.2741Z" fill="white"/>
</svg>
