<svg width="211" height="48" viewBox="0 0 211 48" fill="none" xmlns="http://www.w3.org/2000/svg">
<path d="M66.2821 34.7573L46.9766 41.1923H46.9754L27.6699 34.7573V22.3874L46.9766 28.3215L66.2821 22.3874V34.7573Z" fill="white"/>
<path d="M83.8454 13.1735C86.2788 13.1735 87.5647 13.6393 88.3928 14.0795L87.6257 18.3946C86.7037 17.9862 85.7248 17.6141 84.0348 17.6141C81.0454 17.6142 77.8746 19.3926 77.8746 24.1276C77.8747 28.3632 80.403 30.6037 84.0597 30.6038C85.5082 30.6038 86.4914 30.3194 87.626 29.7986L88.3941 34.1116C87.5615 34.518 85.8803 35.0188 83.3867 35.0188C76.4816 35.0188 72.5188 30.2681 72.5188 24.2072C72.5188 16.9917 77.5684 13.1735 83.8454 13.1735Z" fill="white"/>
<path fill-rule="evenodd" clip-rule="evenodd" d="M115.238 18.3674C120.034 18.4791 122.187 22.0877 122.187 26.5908C122.187 27.0728 122.128 27.8576 122.075 28.2172H111.892C112.064 30.1923 113.702 31.2421 116.233 31.2647C117.758 31.2765 119.531 30.8329 120.712 30.1369L121.419 33.7794C119.641 34.6726 117.61 35.0188 115.542 35.0188C109.972 35.0187 106.987 31.668 106.987 26.5347C106.987 21.5691 110.197 18.365 115.008 18.365L115.238 18.3674ZM114.788 21.7337C112.889 21.7337 111.993 23.3693 111.86 24.8867H117.514C117.514 23.7396 116.955 21.7337 114.788 21.7337Z" fill="white"/>
<path fill-rule="evenodd" clip-rule="evenodd" d="M158.217 18.3647C163.128 18.3647 166.159 21.6595 166.159 26.6916C166.159 31.7233 163.128 35.0185 158.217 35.0185C153.305 35.0185 150.272 31.7233 150.272 26.6916C150.272 21.6592 153.305 18.3647 158.217 18.3647ZM158.217 22.0186C155.982 22.0186 155.127 24.193 155.127 26.6916C155.127 29.1922 155.982 31.3635 158.217 31.3635C160.45 31.3635 161.308 29.1922 161.308 26.6916C161.308 24.1933 160.449 22.0186 158.217 22.0186Z" fill="white"/>
<path d="M95.2266 20.7231H95.2832C96.1998 19.3682 97.9997 18.5246 99.8598 18.5246L99.9991 18.5263C102.905 18.5912 104.834 20.7039 104.834 25.2741V34.3693H100.151V25.9205C100.151 23.9116 99.4749 22.5304 97.7211 22.5304C96.0817 22.5304 95.2266 23.9453 95.2266 25.2604V34.369H90.5477V14.8694L95.2266 13.249V20.7231Z" fill="white"/>
<path d="M177.421 18.5246C180.506 18.5247 182.52 20.6314 182.52 25.1506V34.3693H177.845V25.8561C177.845 23.8807 177.167 22.5301 175.475 22.5301C174.178 22.5302 173.373 23.4427 173.074 24.3173C172.963 24.6377 172.918 25.0727 172.918 25.5121V34.369H168.24V23.9113C168.24 21.9953 168.17 20.3591 168.071 19.0163H172.479L172.58 21.1644H172.674C173.285 20.1655 174.901 18.5246 177.421 18.5246Z" fill="white"/>
<path d="M130.489 29.8763H130.583L133.393 19.0163H138.557L133.387 34.369H127.688L122.517 19.0163H127.68L130.489 29.8763Z" fill="white"/>
<path d="M148.152 18.6667C148.875 18.6246 149.267 18.6757 149.715 18.7625V23.2516C149.286 23.1675 148.435 23.0684 147.837 23.1235C146.036 23.2892 144.946 24.5994 144.641 26.1076C144.579 26.4202 144.547 26.7673 144.547 27.1734V34.3687H139.885V24.0653H139.884C139.884 21.8067 139.813 20.3332 139.717 19.016H144.125L144.258 21.8699H144.377C145.148 19.6113 146.629 18.7532 148.152 18.6667Z" fill="white"/>
<path d="M66.2821 19.3701L46.9766 25.8049L27.6699 19.3701V7L46.9754 13.434H46.9766L66.2821 7V19.3701Z" fill="white"/>
</svg>
