<svg width="211" height="48" viewBox="0 0 211 48" fill="none" xmlns="http://www.w3.org/2000/svg">
<path d="M31.9179 10.7874L31.9597 10.8048C32.2531 10.9418 33.3178 12.0845 33.6076 12.3765L38.7122 17.469C38.9548 17.712 40.6749 19.4678 40.8581 19.5906C40.9256 16.7806 40.7776 13.9356 40.8941 11.1287C40.9013 10.9558 41.1688 10.7984 41.3021 10.7246H49.3235C49.464 10.8062 49.714 10.9619 49.7234 11.1213C49.8025 12.4656 49.7608 14.2072 49.7603 15.5327L49.7595 28.4985L49.7555 28.5345L49.7631 34.1861C49.7634 35.075 49.7747 35.9674 49.7502 36.8554C49.7423 37.1409 49.5209 37.3283 49.2652 37.4046H41.0341L40.9806 37.3377L40.862 37.3422C40.5813 37.1728 38.7457 35.2848 38.4167 34.956L31.9591 28.5038L31.9627 34.1955C31.9632 35.0783 31.975 35.9647 31.9515 36.8464C31.9437 37.1382 31.7272 37.327 31.4645 37.4046H23.0605V10.7246H31.7571L31.9179 10.7874Z" fill="white"/>
<path d="M181 16.5858C181.558 16.6673 183.321 16.442 183.759 16.6827C184.043 16.9712 184.054 17.5547 184.097 17.9438C184.175 18.6308 184.247 19.3203 184.316 20.0081C185.163 20.0048 186.04 19.9904 186.886 20.0084C187.143 20.0138 187.227 20.068 187.381 20.2506V22.9566C187.379 22.9592 187.377 22.9618 187.374 22.9644C187.345 22.9976 187.316 23.0308 187.284 23.0621C187.024 23.3201 184.829 23.2013 184.324 23.1988L184.322 26.627C184.321 29.42 184.113 30.1565 186.978 29.9831C187.03 29.9986 187.121 30.0726 187.135 30.1203C187.285 30.6179 187.212 31.2947 187.23 31.8102C187.242 32.1872 187.37 32.9019 186.947 33.0194C185.495 33.4229 183.753 33.4811 182.335 32.9032C179.959 31.8847 180.143 29.2974 180.145 27.199L180.146 23.5919C180.146 22.8326 180.026 17.1203 180.185 16.7624C180.364 16.5583 180.754 16.5499 181 16.5858Z" fill="white"/>
<path fill-rule="evenodd" clip-rule="evenodd" d="M80.1564 19.4663C80.3425 19.4702 80.5291 19.4775 80.7148 19.4883C85.1788 19.7853 86.9419 23.4975 86.6658 27.5629H77.2136C77.6826 29.7935 80.0028 30.4958 81.9541 29.6981C82.3306 29.544 82.9344 28.8895 83.2866 28.8799C83.6559 28.9911 84.5519 29.9922 84.8733 30.3203C85.7433 31.1648 85.7454 31.3759 84.6854 32.0552C80.1461 34.972 73.2061 32.7232 73.1304 26.732C73.0752 22.3699 75.8194 19.6024 80.1564 19.4663ZM80.1923 22.4176C78.5731 22.4887 77.4934 23.2617 77.2123 24.8957H82.7547C82.6075 23.2736 81.847 22.4727 80.1923 22.4176Z" fill="white"/>
<path fill-rule="evenodd" clip-rule="evenodd" d="M172.208 19.4656L172.252 19.4667C176.416 19.5763 178.705 22.4068 178.745 26.4486C178.749 26.8221 178.74 27.1895 178.729 27.5629H169.281C169.652 29.97 172.829 30.7295 174.587 29.3132C174.769 29.167 175.122 28.8898 175.352 28.8802C175.703 28.9912 176.64 30.0248 176.955 30.3458C177.162 30.5462 177.57 30.8836 177.585 31.1661C177.591 31.2802 177.541 31.3797 177.461 31.4593C176.215 32.7001 174.458 33.2315 172.749 33.2961C170.732 33.3722 168.704 32.8278 167.212 31.4423C165.872 30.1982 165.251 28.5318 165.189 26.7373C165.11 24.861 165.695 22.9796 166.992 21.5951C167.802 20.7312 168.809 20.1465 169.936 19.7958C170.719 19.5522 171.394 19.4932 172.208 19.4656ZM172.247 22.4177C170.613 22.4869 169.565 23.2612 169.274 24.8957H174.809C174.696 23.2548 173.87 22.4859 172.247 22.4177Z" fill="white"/>
<path fill-rule="evenodd" clip-rule="evenodd" d="M107.369 14.7972C107.995 14.7986 110.951 14.7013 111.283 14.9248C111.424 15.5763 111.373 17.6363 111.372 18.3796L111.373 30.1589C111.373 30.6594 111.402 32.3046 111.32 32.6917C111.26 32.759 111.198 32.797 111.112 32.8246C110.769 32.935 108.354 32.9444 108.12 32.8167C107.793 32.6376 107.693 32.0654 107.591 31.7181L107.581 31.6852C105.645 33.2894 103.077 33.7267 100.731 32.7867C96.2871 30.7321 95.6632 24.2457 99.1255 20.9914C100.299 19.889 101.894 19.4454 103.477 19.5321C104.927 19.6113 106.115 20.2452 107.082 21.3252L107.078 16.9257C107.078 16.3551 107.051 15.5966 107.114 15.0298C107.125 14.9342 107.282 14.8486 107.369 14.7972ZM107.185 25.628C106.811 23.8916 105.407 22.8329 103.633 23.0508C99.7293 23.7473 100.364 30.2661 104.69 29.6549C105.546 29.4738 106.206 29.0362 106.686 28.2987C107.2 27.5097 107.38 26.549 107.185 25.628Z" fill="white"/>
<path fill-rule="evenodd" clip-rule="evenodd" d="M145.74 19.4534C146.721 19.3841 148.024 19.4269 149.017 19.49C149.28 19.5067 149.294 19.9497 149.294 20.1703C149.295 22.213 149.29 24.2566 149.292 26.2998L149.295 30.2035C149.296 30.7225 149.342 32.2792 149.211 32.7145C149.169 32.7769 149.122 32.8056 149.05 32.8288C148.739 32.9294 146.313 32.9478 146.052 32.8092C145.672 32.6078 145.572 31.9107 145.454 31.5309C143.721 33.2744 140.904 33.6863 138.66 32.7896C138.138 32.5429 137.7 32.2934 137.253 31.9225C134.32 29.4904 134.068 24.4981 136.447 21.6183C137.413 20.4383 138.811 19.6937 140.329 19.5508C142.163 19.377 143.668 19.8135 145.085 20.9818C145.268 20.4428 145.303 19.7807 145.74 19.4534ZM145.107 25.6298C144.733 23.8919 143.333 22.8362 141.559 23.0496C137.679 23.7548 138.249 30.2023 142.588 29.6599C143.454 29.4801 144.116 29.0501 144.606 28.3027C145.122 27.5135 145.302 26.5518 145.107 25.6298Z" fill="white"/>
<path d="M66.6517 19.5308C69.6707 19.316 71.6117 21.4917 71.6832 24.4145C71.7256 27.0171 71.6879 29.6236 71.7046 32.2272C71.7452 32.7672 71.3986 32.969 70.8851 32.8916C70.3027 32.8037 67.8914 33.0343 67.4887 32.7572C67.3184 32.53 67.3903 30.8851 67.3903 30.4927L67.3907 25.9803C67.3864 25.2528 67.2944 24.0069 66.742 23.5171C65.8227 22.7013 64.5717 22.9814 63.7963 23.7855C62.9984 24.8534 63.1512 26.1864 63.1517 27.4461L63.161 31.2542C63.1624 31.6162 63.3021 32.9332 62.7725 32.8764C62.0366 32.7975 59.5412 33.0417 58.9865 32.7987C58.8604 32.6906 58.8384 32.3048 58.838 32.1451C58.8334 30.2156 58.8421 28.2859 58.8401 26.3563L58.8364 22.5606C58.8361 21.9201 58.813 21.2704 58.8396 20.6308C58.847 20.4527 58.8576 20.1884 58.9415 20.0282C58.974 19.9661 59.0091 19.953 59.0725 19.932C59.3894 19.8274 62.0198 19.8192 62.3001 19.9697C62.6349 20.1494 62.7152 20.738 62.811 21.0806C63.8498 20.1345 64.9702 19.6803 66.3517 19.5497C66.4403 19.5309 66.5606 19.5371 66.6517 19.5308Z" fill="white"/>
<path d="M121.462 20.1204C121.559 19.7898 122.647 19.8477 122.911 19.8809C123.519 19.9572 125.28 19.7448 125.72 19.9582C125.987 20.2454 126.568 22.4676 126.704 22.9355L128.24 28.1838C128.609 26.9822 130.245 20.4597 130.615 19.9639C130.916 19.7787 133.657 19.9461 134.195 19.8709C134.358 19.8482 134.627 19.9104 134.763 20.0505C134.899 20.4492 133.898 23.003 133.701 23.5626L131.584 29.6601C131.278 30.5415 130.927 31.7975 130.537 32.6032C130.486 32.7067 130.438 32.8 130.323 32.8377C130.102 32.9104 127.04 32.92 126.556 32.8856C126.432 32.8769 126.318 32.8592 126.208 32.8009C126.001 32.692 123.841 25.5851 123.564 24.7039C123.233 25.7738 121.267 32.4381 120.96 32.8087C120.486 33.0297 118.441 32.7977 117.776 32.8874C117.548 32.918 116.807 32.9332 116.69 32.6994C116.485 32.2891 116.338 31.8007 116.185 31.3565L113.126 22.4871C112.916 21.8744 112.7 21.2726 112.471 20.6667C112.344 20.3305 112.328 20.0875 112.641 19.8833C113.23 19.8826 116.406 19.8217 116.757 19.9546C117.104 20.3403 118.778 27.1096 119.142 28.2315C119.863 25.5461 120.675 22.791 121.462 20.1204Z" fill="white"/>
<path d="M95.4121 19.547C95.7476 19.5239 96.2307 19.433 96.5307 19.6003C96.6518 19.6678 96.7288 19.7777 96.763 19.9106C96.8195 20.1287 96.6804 23.0185 96.5961 23.1463C96.4579 23.356 95.0976 23.2927 94.7998 23.352C94.0137 23.5083 93.1951 24.0486 92.8361 24.7818C92.6657 25.1299 92.5558 25.5235 92.5066 25.9076C92.4248 26.5447 92.4672 27.2161 92.4672 27.858L92.4766 31.3066C92.4779 31.7393 92.5412 32.4594 92.3127 32.7988C92.132 32.9629 88.8782 32.8804 88.4221 32.8784C88.3472 32.8315 88.2744 32.7569 88.227 32.6825C88.1735 32.5989 88.1059 20.8616 88.2608 20.052C88.2993 19.994 88.345 19.975 88.4097 19.9555C88.7404 19.8554 91.3499 19.8304 91.6332 19.9905C91.9746 20.1837 92.0499 20.8372 92.1492 21.1924C92.9118 20.4023 94.3222 19.7004 95.4121 19.547Z" fill="white"/>
<path d="M159.491 14.7972C160.172 14.7984 163.089 14.6538 163.487 14.9433C163.583 15.4979 163.558 16.1381 163.558 16.7059L163.559 31.0739C163.559 31.5603 163.576 32.1422 163.538 32.6299C163.529 32.7443 163.386 32.823 163.288 32.8831L160.846 32.8897C160.543 32.8901 159.436 32.9538 159.279 32.7288C159.177 32.3411 159.193 31.9365 159.193 31.539C159.193 30.2982 159.195 29.0574 159.194 27.8166L159.192 19.2196C159.193 17.9694 159.177 16.3376 159.213 15.0742C159.216 14.9556 159.385 14.8536 159.491 14.7972Z" fill="white"/>
<path d="M154.657 14.7904C155.068 14.7895 156.044 14.7165 156.339 14.9665C156.424 15.3598 156.402 16.1332 156.403 16.5657L156.403 31.2453C156.403 31.678 156.417 32.2009 156.384 32.631C156.375 32.7332 156.228 32.8256 156.141 32.8822L153.813 32.8881C153.375 32.8897 152.94 32.9012 152.503 32.8692C152.074 32.8379 152.032 32.561 152.032 32.1857C152.032 30.9149 152.039 29.6441 152.039 28.3732L152.036 16.5698C152.036 16.1048 152.02 15.5356 152.059 15.0699C152.068 14.9498 152.209 14.8633 152.31 14.7984L154.657 14.7904Z" fill="white"/>
</svg>
