<svg width="211" height="48" viewBox="0 0 211 48" fill="none" xmlns="http://www.w3.org/2000/svg">
<path d="M57.3422 12.2093C59.6237 12.6058 60.9778 12.7235 63.218 13.1696C63.754 13.2812 63.9743 13.9447 63.5757 14.3103V14.3224C49.5974 27.2176 43.529 33.9411 43.0204 39.3694C42.8019 41.3276 45.1217 42.0132 45.1506 42.0217C45.5698 42.1394 45.5218 42.6661 45.0888 42.7219C41.5632 43.1865 34.6153 41.9782 34.6702 37.5043C35.2063 33.4331 38.7869 30.3902 41.4808 27.1618C41.5564 27.075 41.6254 27.0009 41.701 26.9203C46.4291 22.0745 51.6588 16.485 57.3422 12.2093Z" fill="white"/>
<path fill-rule="evenodd" clip-rule="evenodd" d="M118.836 18.6165C121.159 15.8282 123.702 14.8867 124.478 15.3143C125.289 15.9527 124.169 18.5673 123.846 19.6888C126.176 19.6516 128.664 17.8298 130.107 18.4495C130.588 18.7407 130.876 19.1993 130.993 19.6949C131.22 20.6182 130.787 21.5789 130.004 22.1367C124.774 25.867 121.289 29.7399 121.764 32.547C121.867 33.0613 122.383 33.5816 123.207 33.563C124.087 33.5443 125.991 33.0673 129.66 30.087C131.495 24.1878 138.381 18.9204 145.515 17.8855C146.848 17.743 148.669 17.6252 149.865 18.0713C150.215 18.1953 150.648 18.5425 150.854 18.8398C151.576 19.9118 151.026 21.0336 150.758 21.517L150.277 22.2855C150.009 22.713 149.473 22.9357 148.992 22.7684C148.655 22.6569 148.415 22.3968 148.517 22.0562C148.744 21.3188 148.463 20.7112 148.215 20.389C147.191 19.1373 145.061 20.1043 144.367 20.5814C139.996 23.5744 136.787 26.6726 136.079 30.7872C135.969 31.5926 136.099 32.1379 136.402 32.5778C136.69 32.993 137.151 33.2719 137.646 33.402C139.604 33.9039 141.453 33.5815 143.089 32.8689C143.214 32.8125 144.607 32.0948 144.724 32.0265L147.46 30.3412C150.154 22.1864 161.63 15.8467 167.341 18.3067C167.547 18.3934 167.74 18.5112 167.905 18.6661C172.324 22.8365 161.362 31.3757 153.473 30.1119C153.253 30.5642 153.26 31.1217 153.397 31.6731C153.72 32.9682 154.723 34.0094 156.009 34.4556C159.094 35.5338 164.585 34.0156 167.857 31.9521L167.877 31.946C167.932 31.9151 167.98 31.884 168.028 31.8468L170.427 30.13C170.874 29.8639 171.402 30.3225 171.189 30.7872C170.846 31.5369 170.681 31.8592 170.296 32.547C170.173 32.7576 170.008 32.9373 169.802 33.0674C162.043 37.9751 151.363 38.124 148.532 34.7902C147.996 34.0405 147.439 33.3464 147.281 32.1754C144.092 34.5797 136.745 38.384 132.148 36.6305C130.416 35.7877 129.481 34.9451 129.357 32.7763C126.959 35.1991 121.647 38.9108 117.909 37.8329C116.844 37.5231 116.005 36.7605 115.661 35.7318C115.208 34.3748 115.441 32.8135 116.06 31.7415C117.383 29.1172 119.585 27.0433 121.707 25.0589L122.609 24.2123L119.578 24.3981C114.28 29.9193 107.93 34.9821 100.549 37.2253C98.0609 37.8822 94.604 38.2603 92.7623 36.2898C91.9652 35.6329 91.7045 34.2695 91.5945 33.4268L90.9965 33.848C87.5398 35.9983 83.0931 38.5577 78.6673 37.0147C77.5815 36.55 76.6053 35.6574 76.5297 34.573C75.6299 29.2128 85.7117 20.7978 88.1926 18.8211C88.5362 18.5485 88.9555 18.3999 89.3952 18.3999C91.1201 18.3937 92.584 18.2076 94.3502 18.2014C94.9617 18.2015 95.1128 18.8463 94.7005 19.2428L92.563 21.1515C88.2748 25.4022 85.993 26.8834 83.4571 31.4317C83.1067 32.0637 83.1823 32.9375 83.3954 33.396C84.6255 36.0729 89.4088 32.7889 91.4912 31.2459C91.9172 29.8455 92.5427 28.6185 93.4086 27.3978C97.1952 22.5273 103.737 18.0652 110.404 17.7863C112.259 17.7057 112.665 18.1028 113.215 18.7224C113.916 19.5218 113.998 20.7918 113.867 21.7893C113.833 22.0681 113.75 22.3411 113.64 22.6014C111.297 27.9987 101.126 33.6374 97.2843 31.1836C96.9819 31.7289 97.0783 32.5472 97.3051 33.235C97.6007 34.152 98.5217 34.8338 99.5044 34.8338C101.449 34.8214 102.57 34.4868 105.428 33.1297C109.971 30.5953 115.001 26.7841 118.465 23.0413C117.317 21.9755 117.64 20.2029 118.836 18.6165ZM107.881 21.3312C107.668 21.1019 107.167 21.0646 106.7 21.1327C106.493 21.1637 106.294 21.2258 106.108 21.3064V21.3124C101.36 23.3326 98.2467 26.8277 98.0199 28.6123C97.9719 28.9654 98.2262 29.2998 98.5903 29.3494C101.504 29.7645 107.449 25.9907 108.212 22.6631C108.322 22.1922 108.211 21.6844 107.881 21.3312ZM163.843 22.2292C163.843 20.7485 161.884 20.9407 161.142 21.232C159.225 21.7465 155.039 24.8632 153.754 28.3394C154.881 28.6864 156.957 28.3144 157.809 27.9612C160.407 26.8767 163.843 24.8504 163.843 22.2292Z" fill="white"/>
<path fill-rule="evenodd" clip-rule="evenodd" d="M173.842 33.8232C174.378 33.8232 174.647 34.0156 174.647 34.4556C174.647 34.8521 174.392 35.0253 174.056 35.0625L174.701 36.0417H174.317L173.719 35.0813H173.32V36.0417H172.977V33.8232H173.842ZM173.32 34.7963H173.733C174.022 34.7963 174.283 34.7775 174.283 34.4368C174.283 34.1983 174.088 34.1256 173.878 34.1113L173.788 34.1082H173.32V34.7963Z" fill="white"/>
<path fill-rule="evenodd" clip-rule="evenodd" d="M173.74 33.0117C174.825 33.0118 175.726 33.8235 175.726 34.9264C175.726 36.0294 174.812 36.8537 173.74 36.8538C172.668 36.8538 171.74 36.0418 171.74 34.9264C171.74 33.8234 172.654 33.0117 173.74 33.0117ZM173.74 33.3403C172.846 33.3403 172.132 34.0278 172.132 34.9324C172.132 35.8372 172.833 36.5379 173.74 36.5379C174.633 36.5378 175.334 35.8557 175.334 34.9324C175.334 34.0093 174.633 33.3404 173.74 33.3403Z" fill="white"/>
<path d="M66.8957 6.73148C72.7372 6.63855 79.1076 7.27088 83.2585 10.0779C84.9352 11.3172 85.6638 13.0582 85.8906 14.0683C86.1105 14.9296 86.0486 16.5471 85.9524 16.8755L85.9456 16.8695C84.0076 23.5246 75.5409 27.72 68.2219 28.9718C62.3393 30.1553 55.24 29.4425 54.1128 26.1833C53.8585 25.4397 53.8792 24.5843 54.051 24.0761C54.1885 23.6672 54.6492 23.4009 55.0685 23.5497C55.5976 23.7418 56.223 24.0512 56.6765 24.1875C60.5043 25.3277 66.5723 25.0179 71.4379 22.5022C73.8157 21.1885 76.5651 19.3355 76.517 15.667C76.5032 14.434 75.4652 13.1511 74.3519 12.3394C74.0221 12.0978 73.6508 11.9058 73.2661 11.7633C66.1601 9.1112 55.852 10.7162 49.1928 13.6162C48.9591 13.7154 48.7387 13.8393 48.5257 13.9757C47.062 14.9237 46.6768 15.4192 45.8109 15.9769C45.2749 16.3176 44.5467 15.8778 44.7392 15.3264C45.0896 14.3287 45.7977 12.6991 46.6223 11.497C47.1034 10.7844 47.8179 10.2634 48.6357 9.96598C54.4772 7.85912 59.9822 6.90499 66.8957 6.73148Z" fill="white"/>
<path d="M94.7139 11.6332C96.0059 10.7222 98.432 9.89828 99.8615 10.4374C100.562 10.6667 100.817 11.3731 100.769 11.9369C100.762 12.9593 99.8067 14.1555 98.7621 14.9796C97.8138 15.748 96.0061 16.6278 94.4461 16.7642H94.4394C93.3468 16.8199 92.5289 16.4107 92.2952 15.6858C91.8072 14.3288 93.2708 12.6494 94.7139 11.6332Z" fill="white"/>
</svg>
