<svg width="211" height="48" viewBox="0 0 211 48" fill="none" xmlns="http://www.w3.org/2000/svg">
<path fill-rule="evenodd" clip-rule="evenodd" d="M99.0263 21.6129C98.303 21.6288 97.5839 21.4974 96.9116 21.2265C96.2394 20.9558 95.6275 20.551 95.1124 20.0365C94.5972 19.5218 94.1892 18.9077 93.9124 18.2304C93.6357 17.5533 93.4958 16.8265 93.5012 16.0937C93.4896 15.3733 93.62 14.6579 93.8847 13.9892C94.1494 13.3205 94.5431 12.7122 95.0427 12.1995C95.5424 11.6869 96.138 11.2804 96.7946 11.0039C97.4512 10.7273 98.1557 10.5862 98.8668 10.589C101.163 10.589 102.569 11.5684 103.459 12.8956L101.318 14.3649C101.069 13.9475 100.712 13.6076 100.286 13.3821C99.8598 13.1568 99.3804 13.0545 98.9006 13.0866C97.3393 13.0866 96.387 14.3992 96.387 16.0887C96.387 17.7783 97.3538 19.1105 98.9973 19.1105C99.511 19.1504 100.025 19.0314 100.47 18.769C100.915 18.5067 101.272 18.1133 101.492 17.6413L103.676 19.0664C102.632 20.8539 101.163 21.6277 99.0118 21.6277L99.0263 21.6129ZM116.177 10.7219H108.733V21.4718H116.394V19.0525H111.57V17.2012H115.413V14.9092H111.57V13.1413H116.177V10.7219ZM124.38 16.1126V21.4704H121.716V10.5884C121.716 10.4903 121.76 10.4121 121.934 10.5541L128.595 16.1224V10.7352H131.263V21.6417C131.263 21.7692 131.22 21.8181 131.046 21.676L124.38 16.1126ZM136.493 13.1413H139.302V21.4718H142.144V13.1413H144.952V10.7219H136.493V13.1413ZM153.02 21.4701H150.178V10.6959H154.47C157.168 10.6959 158.666 12.3071 158.666 14.5061C158.694 15.1647 158.525 15.8166 158.18 16.3752C157.834 16.9341 157.33 17.3734 156.733 17.6355L158.932 21.4457H155.858L153.987 18.0763H153.02V21.4701ZM154.35 15.9019C155.316 15.9019 155.834 15.4121 155.834 14.5305C155.834 13.6491 155.316 13.1543 154.35 13.1543H153.04V15.9019H154.35ZM165.844 20.1737H169.547L170.108 21.4713H173.042L167.889 10.5306C167.846 10.4179 167.749 10.4179 167.705 10.5306L162.538 21.4713H165.317L165.844 20.1737ZM168.653 18.0872H166.719L167.686 15.81L168.653 18.0872ZM177.146 10.7219H179.983V19.0525H184.493V21.4718H177.146V10.7219ZM99.9008 26.4422C96.4639 26.4422 93.5008 28.9841 93.5008 32.6277C93.5008 36.242 96.4639 38.8278 99.9008 38.8278C103.338 38.8278 106.301 36.2958 106.301 32.6277C106.301 28.9594 103.338 26.4422 99.9008 26.4422ZM99.9008 29.2485C101.897 29.2485 103.038 30.7226 103.038 32.6277C103.038 34.5474 101.902 36.0166 99.9008 36.0166C97.8996 36.0166 96.7637 34.5376 96.7637 32.6277C96.7637 30.7178 97.9044 29.2485 99.9008 29.2485ZM114.489 38.6409H111.299V26.5591H116.133C119.169 26.5591 120.851 28.3711 120.851 30.8443C120.882 31.5845 120.69 32.3169 120.302 32.9446C119.914 33.5723 119.347 34.0661 118.676 34.3606L121.151 38.6409H117.68L115.577 34.8552H114.489V38.6409ZM115.964 32.3869C117.047 32.3869 117.627 31.8385 117.627 30.8443C117.627 29.8502 117.047 29.2966 115.964 29.2966H114.489V32.3869H115.964ZM134.864 26.5591H126.502V38.6409H135.111V35.9229H129.692V33.8463H134.004V31.2703H129.692V29.2771H134.864V26.5591ZM148.346 34.3955H145.982V31.9075H151.188V37.1331C150.081 38.0537 148.646 38.8031 145.997 38.8031C142.492 38.8031 139.582 36.2417 139.582 32.6029C139.582 28.9642 142.482 26.4175 145.929 26.4175C148.032 26.4175 149.68 27.2208 150.715 28.5675L148.486 30.5265C148.183 30.1116 147.786 29.7769 147.328 29.5509C146.87 29.3249 146.365 29.2143 145.856 29.2287C143.923 29.2287 142.84 30.6979 142.84 32.6078C142.84 34.5178 143.928 36.09 146.03 36.09C146.83 36.1183 147.624 35.9503 148.346 35.6001V34.3955ZM162.113 26.4422C158.676 26.4422 155.713 28.9841 155.713 32.6277C155.713 36.2664 158.676 38.8278 162.113 38.8278C165.549 38.8278 168.512 36.2958 168.512 32.6277C168.512 28.9594 165.549 26.4422 162.113 26.4422ZM162.113 29.2485C164.109 29.2485 165.25 30.7226 165.25 32.6277C165.25 34.5474 164.114 36.0166 162.113 36.0166C160.111 36.0166 158.975 34.5376 158.975 32.6277C158.975 30.7178 160.116 29.2485 162.113 29.2485ZM176.508 32.6265V38.6505H173.511V26.4069C173.511 26.2991 173.564 26.2111 173.753 26.3726L181.24 32.6265V26.5588H184.237V38.8021C184.237 38.9442 184.189 38.9982 183.996 38.8364L176.508 32.6265Z" fill="white"/>
<path d="M88.0422 37.1968C88.1315 37.7733 88.2076 38.3564 88.2672 38.9396H25.8906C25.9502 38.3564 26.0263 37.7733 26.1156 37.1968H30.231L26.6449 34.5589C26.677 34.437 26.7087 34.315 26.7404 34.1932C26.8653 33.7133 26.9894 33.2364 27.1345 32.7658L33.1687 37.1968H36.2652L27.773 30.9559C27.9715 30.3861 28.192 29.8275 28.4347 29.28L39.1896 37.1968H42.296L29.2385 27.5874C29.5065 27.0578 29.7877 26.5551 30.0821 26.0523L44.3671 36.5934C44.6121 36.0157 44.8962 35.4558 45.2173 34.9176L31.0647 24.4837C31.3823 24.0011 31.7131 23.5284 32.0571 23.066L46.2031 33.4764C46.5866 32.9903 47.001 32.5302 47.4437 32.0988L44.549 29.9672L44.4564 29.9973L44.4166 29.8699L33.2051 21.6214C33.5778 21.1744 33.9627 20.7399 34.3597 20.3175L38.3759 23.2636L36.8078 17.9914C37.2709 17.587 37.7484 17.196 38.2403 16.8183L40.6454 24.963L43.4937 27.0578L39.8546 15.662C40.3475 15.3335 40.8471 15.0151 41.3599 14.7168L45.8723 28.794L48.3865 30.6442L42.9941 13.8253C43.5068 13.5605 44.033 13.3124 44.5622 13.0778L50.0175 30.1012C50.5491 29.7806 51.1018 29.4973 51.6716 29.2532L46.2593 12.384C46.7953 12.1874 47.3389 12.003 47.8903 11.831L53.2827 28.6667C53.8713 28.4973 54.4703 28.3674 55.0757 28.2778L51.9925 18.6585H51.9527L51.9693 18.6048L49.6535 11.3416C50.2116 11.2031 50.775 11.0802 51.3441 10.9729L52.9089 15.8463L54.6887 10.5339C55.2974 10.4869 55.9161 10.4501 56.5347 10.4501L53.8087 18.6182L54.8541 21.8727L58.4931 10.4769C59.0854 10.5037 59.6775 10.5439 60.2598 10.6043L55.7837 24.5876L55.7109 24.5642L56.7034 27.6812L62.1025 10.8422C62.6758 10.9428 63.2437 11.0545 63.8062 11.1774L58.3443 28.2142C58.9586 28.2678 59.5686 28.3629 60.1704 28.4991L65.5893 11.6265C66.155 11.7841 66.7009 11.955 67.2434 12.1427L61.8245 28.9884C62.399 29.2033 62.9592 29.4552 63.5018 29.7425L68.9371 12.7963C69.4699 13.0175 69.9992 13.2521 70.5185 13.5035L68.7453 19.0338L73.7673 15.3369C74.2965 15.6687 74.7927 16.0139 75.289 16.3726L67.8521 21.8492V21.8292L66.8795 24.8625L76.8174 17.5322C77.2739 17.9076 77.7239 18.2964 78.1605 18.6987L65.9763 27.6544L65.0136 30.671L65.1758 30.7882L65.06 30.6274L79.4971 20.0058C79.9007 20.4169 80.2921 20.846 80.6715 21.2929L66.4065 31.7971C66.8602 32.2157 67.2868 32.6635 67.6834 33.1379L81.8393 22.7207C82.1932 23.1799 82.5241 23.6458 82.8549 24.1251L68.709 34.5388C69.0452 35.0587 69.347 35.6007 69.6121 36.161L83.8573 25.687L83.9892 25.9152L83.9923 25.9206C84.2421 26.3525 84.484 26.7709 84.7141 27.2086L80.8931 30.0107H86.0406C86.2789 30.5838 86.5005 31.167 86.7023 31.7535H78.584V31.72L76.0201 33.6037H87.268C87.4269 34.1803 87.5691 34.7612 87.6949 35.3466H73.6447L71.1306 37.1968H88.0422Z" fill="white"/>
</svg>
