<svg width="324" height="108" viewBox="0 0 324 108" fill="none" xmlns="http://www.w3.org/2000/svg">
<path fill-rule="evenodd" clip-rule="evenodd" d="M175.158 93.3369C174.338 93.9098 173.602 94.4632 172.951 94.9971C172.313 95.5179 171.753 96.0518 171.271 96.5986C170.803 97.1454 170.406 97.7185 170.08 98.3174C169.768 98.9032 169.533 99.548 169.377 100.251L169.533 100.29C169.663 100.03 169.82 99.7821 170.002 99.5479C170.184 99.3006 170.399 99.0855 170.646 98.9033C170.907 98.7081 171.2 98.5582 171.525 98.4541C171.864 98.337 172.255 98.2783 172.697 98.2783L172.91 98.2832C173.403 98.3046 173.866 98.4004 174.299 98.5713C174.794 98.7666 175.217 99.0531 175.568 99.4307C175.933 99.7952 176.219 100.238 176.428 100.759C176.636 101.28 176.74 101.866 176.74 102.518C176.74 103.208 176.623 103.839 176.389 104.412C176.154 104.985 175.816 105.48 175.373 105.896C174.943 106.313 174.416 106.639 173.791 106.873C173.179 107.094 172.495 107.205 171.74 107.205C170.946 107.205 170.236 107.081 169.611 106.834C168.999 106.574 168.478 106.215 168.049 105.76C167.619 105.291 167.286 104.731 167.052 104.08C166.83 103.416 166.72 102.674 166.72 101.854C166.72 100.877 166.869 99.9581 167.169 99.0986C167.468 98.2263 167.854 97.432 168.322 96.7158C168.804 95.9868 169.338 95.3356 169.924 94.7627C170.51 94.1898 171.096 93.7145 171.682 93.3369H175.158ZM171.721 100.251C170.979 100.251 170.399 100.453 169.982 100.856C169.566 101.26 169.357 101.84 169.357 102.596V102.83C169.357 103.585 169.559 104.171 169.963 104.588C170.367 104.991 170.953 105.193 171.721 105.193C172.502 105.193 173.094 104.991 173.498 104.588C173.902 104.171 174.103 103.585 174.104 102.83V102.596C174.104 101.84 173.895 101.26 173.479 100.856C173.075 100.453 172.489 100.251 171.721 100.251Z" fill="black"/>
<path d="M151.902 93.1025C152.631 93.1025 153.276 93.2068 153.836 93.415C154.409 93.6104 154.892 93.8903 155.282 94.2549C155.673 94.6064 155.966 95.0297 156.161 95.5244C156.369 96.0192 156.474 96.5596 156.474 97.1455C156.474 97.7053 156.382 98.2198 156.2 98.6885C156.031 99.1571 155.79 99.6066 155.478 100.036C155.165 100.453 154.793 100.857 154.363 101.248C153.947 101.639 153.491 102.029 152.996 102.42L150.027 104.822H156.845V106.971H147.234V104.588L151.609 100.856C152.339 100.231 152.879 99.6651 153.23 99.1572C153.582 98.6364 153.758 98.083 153.758 97.4971V97.3018C153.758 96.6508 153.575 96.1559 153.211 95.8174C152.846 95.479 152.338 95.3096 151.688 95.3096C150.971 95.3096 150.424 95.5049 150.047 95.8955C149.669 96.2861 149.396 96.768 149.227 97.3408L147 96.501C147.143 96.0583 147.345 95.6351 147.605 95.2314C147.879 94.8148 148.211 94.4502 148.602 94.1377C149.005 93.8252 149.481 93.5778 150.027 93.3955C150.574 93.2002 151.199 93.1026 151.902 93.1025Z" fill="black"/>
<path d="M107.01 25C110.791 25 113.865 26.2115 116.229 28.6348C117.384 29.8207 118.277 31.2397 118.907 32.8896C119.59 34.4881 119.932 36.2417 119.932 38.1494V41.2432H111.895V38.6133C111.894 37.0664 111.449 35.7252 110.556 34.5908C109.719 33.5277 108.605 32.9631 107.214 32.8965L106.933 32.8896C104.937 32.8896 103.596 33.5085 102.913 34.7461C102.283 35.9319 101.969 37.4528 101.969 39.3086V67.4648C101.969 69.063 102.31 70.4036 102.992 71.4863C103.728 72.5691 105.015 73.1104 106.854 73.1104C107.378 73.1103 107.93 73.0334 108.507 72.8789C109.137 72.6726 109.716 72.3627 110.241 71.9502C110.714 71.5378 111.108 70.9706 111.423 70.249C111.738 69.5271 111.895 68.6238 111.895 67.541V64.835H119.932V68.2373C119.932 69.9388 119.59 71.5635 118.907 73.1104C118.277 74.6056 117.384 75.9469 116.229 77.1328C115.073 78.3187 113.707 79.2733 112.132 79.9951C110.609 80.6654 108.954 81 107.168 81C105.645 81 104.095 80.7943 102.52 80.3818C100.944 79.9694 99.5261 79.2469 98.2656 78.2158C97.005 77.1845 95.9537 75.869 95.1133 74.2705C94.3255 72.6205 93.9317 70.5322 93.9316 68.0059V37.6855C93.9316 35.8808 94.2466 34.2042 94.877 32.6572C95.5072 31.1104 96.4002 29.7691 97.5557 28.6348C98.7112 27.5005 100.078 26.6236 101.653 26.0049C103.281 25.3348 105.067 25.0001 107.01 25Z" fill="black"/>
<path d="M217.182 25.0039C218.993 25.0462 220.646 25.4063 222.141 26.083C223.786 26.8049 225.201 27.7584 226.384 28.9443C228.749 31.4192 229.931 34.2555 229.932 37.4521V41.3203H222.062V39.542C222.062 37.7373 221.626 36.1895 220.752 34.9004C219.929 33.5599 218.514 32.8897 216.509 32.8896C215.429 32.8897 214.554 33.0955 213.886 33.5078C213.217 33.9203 212.678 34.437 212.267 35.0557C211.855 35.726 211.571 36.4994 211.417 37.376C211.263 38.2009 211.187 39.0779 211.187 40.0059C211.187 41.0884 211.211 41.9911 211.263 42.7129C211.366 43.4346 211.572 44.0794 211.881 44.6465C212.189 45.2135 212.626 45.7038 213.191 46.1162C213.808 46.5286 214.632 46.9411 215.66 47.3535L221.677 49.751C223.425 50.4213 224.84 51.2213 225.92 52.1494C227 53.0259 227.849 54.0574 228.466 55.2432C229.031 56.4806 229.417 57.8988 229.623 59.4971C229.829 61.044 229.932 62.8239 229.932 64.835C229.932 67.155 229.7 69.3203 229.237 71.3311C228.774 73.2905 228.029 74.9671 227 76.3594C225.92 77.8031 224.505 78.9367 222.757 79.7617C221.008 80.5867 218.874 81 216.354 81C214.452 81 212.677 80.6654 211.031 79.9951C209.386 79.3248 207.972 78.3959 206.789 77.21C205.606 76.024 204.655 74.6572 203.935 73.1104C203.266 71.5119 202.932 69.7839 202.932 67.9277V64.9893H210.801V67.4648C210.801 68.9083 211.212 70.2234 212.034 71.4092C212.908 72.5435 214.349 73.1103 216.354 73.1104C217.691 73.1103 218.72 72.93 219.439 72.5693C220.211 72.1568 220.803 71.5891 221.215 70.8672C221.626 70.1454 221.858 69.294 221.909 68.3145C222.012 67.2833 222.062 66.1485 222.062 64.9111C222.062 63.4675 222.012 62.2816 221.909 61.3535C221.806 60.4254 221.6 59.6776 221.291 59.1104C220.931 58.5433 220.442 58.0796 219.825 57.7188C219.26 57.3579 218.489 56.971 217.512 56.5586L211.881 54.2373C208.487 52.845 206.197 51.015 205.014 48.7461C203.882 46.4258 203.317 43.5376 203.317 40.083C203.317 38.0205 203.6 36.0604 204.166 34.2041C204.732 32.348 205.581 30.7498 206.712 29.4092C207.792 28.0686 209.155 27.0117 210.801 26.2383C212.498 25.4133 214.503 25.0001 216.817 25L217.182 25.0039Z" fill="black"/>
<path fill-rule="evenodd" clip-rule="evenodd" d="M161.432 28.5C178.25 28.5 191.932 39.4865 191.932 53C191.932 66.5135 178.25 77.5 161.432 77.5C144.613 77.5 130.932 66.5135 130.932 53C130.932 39.4865 144.613 28.5 161.432 28.5ZM149.245 65.1494C145.813 65.6656 142.784 66.3977 140.367 67.3145C144.667 71.2668 150.71 73.9941 157.543 74.7568C155.149 72.6458 151.825 69.3022 149.253 65.1572L149.245 65.1494ZM173.595 65.1807C171.023 69.3102 167.706 72.6458 165.312 74.7568C172.13 74.0018 178.165 71.2748 182.465 67.3379C180.079 66.4365 177.034 65.6969 173.595 65.1807ZM160.084 64.3174C157.349 64.3559 154.692 64.5184 152.197 64.7881C154.769 68.6324 157.992 71.7059 160.084 73.501V64.3174ZM162.787 73.501C164.879 71.7058 168.086 68.6395 170.658 64.8027C168.148 64.5254 165.498 64.3559 162.787 64.3174V73.501ZM177.414 54.248C177.205 57.3067 176.251 60.1883 174.919 62.8232C178.622 63.4319 181.868 64.2944 184.394 65.3652C187.073 62.2603 188.778 58.5916 189.149 54.6318L189.182 54.248H177.414ZM133.739 54.8828C133.744 54.9235 133.747 54.9643 133.752 55.0049C133.803 55.4473 133.871 55.8858 133.955 56.3203C134.228 57.7394 134.673 59.1141 135.273 60.4307C135.367 60.6369 135.466 60.8415 135.567 61.0449C136.211 62.3332 137.004 63.5623 137.93 64.7188C137.936 64.7271 137.943 64.7358 137.949 64.7441L138.454 65.3506C140.995 64.2797 144.241 63.4241 147.944 62.8154C146.702 60.3525 145.787 57.6662 145.505 54.8262L145.457 54.2559H133.682L133.739 54.8828ZM148.227 54.79C148.252 55.0166 148.282 55.2421 148.316 55.4668C148.689 57.9187 149.591 60.2623 150.764 62.4229C153.692 62.0607 156.838 61.8519 160.084 61.8057V54.2637H148.177C148.19 54.4396 148.207 54.6151 148.227 54.79ZM162.787 61.791L163.999 61.8164C164.327 61.8254 164.655 61.8362 164.98 61.8486C165.186 61.8565 165.391 61.8658 165.595 61.875C165.747 61.8818 165.898 61.8889 166.05 61.8965C166.213 61.9047 166.376 61.9128 166.538 61.9219C167.22 61.9598 167.894 62.0049 168.561 62.0576C168.703 62.0689 168.845 62.0808 168.987 62.0928C169.203 62.1109 169.418 62.1307 169.632 62.1504C169.748 62.1611 169.863 62.1705 169.979 62.1816C170.318 62.2144 170.656 62.2496 170.991 62.2861C171.364 62.3268 171.733 62.3698 172.1 62.415C173.471 59.9034 174.462 57.1449 174.694 54.248H162.787V61.791ZM150.771 43.585C149.4 46.0966 148.409 48.855 148.177 51.7441H160.084V44.2002C158.153 44.1725 156.258 44.0868 154.423 43.9463C154.24 43.9323 154.058 43.9174 153.876 43.9023C152.819 43.8144 151.782 43.7099 150.771 43.585ZM138.454 40.6426C135.696 43.8398 133.976 47.6377 133.682 51.7363H145.457C145.666 48.6854 146.62 45.8039 147.944 43.1768C144.234 42.5681 140.987 41.7057 138.454 40.6426ZM184.394 40.6191C181.86 41.69 178.622 42.5525 174.919 43.1611C175.078 43.4763 175.232 43.7958 175.38 44.1182C175.409 44.1821 175.438 44.2463 175.467 44.3105C175.517 44.4221 175.567 44.5341 175.615 44.6465C175.62 44.6583 175.626 44.6699 175.631 44.6816C175.694 44.8278 175.756 44.9745 175.816 45.1221C175.845 45.1917 175.872 45.2621 175.899 45.332C175.936 45.4231 175.973 45.5139 176.008 45.6055C176.034 45.6724 176.059 45.7395 176.084 45.8066C176.123 45.9096 176.161 46.0127 176.198 46.1162C176.228 46.1983 176.256 46.2808 176.285 46.3633C176.309 46.4306 176.332 46.4979 176.354 46.5654C176.389 46.667 176.422 46.7689 176.455 46.8711C176.488 46.9747 176.522 47.0784 176.554 47.1826C176.572 47.2437 176.59 47.305 176.608 47.3662C176.646 47.4925 176.682 47.619 176.718 47.7461C176.727 47.7803 176.737 47.8144 176.746 47.8486C176.787 48.0004 176.827 48.1528 176.865 48.3057C176.874 48.3398 176.882 48.374 176.891 48.4082C176.928 48.5616 176.963 48.7157 176.997 48.8701C177.002 48.8929 177.008 48.9156 177.013 48.9385C177.045 49.0854 177.074 49.233 177.103 49.3809C177.109 49.4148 177.117 49.4485 177.123 49.4824C177.228 50.0374 177.31 50.5987 177.366 51.166L177.414 51.7363H189.182C188.887 47.6299 187.159 43.8241 184.394 40.6191ZM172.1 43.5625C169.171 43.9246 166.033 44.1403 162.787 44.1865V51.7285H174.694C174.47 48.8396 173.471 46.0739 172.1 43.5625ZM162.787 41.6826C165.498 41.6364 168.148 41.4746 170.658 41.1973C168.086 37.3605 164.879 34.2942 162.787 32.499V41.6826ZM160.084 32.499C157.992 34.2941 154.777 37.3676 152.205 41.2119C154.7 41.4739 157.349 41.6363 160.084 41.6748V32.499ZM157.551 31.2275C150.718 31.9903 144.675 34.7176 140.375 38.6699C142.784 39.5867 145.821 40.3188 149.253 40.835L149.261 40.8271C151.665 36.9413 154.743 33.7596 157.091 31.6377L157.551 31.2275ZM165.32 31.2354C165.575 31.4595 165.841 31.6976 166.115 31.9492C166.307 32.1248 166.502 32.3066 166.701 32.4951C166.732 32.5241 166.762 32.5537 166.793 32.583C167.08 32.8568 167.375 33.1438 167.674 33.4434C167.748 33.5174 167.822 33.5924 167.896 33.668C168.022 33.7949 168.148 33.9235 168.274 34.0547C168.303 34.0846 168.331 34.1154 168.36 34.1455C168.486 34.2766 168.613 34.4097 168.739 34.5449C168.802 34.6115 168.864 34.6785 168.927 34.7461C169.04 34.8682 169.153 34.9919 169.267 35.1172C169.334 35.1912 169.401 35.2658 169.468 35.3408C169.583 35.4695 169.698 35.5996 169.813 35.7314C169.888 35.8167 169.963 35.9027 170.037 35.9893C170.117 36.0821 170.197 36.1761 170.276 36.2705C170.372 36.383 170.468 36.4958 170.562 36.6104C170.658 36.7256 170.753 36.8426 170.848 36.96C170.923 37.0526 170.998 37.1453 171.073 37.2393C171.18 37.3736 171.286 37.5096 171.393 37.6465C171.465 37.7402 171.539 37.8338 171.611 37.9287C171.689 38.0302 171.764 38.1335 171.841 38.2363C171.933 38.3603 172.027 38.4845 172.118 38.6104C172.426 39.033 172.728 39.4666 173.022 39.9102C173.219 40.2063 173.413 40.5064 173.603 40.8115C177.034 40.2953 180.087 39.5634 182.473 38.6543C178.173 34.7173 172.138 31.9904 165.32 31.2354Z" fill="black"/>
<path d="M39.9785 56.3818C40.6457 56.4127 41.2539 56.5513 41.8027 56.7979C42.4299 57.0706 42.9484 57.4708 43.3574 57.998C43.7663 58.5162 44.0303 59.1483 44.1484 59.8936H42.1436C42.0709 59.5119 41.9159 59.1802 41.6797 58.8984C41.4525 58.6076 41.1666 58.3794 40.8213 58.2158C40.5191 58.0727 40.1852 57.9915 39.8203 57.9736L39.6621 57.9707C39.2441 57.9707 38.8528 58.0523 38.4893 58.2158C38.1257 58.3795 37.8114 58.6122 37.5479 58.9121C37.2845 59.2029 37.0753 59.5577 36.9209 59.9756C36.7756 60.3936 36.7021 60.8665 36.7021 61.3936C36.7022 62.075 36.8296 62.6754 37.084 63.1934C37.3385 63.7023 37.694 64.1027 38.1484 64.3936C38.6119 64.6842 39.1526 64.83 39.7705 64.8301C40.1523 64.8301 40.494 64.7751 40.7939 64.666C41.1025 64.557 41.3706 64.4027 41.5977 64.2031C41.8248 64.0032 42.0072 63.7703 42.1436 63.5068C42.2456 63.3026 42.3148 63.0852 42.3506 62.8555L42.375 62.6211H39.416V61.1348H44.1074V66.3164H42.4297V65.0342C42.2843 65.3067 42.0706 65.5479 41.7891 65.7568C41.5074 65.9658 41.1801 66.1299 40.8076 66.248C40.4441 66.3662 40.0573 66.4257 39.6484 66.4258C38.9941 66.4258 38.3756 66.3212 37.7939 66.1123C37.2214 65.9033 36.712 65.5889 36.2666 65.1709C35.8212 64.7528 35.4704 64.2296 35.2158 63.6025C34.9614 62.9754 34.834 62.2387 34.834 61.3936C34.834 60.621 34.9614 59.9247 35.2158 59.3066C35.4703 58.6887 35.8167 58.1618 36.2529 57.7256C36.6983 57.2893 37.2122 56.9568 37.7939 56.7295C38.3847 56.4933 39.0169 56.375 39.6895 56.375L39.9785 56.3818Z" fill="black"/>
<path d="M273.388 56.374L273.678 56.3799C274.345 56.4107 274.953 56.5503 275.502 56.7969C276.129 57.0695 276.647 57.4692 277.056 57.9961C277.465 58.5142 277.728 59.1463 277.847 59.8916H275.843C275.77 59.5099 275.615 59.1782 275.379 58.8965C275.152 58.6056 274.865 58.3785 274.52 58.2148C274.174 58.0512 273.788 57.9688 273.36 57.9688C272.942 57.9688 272.551 58.0512 272.188 58.2148C271.824 58.3785 271.511 58.6103 271.247 58.9102C270.983 59.2011 270.774 59.5554 270.619 59.9736C270.474 60.3917 270.401 60.8645 270.401 61.3916C270.401 62.0734 270.529 62.6742 270.783 63.1924C271.038 63.7012 271.392 64.1008 271.847 64.3916C272.31 64.6825 272.852 64.8281 273.47 64.8281C273.851 64.8281 274.192 64.7741 274.492 64.665C274.801 64.556 275.07 64.4011 275.297 64.2012C275.524 64.0012 275.706 63.7695 275.843 63.5059C275.979 63.2331 276.056 62.9373 276.074 62.6191H273.115V61.1328H277.806V66.3145H276.129V65.0332C275.983 65.3058 275.77 65.5468 275.488 65.7559C275.206 65.965 274.879 66.1289 274.506 66.2471C274.142 66.3652 273.756 66.4238 273.347 66.4238C272.692 66.4238 272.074 66.3194 271.492 66.1104C270.919 65.9013 270.41 65.5871 269.965 65.1689C269.52 64.7509 269.17 64.2285 268.915 63.6016C268.66 62.9743 268.533 62.2371 268.533 61.3916C268.533 60.619 268.661 59.9237 268.915 59.3057C269.17 58.6875 269.515 58.16 269.951 57.7236C270.397 57.2873 270.91 56.9558 271.492 56.7285C272.083 56.4922 272.715 56.374 273.388 56.374Z" fill="black"/>
<path d="M23.6494 56.375C24.1767 56.375 24.6547 56.4437 25.082 56.5801C25.509 56.7164 25.8822 56.9116 26.2002 57.166C26.5182 57.4205 26.7685 57.7303 26.9502 58.0938C27.1408 58.4481 27.2501 58.8488 27.2773 59.2939H25.4766C25.422 58.9395 25.236 58.6298 24.918 58.3662C24.5998 58.1026 24.1767 57.9707 23.6494 57.9707C23.1677 57.9707 22.7903 58.066 22.5176 58.2568C22.2451 58.4386 22.1084 58.7026 22.1084 59.0479C22.1085 59.3385 22.2093 59.5659 22.4092 59.7295C22.6091 59.8929 22.8769 60.0251 23.2129 60.125L24.8223 60.5752C25.2859 60.7116 25.709 60.8893 26.0908 61.1074C26.4814 61.3164 26.7904 61.6117 27.0176 61.9932C27.2538 62.3749 27.372 62.8845 27.3721 63.5205C27.372 64.102 27.2226 64.6117 26.9229 65.0479C26.6229 65.4841 26.1996 65.8213 25.6543 66.0576C25.118 66.2939 24.4814 66.4121 23.7451 66.4121C23.2088 66.4121 22.7087 66.3342 22.2451 66.1797C21.7816 66.0252 21.3766 65.7979 21.0312 65.498C20.686 65.1982 20.4083 64.8388 20.1992 64.4209C19.9993 63.9938 19.8857 63.5162 19.8584 62.9893H21.6592C21.6866 63.3344 21.7956 63.6481 21.9863 63.9297C22.1772 64.2023 22.4228 64.4214 22.7227 64.585C23.0316 64.7393 23.3726 64.8164 23.7451 64.8164C24.0996 64.8164 24.4092 64.766 24.6729 64.666C24.936 64.5571 25.1408 64.4073 25.2861 64.2168C25.4406 64.026 25.5175 63.8068 25.5176 63.5615C25.5175 63.2254 25.4038 62.9614 25.1768 62.7705C24.9496 62.5707 24.6672 62.4212 24.3311 62.3213L22.7227 61.8711C22.2773 61.7438 21.8632 61.5707 21.4814 61.3525C21.1089 61.1344 20.8083 60.843 20.5811 60.4795C20.354 60.1069 20.2403 59.6338 20.2402 59.0615C20.2403 58.6617 20.3228 58.2978 20.4863 57.9707C20.6499 57.6436 20.8864 57.3613 21.1953 57.125C21.5043 56.8797 21.8635 56.6936 22.2725 56.5664C22.6906 56.4392 23.1495 56.375 23.6494 56.375Z" fill="black"/>
<path fill-rule="evenodd" clip-rule="evenodd" d="M3.17773 56.4844C3.85942 56.4844 4.50069 56.5888 5.10059 56.7979C5.70947 56.9979 6.24547 57.3029 6.70898 57.7119C7.17252 58.121 7.53621 58.6348 7.7998 59.2529C8.07237 59.8619 8.20898 60.5756 8.20898 61.3936C8.20893 62.2206 8.07246 62.9435 7.7998 63.5615C7.53618 64.1704 7.17253 64.6799 6.70898 65.0889C6.24549 65.4978 5.70942 65.8076 5.10059 66.0166C4.50073 66.2165 3.85937 66.3164 3.17773 66.3164H0V56.4844H3.17773ZM1.82715 64.707H3.02734C3.45457 64.707 3.86401 64.6484 4.25488 64.5303C4.64565 64.4121 5.00027 64.2251 5.31836 63.9707C5.63637 63.7072 5.88658 63.3662 6.06836 62.9482C6.25922 62.5211 6.35444 62.0024 6.35449 61.3936C6.35449 60.7846 6.25915 60.2707 6.06836 59.8525C5.88662 59.4345 5.63635 59.0983 5.31836 58.8438C5.00025 58.5802 4.64568 58.3887 4.25488 58.2705C3.96181 58.1819 3.65824 58.1267 3.34473 58.1045L3.02734 58.0938H1.82715V64.707Z" fill="black"/>
<path d="M17.5537 58.0801H12.8623V60.3164H16.626V61.9121H12.8623V64.7207H17.7031V66.3164H11.0352V56.4844H17.5537V58.0801Z" fill="black"/>
<path d="M32.0156 66.3164H30.1885V56.4844H32.0156V66.3164Z" fill="black"/>
<path d="M49.1758 56.4844L52.4893 61.8301C52.689 62.166 52.8661 62.4707 53.0205 62.7432C53.175 63.0157 53.2932 63.2349 53.375 63.3984C53.4646 63.5598 53.5106 63.6416 53.5117 63.6436C53.5117 63.6436 53.507 63.5505 53.498 63.3711C53.489 63.1803 53.4798 62.9298 53.4707 62.6211C53.4616 62.3032 53.457 61.9482 53.457 61.5576V56.4844H55.2705V66.3164H53.3076L49.9932 60.998C49.7933 60.6619 49.6164 60.3566 49.4619 60.084C49.3075 59.8025 49.1846 59.5842 49.0938 59.4297L48.9707 59.1846C48.9711 59.1931 48.9757 59.2842 48.9844 59.457C49.0025 59.6388 49.0163 59.8892 49.0254 60.207C49.0345 60.5159 49.0391 60.8708 49.0391 61.2705V66.3164H47.2119V56.4844H49.1758Z" fill="black"/>
<path d="M65.0576 58.0801H60.3672V60.3164H64.1309V61.9121H60.3672V64.7207H65.208V66.3164H58.54V56.4844H65.0576V58.0801Z" fill="black"/>
<path fill-rule="evenodd" clip-rule="evenodd" d="M72.1904 56.4844C72.845 56.4844 73.4091 56.6025 73.8818 56.8389C74.3543 57.0752 74.7182 57.4161 74.9727 57.8613C75.2361 58.2976 75.3681 58.8254 75.3682 59.4434C75.3681 59.7976 75.3085 60.1342 75.1904 60.4521C75.0723 60.7701 74.8999 61.0572 74.6729 61.3115C74.4547 61.5659 74.1908 61.7759 73.8818 61.9395C74.2089 62.094 74.4638 62.3029 74.6455 62.5664C74.8271 62.83 74.9638 63.1756 75.0547 63.6025L75.3818 65.1572C75.4182 65.357 75.4677 65.5663 75.5312 65.7842C75.6039 65.9931 75.6865 66.171 75.7773 66.3164H73.7998C73.7272 66.2074 73.6639 66.0752 73.6094 65.9209C73.564 65.7665 73.5319 65.616 73.5137 65.4707L73.2539 63.957C73.1903 63.5846 73.0719 63.2848 72.8994 63.0576C72.7358 62.8213 72.504 62.6482 72.2041 62.5391C71.979 62.4572 71.7052 62.4053 71.3828 62.3848L71.0449 62.375H69.791V66.3164H67.9629V56.4844H72.1904ZM69.791 60.7803H71.9316C72.2588 60.7803 72.541 60.7298 72.7773 60.6299C73.0135 60.5209 73.1904 60.3658 73.3086 60.166C73.4358 59.9571 73.4999 59.7159 73.5 59.4434C73.5 59.0164 73.3632 58.6846 73.0908 58.4482C72.8521 58.2413 72.5262 58.1244 72.1133 58.0986L71.9316 58.0938H69.791V60.7803Z" fill="black"/>
<path d="M254.751 58.0781H250.06V60.3145H253.823V61.9102H250.06V64.7197H254.9V66.3145H248.232V56.4824H254.751V58.0781Z" fill="black"/>
<path d="M262.932 61.8281C263.132 62.1645 263.309 62.4695 263.464 62.7422C263.618 63.0148 263.737 63.2329 263.818 63.3965C263.905 63.5529 263.95 63.6347 263.954 63.6416C263.954 63.6345 263.949 63.5436 263.94 63.3691C263.931 63.1783 263.922 62.9281 263.913 62.6191C263.904 62.301 263.899 61.9465 263.899 61.5557V56.4824H265.714V66.3145H263.75L260.437 60.9961C260.237 60.6598 260.059 60.3557 259.904 60.083C259.75 59.8014 259.627 59.5832 259.536 59.4287L259.413 59.1826C259.413 59.1826 259.418 59.2742 259.427 59.4561C259.445 59.6378 259.459 59.8881 259.468 60.2061C259.477 60.515 259.481 60.8697 259.481 61.2695V66.3145H257.654V56.4824H259.618L262.932 61.8281Z" fill="black"/>
<path d="M282.737 66.3145H280.91V56.4824H282.737V66.3145Z" fill="black"/>
<path d="M291.283 61.8281C291.483 62.1645 291.661 62.4695 291.815 62.7422C291.97 63.0148 292.088 63.2329 292.17 63.3965C292.257 63.5529 292.302 63.6347 292.306 63.6416C292.305 63.6345 292.301 63.5436 292.292 63.3691C292.283 63.1783 292.274 62.9281 292.265 62.6191C292.256 62.301 292.251 61.9465 292.251 61.5557V56.4824H294.065V66.3145H292.102L288.788 60.9961C288.588 60.6598 288.41 60.3557 288.256 60.083C288.101 59.8014 287.979 59.5832 287.888 59.4287L287.765 59.1826C287.765 59.1826 287.769 59.2742 287.778 59.4561C287.796 59.6378 287.81 59.8881 287.819 60.2061C287.828 60.515 287.833 60.8697 287.833 61.2695V66.3145H286.006V56.4824H287.97L291.283 61.8281Z" fill="black"/>
<path d="M303.853 58.0781H299.161V60.3145H302.925V61.9102H299.161V64.7197H304.002V66.3145H297.334V56.4824H303.853V58.0781Z" fill="black"/>
<path d="M313.276 58.0781H308.585V60.3145H312.349V61.9102H308.585V64.7197H313.426V66.3145H306.758V56.4824H313.276V58.0781Z" fill="black"/>
<path fill-rule="evenodd" clip-rule="evenodd" d="M320.409 56.4824C321.063 56.4824 321.627 56.6007 322.1 56.8369C322.572 57.0733 322.936 57.4149 323.19 57.8604C323.454 58.2967 323.586 58.8242 323.586 59.4424C323.586 59.7968 323.527 60.1331 323.409 60.4512C323.291 60.7693 323.118 61.056 322.891 61.3105C322.672 61.5649 322.409 61.7739 322.1 61.9375C322.427 62.092 322.681 62.301 322.863 62.5645C323.045 62.8281 323.182 63.1743 323.272 63.6016L323.6 65.1553C323.636 65.3553 323.686 65.565 323.75 65.7832C323.823 65.992 323.904 66.1691 323.995 66.3145H322.019C321.946 66.2054 321.882 66.0735 321.827 65.9189C321.782 65.7647 321.75 65.615 321.731 65.4697L321.473 63.9561C321.409 63.5833 321.291 63.2829 321.118 63.0557C320.955 62.8193 320.723 62.6462 320.423 62.5371C320.198 62.4553 319.924 62.4042 319.602 62.3838L319.264 62.374H318.009V66.3145H316.182V56.4824H320.409ZM318.009 60.7783H320.15C320.477 60.7783 320.759 60.7279 320.995 60.6279C321.231 60.5189 321.409 60.3649 321.527 60.165C321.655 59.9561 321.718 59.7149 321.718 59.4424C321.718 59.0151 321.581 58.6827 321.309 58.4463C321.07 58.2396 320.745 58.1235 320.332 58.0977L320.15 58.0918H318.009V60.7783Z" fill="black"/>
<path fill-rule="evenodd" clip-rule="evenodd" d="M26.0664 39.5752C26.7846 39.5752 27.4439 39.7025 28.0439 39.957C28.6439 40.2025 29.1669 40.5523 29.6123 41.0068C30.0576 41.4522 30.403 41.9799 30.6484 42.5889C30.8938 43.1979 31.0166 43.8666 31.0166 44.5938C31.0165 45.3206 30.8937 45.9934 30.6484 46.6113C30.403 47.2202 30.0576 47.7526 29.6123 48.207C29.1669 48.6524 28.6438 49.0023 28.0439 49.2568C27.444 49.5022 26.7845 49.625 26.0664 49.625C25.3485 49.625 24.6851 49.5022 24.0762 49.2568C23.4763 49.0023 22.9532 48.6478 22.5078 48.1934C22.0624 47.7389 21.7116 47.2066 21.457 46.5977C21.2118 45.9798 21.089 45.3115 21.0889 44.5938C21.0889 43.8758 21.2117 43.2115 21.457 42.6025C21.7115 41.9935 22.0625 41.4613 22.5078 41.0068C22.9532 40.5525 23.4763 40.2024 24.0762 39.957C24.6851 39.7026 25.3485 39.5752 26.0664 39.5752ZM26.0664 41.1709C25.6121 41.1709 25.1942 41.2571 24.8125 41.4297C24.4308 41.6024 24.0982 41.8433 23.8164 42.1523C23.5439 42.4613 23.3303 42.8252 23.1758 43.2432C23.0304 43.6521 22.957 44.103 22.957 44.5938C22.9571 45.2479 23.0891 45.8346 23.3525 46.3525C23.6162 46.8705 23.9854 47.2801 24.458 47.5801C24.9305 47.8798 25.4668 48.0302 26.0664 48.0303C26.5118 48.0303 26.9213 47.9432 27.2939 47.7705C27.6756 47.5978 28.0027 47.3568 28.2754 47.0479C28.5571 46.7389 28.7715 46.375 28.917 45.957C29.0714 45.5391 29.1484 45.0843 29.1484 44.5938C29.1484 43.9394 29.0164 43.3567 28.7529 42.8477C28.4894 42.3298 28.1255 41.921 27.6621 41.6211C27.1985 41.3211 26.6664 41.1709 26.0664 41.1709Z" fill="black"/>
<path d="M47.5615 45.9844C47.5616 46.4295 47.6477 46.8073 47.8203 47.1162C47.9929 47.4159 48.2342 47.6434 48.543 47.7979C48.8611 47.9523 49.2212 48.0303 49.6211 48.0303C50.2299 48.0302 50.7303 47.8615 51.1211 47.5254C51.5118 47.18 51.7069 46.6659 51.707 45.9844V39.6846H53.5342V45.957C53.5341 46.7568 53.3666 47.4302 53.0303 47.9756C52.703 48.5209 52.2431 48.935 51.6523 49.2168C51.0707 49.4893 50.3934 49.625 49.6211 49.625C48.8667 49.625 48.1934 49.4894 47.6025 49.2168C47.021 48.9351 46.5619 48.5207 46.2256 47.9756C45.8984 47.4302 45.7344 46.7568 45.7344 45.957V39.6846H47.5615V45.9844Z" fill="black"/>
<path d="M61.6406 39.5752L61.9268 39.582C62.5869 39.6128 63.1914 39.7515 63.7402 39.998C64.3765 40.2708 64.8949 40.671 65.2949 41.1982C65.6947 41.7164 65.9404 42.3531 66.0312 43.1074H64.0947C63.9948 42.5348 63.718 42.0703 63.2637 41.7158C62.8092 41.3522 62.2633 41.1709 61.627 41.1709C61.2088 41.1709 60.8177 41.2478 60.4541 41.4023C60.0907 41.5477 59.768 41.766 59.4863 42.0566C59.2137 42.3475 58.9992 42.7076 58.8447 43.1348C58.6995 43.5528 58.627 44.0396 58.627 44.5938C58.627 45.3298 58.7589 45.9576 59.0225 46.4756C59.2861 46.9844 59.6453 47.3712 60.0996 47.6348C60.5541 47.8982 61.0635 48.0303 61.627 48.0303C62.2813 48.0302 62.8274 47.857 63.2637 47.5117C63.7088 47.1664 63.9856 46.6841 64.0947 46.0664H66.0449C65.9267 46.857 65.6583 47.5214 65.2402 48.0576C64.8221 48.5846 64.2989 48.9796 63.6719 49.2432C63.0538 49.4976 62.3768 49.625 61.6406 49.625C60.9862 49.625 60.3679 49.5205 59.7861 49.3115C59.2045 49.1025 58.6813 48.7891 58.2178 48.3711C57.7634 47.953 57.4042 47.4298 57.1406 46.8027C56.8862 46.1665 56.7589 45.4298 56.7588 44.5938C56.7588 43.7577 56.8908 43.0256 57.1543 42.3984C57.4179 41.7713 57.777 41.2482 58.2314 40.8301C58.6951 40.4119 59.218 40.0978 59.7998 39.8887C60.3815 39.6797 60.9953 39.5752 61.6406 39.5752Z" fill="black"/>
<path d="M251.723 39.5762C252.25 39.5762 252.727 39.644 253.154 39.7803C253.582 39.9166 253.954 40.1127 254.272 40.3672C254.591 40.6216 254.841 40.9305 255.022 41.2939C255.213 41.6484 255.322 42.0488 255.35 42.4941H253.55C253.495 42.1398 253.309 41.8309 252.991 41.5674C252.673 41.3037 252.25 41.1719 251.723 41.1719C251.241 41.1719 250.864 41.2671 250.591 41.458C250.318 41.6398 250.182 41.9036 250.182 42.249C250.182 42.5398 250.282 42.767 250.481 42.9307C250.681 43.0943 250.95 43.2262 251.286 43.3262L252.896 43.7764C253.359 43.9127 253.782 44.0895 254.164 44.3076C254.555 44.5167 254.864 44.8126 255.091 45.1943C255.327 45.5761 255.445 46.0854 255.445 46.7217C255.445 47.3035 255.295 47.8127 254.995 48.249C254.695 48.6852 254.273 49.0215 253.728 49.2578C253.191 49.4942 252.555 49.6123 251.818 49.6123C251.282 49.6123 250.782 49.5354 250.318 49.3809C249.855 49.2263 249.45 48.9992 249.104 48.6992C248.759 48.3993 248.482 48.0402 248.272 47.6221C248.073 47.1949 247.959 46.7175 247.932 46.1904H249.731C249.759 46.5356 249.868 46.8492 250.059 47.1309C250.249 47.4035 250.495 47.6215 250.795 47.7852C251.104 47.9397 251.446 48.0176 251.818 48.0176C252.173 48.0176 252.482 47.9671 252.745 47.8672C253.009 47.7581 253.214 47.6079 253.359 47.417C253.514 47.2262 253.591 47.008 253.591 46.7627C253.591 46.4263 253.477 46.1626 253.25 45.9717C253.023 45.7717 252.741 45.6215 252.404 45.5215L250.795 45.0713C250.35 44.9441 249.936 44.7717 249.555 44.5537C249.182 44.3355 248.882 44.0443 248.654 43.6807C248.427 43.308 248.313 42.8353 248.313 42.2627C248.313 41.8628 248.395 41.4991 248.559 41.1719C248.722 40.8447 248.959 40.5625 249.268 40.3262C249.577 40.0807 249.937 39.8939 250.346 39.7666C250.764 39.6394 251.223 39.5762 251.723 39.5762Z" fill="black"/>
<path d="M272.912 39.5762L273.298 39.5889C273.675 39.6144 274.023 39.678 274.344 39.7803C274.771 39.9166 275.144 40.1127 275.462 40.3672C275.78 40.6216 276.03 40.9305 276.212 41.2939C276.403 41.6484 276.512 42.0488 276.539 42.4941H274.739C274.685 42.1398 274.499 41.8309 274.181 41.5674C273.862 41.3037 273.439 41.1719 272.912 41.1719C272.43 41.1719 272.053 41.2671 271.78 41.458C271.508 41.6398 271.371 41.9036 271.371 42.249C271.371 42.5398 271.471 42.767 271.671 42.9307C271.871 43.0943 272.139 43.2262 272.476 43.3262L274.085 43.7764C274.549 43.9127 274.972 44.0895 275.354 44.3076C275.744 44.5167 276.053 44.8126 276.28 45.1943C276.517 45.5761 276.635 46.0854 276.635 46.7217C276.635 47.3035 276.485 47.8127 276.185 48.249C275.885 48.6852 275.462 49.0215 274.917 49.2578C274.381 49.4942 273.744 49.6123 273.008 49.6123C272.472 49.6123 271.971 49.5354 271.508 49.3809C271.044 49.2263 270.639 48.9992 270.294 48.6992C269.949 48.3993 269.671 48.0402 269.462 47.6221C269.262 47.1949 269.148 46.7175 269.121 46.1904H270.921C270.948 46.5356 271.057 46.8492 271.248 47.1309C271.439 47.4035 271.685 47.6215 271.984 47.7852C272.293 47.9397 272.635 48.0176 273.008 48.0176C273.362 48.0176 273.671 47.9671 273.935 47.8672C274.198 47.7581 274.403 47.6079 274.549 47.417C274.703 47.2262 274.78 47.008 274.78 46.7627C274.78 46.4263 274.667 46.1626 274.439 45.9717C274.212 45.7717 273.93 45.6215 273.594 45.5215L271.984 45.0713C271.539 44.9441 271.126 44.7717 270.744 44.5537C270.371 44.3355 270.071 44.0443 269.844 43.6807C269.617 43.308 269.503 42.8353 269.503 42.2627C269.503 41.8628 269.585 41.4991 269.748 41.1719C269.912 40.8447 270.148 40.5625 270.457 40.3262C270.766 40.0807 271.126 39.8939 271.535 39.7666C271.953 39.6394 272.412 39.5762 272.912 39.5762Z" fill="black"/>
<path d="M320.581 39.5889C320.958 39.6144 321.306 39.678 321.627 39.7803C322.054 39.9166 322.427 40.1127 322.745 40.3672C323.063 40.6216 323.313 40.9305 323.495 41.2939C323.686 41.6484 323.795 42.0488 323.822 42.4941H322.022C321.968 42.1398 321.782 41.8309 321.464 41.5674C321.185 41.3366 320.826 41.2065 320.388 41.1777L320.195 41.1719C319.714 41.1719 319.336 41.2671 319.063 41.458C318.791 41.6398 318.654 41.9036 318.654 42.249C318.654 42.5398 318.754 42.767 318.954 42.9307C319.154 43.0943 319.422 43.2262 319.759 43.3262L321.368 43.7764C321.832 43.9127 322.255 44.0895 322.637 44.3076C323.028 44.5167 323.336 44.8126 323.563 45.1943C323.8 45.5761 323.918 46.0854 323.918 46.7217C323.918 47.3035 323.768 47.8127 323.468 48.249C323.168 48.6852 322.745 49.0215 322.2 49.2578C321.664 49.4942 321.027 49.6123 320.291 49.6123C319.755 49.6123 319.255 49.5354 318.791 49.3809C318.327 49.2263 317.923 48.9992 317.577 48.6992C317.232 48.3993 316.954 48.0402 316.745 47.6221C316.545 47.1949 316.432 46.7175 316.404 46.1904H318.204C318.231 46.5356 318.34 46.8492 318.531 47.1309C318.722 47.4035 318.968 47.6215 319.268 47.7852C319.577 47.9397 319.918 48.0176 320.291 48.0176C320.645 48.0176 320.954 47.9671 321.218 47.8672C321.481 47.7581 321.687 47.6079 321.832 47.417C321.986 47.2262 322.063 47.008 322.063 46.7627C322.063 46.4263 321.95 46.1626 321.723 45.9717C321.495 45.7717 321.213 45.6215 320.877 45.5215L319.268 45.0713C318.822 44.9441 318.409 44.7717 318.027 44.5537C317.655 44.3355 317.354 44.0443 317.127 43.6807C316.9 43.308 316.786 42.8353 316.786 42.2627C316.786 41.8628 316.868 41.4991 317.031 41.1719C317.195 40.8447 317.431 40.5625 317.74 40.3262C318.049 40.0807 318.409 39.8939 318.818 39.7666C319.236 39.6394 319.695 39.5762 320.195 39.5762L320.581 39.5889Z" fill="black"/>
<path d="M262.358 43.6943L264.703 39.6855H266.681L263.271 45.4404V49.5176H261.444V45.4404L258.062 39.6855H260.054L262.358 43.6943Z" fill="black"/>
<path d="M287.321 39.6855V41.2812H284.321V49.5176H282.508V41.2812H279.508V39.6855H287.321Z" fill="black"/>
<path d="M297.511 41.2812H292.819V43.5176H296.583V45.1123H292.819V47.9219H297.66V49.5176H290.992V39.6855H297.511V41.2812Z" fill="black"/>
<path d="M303.832 39.6855L306.573 46.04C306.7 46.3309 306.8 46.5856 306.873 46.8037C306.955 47.0219 307.013 47.195 307.05 47.3223C307.085 47.4367 307.103 47.4956 307.104 47.499C307.104 47.499 307.123 47.4402 307.159 47.3223C307.196 47.195 307.251 47.0219 307.323 46.8037C307.405 46.5855 307.509 46.3309 307.637 46.04L310.392 39.6855H312.587V49.5176H310.773V44.2676C310.773 43.9495 310.778 43.6719 310.787 43.4355C310.796 43.1992 310.801 43.0169 310.801 42.8896C310.81 42.7671 310.813 42.7036 310.813 42.6992C310.812 42.7043 310.79 42.768 310.746 42.8896C310.701 43.0078 310.637 43.1763 310.555 43.3945C310.473 43.6127 310.368 43.8673 310.241 44.1582L307.95 49.5176H306.205L303.887 44.1582C303.759 43.8674 303.65 43.6127 303.56 43.3945C303.478 43.1763 303.414 43.0078 303.368 42.8896L303.313 42.6992C303.314 42.7031 303.318 42.7666 303.327 42.8896C303.336 43.0169 303.341 43.1992 303.341 43.4355C303.35 43.6719 303.354 43.9495 303.354 44.2676V49.5176H301.541V39.6855H303.832Z" fill="black"/>
<path fill-rule="evenodd" clip-rule="evenodd" d="M4.54004 39.6846C5.1946 39.6846 5.75871 39.8119 6.23145 40.0664C6.70388 40.3119 7.06782 40.6619 7.32227 41.1162C7.57662 41.5706 7.7041 42.1031 7.7041 42.7119C7.70398 43.2753 7.5767 43.7895 7.32227 44.2529C7.06776 44.7072 6.70391 45.0711 6.23145 45.3438C5.75875 45.6073 5.1945 45.7393 4.54004 45.7393H2.13965V49.5166H0.3125V39.6846H4.54004ZM2.13965 44.1299H4.26758C4.60377 44.1299 4.88608 44.0702 5.11328 43.9521C5.34919 43.8341 5.53103 43.666 5.6582 43.4482C5.78536 43.2303 5.84949 42.9843 5.84961 42.7119C5.84961 42.2848 5.713 41.943 5.44043 41.6885C5.20187 41.4579 4.87251 41.3287 4.45312 41.2998L4.26758 41.293H2.13965V44.1299Z" fill="black"/>
<path fill-rule="evenodd" clip-rule="evenodd" d="M15.0137 39.6846C15.6682 39.6846 16.2323 39.8027 16.7051 40.0391C17.1775 40.2754 17.5415 40.6163 17.7959 41.0615C18.0594 41.4978 18.1914 42.0256 18.1914 42.6436C18.1913 42.9978 18.1318 43.3344 18.0137 43.6523C17.8955 43.9704 17.7223 44.2573 17.4951 44.5117C17.2771 44.7659 17.0138 44.9752 16.7051 45.1387C17.0322 45.2932 17.287 45.5031 17.4688 45.7666C17.6503 46.0301 17.7861 46.3759 17.877 46.8027L18.2051 48.3574C18.2414 48.5571 18.291 48.7665 18.3545 48.9844C18.4272 49.1933 18.5097 49.3712 18.6006 49.5166H16.623C16.5504 49.4076 16.4861 49.2754 16.4316 49.1211C16.3862 48.9668 16.3551 48.8162 16.3369 48.6709L16.0771 47.1572C16.0135 46.7847 15.8953 46.4841 15.7227 46.2568C15.5591 46.0207 15.3271 45.8483 15.0273 45.7393C14.8022 45.6574 14.5284 45.6055 14.2061 45.585L13.8682 45.5752H12.6133V49.5166H10.7861V39.6846H15.0137ZM12.6133 43.9795H14.7549C15.0817 43.9795 15.3634 43.9299 15.5996 43.8301C15.8358 43.7211 16.0137 43.566 16.1318 43.3662C16.259 43.1573 16.3231 42.916 16.3232 42.6436C16.3232 42.2166 16.1864 41.8848 15.9141 41.6484C15.6754 41.4416 15.3493 41.3246 14.9365 41.2988L14.7549 41.293H12.6133V43.9795Z" fill="black"/>
<path fill-rule="evenodd" clip-rule="evenodd" d="M37.4814 39.6846C38.1631 39.6846 38.8044 39.789 39.4043 39.998C40.013 40.198 40.5493 40.5023 41.0127 40.9111C41.4761 41.3201 41.8399 41.8343 42.1035 42.4521C42.3761 43.0612 42.5127 43.7757 42.5127 44.5938C42.5126 45.4207 42.3762 46.1437 42.1035 46.7617C41.8399 47.3706 41.4762 47.8801 41.0127 48.2891C40.5492 48.6979 40.0131 49.0078 39.4043 49.2168C38.8044 49.4167 38.1631 49.5166 37.4814 49.5166H34.3037V39.6846H37.4814ZM36.1309 47.9072H37.3311C37.7583 47.9072 38.1677 47.8476 38.5586 47.7295C38.9493 47.6113 39.304 47.4253 39.6221 47.1709C39.9401 46.9074 40.1903 46.5663 40.3721 46.1484C40.5629 45.7213 40.6581 45.2025 40.6582 44.5938C40.6582 43.9849 40.5628 43.4708 40.3721 43.0527C40.1903 42.6346 39.9401 42.2975 39.6221 42.043C39.304 41.7795 38.9493 41.5889 38.5586 41.4707C38.2655 41.3821 37.962 41.326 37.6484 41.3037L37.3311 41.293H36.1309V47.9072Z" fill="black"/>
<path d="M75.9316 39.6846V41.2793H72.9316V49.5166H71.1182V41.2793H68.1182V39.6846H75.9316Z" fill="black"/>
<path d="M171.682 5.89844C172.137 5.89847 172.45 5.98968 172.619 6.17188C172.801 6.35408 172.892 6.57569 172.893 6.83594V7.26562C172.893 7.52606 172.801 7.74836 172.619 7.93066C172.45 8.11282 172.137 8.20407 171.682 8.2041C171.226 8.2041 170.907 8.11271 170.725 7.93066C170.555 7.74836 170.471 7.52606 170.471 7.26562V6.83594C170.471 6.57569 170.555 6.35408 170.725 6.17188C170.907 5.9898 171.226 5.89844 171.682 5.89844Z" fill="black"/>
<path fill-rule="evenodd" clip-rule="evenodd" d="M171.682 0C173.452 5.46229e-05 174.755 0.618523 175.588 1.85547C176.421 3.09244 176.838 4.82429 176.838 7.05078C176.838 9.27748 176.421 11.01 175.588 12.2471C174.755 13.484 173.452 14.1025 171.682 14.1025C170.796 14.1025 170.028 13.9462 169.377 13.6338C168.726 13.3083 168.186 12.8459 167.756 12.2471C167.339 11.6481 167.026 10.9124 166.817 10.04C166.622 9.16759 166.524 8.17064 166.524 7.05078C166.524 5.94412 166.622 4.95437 166.817 4.08203C167.026 3.19662 167.339 2.45443 167.756 1.85547C168.186 1.25662 168.726 0.800749 169.377 0.488281C170.028 0.162845 170.796 0 171.682 0ZM171.682 2.05078C170.744 2.05078 170.08 2.38948 169.689 3.06641C169.312 3.73044 169.123 4.65505 169.123 5.83984V8.2627C169.123 9.44745 169.312 10.3786 169.689 11.0557C170.08 11.7195 170.744 12.0518 171.682 12.0518C172.619 12.0517 173.277 11.7196 173.654 11.0557C174.045 10.3786 174.24 9.44745 174.24 8.2627V5.83984C174.24 4.65505 174.045 3.73044 173.654 3.06641C173.277 2.3894 172.619 2.05084 171.682 2.05078Z" fill="black"/>
<path d="M151.902 0C152.631 0 153.276 0.104248 153.836 0.3125C154.409 0.507824 154.892 0.787738 155.282 1.15234C155.673 1.50389 155.966 1.92714 156.161 2.42188C156.369 2.91662 156.474 3.4571 156.474 4.04297C156.474 4.60272 156.382 5.11728 156.2 5.58594C156.031 6.05454 155.79 6.50403 155.478 6.93359C155.165 7.35029 154.793 7.75486 154.363 8.14551C153.947 8.53601 153.491 8.92688 152.996 9.31738L150.027 11.7197H156.845V13.8682H147.234V11.4854L151.609 7.75391C152.339 7.12889 152.879 6.56251 153.23 6.05469C153.582 5.53384 153.758 4.98048 153.758 4.39453V4.19922C153.758 3.54827 153.575 3.05336 153.211 2.71484C152.846 2.37646 152.338 2.20703 151.688 2.20703C150.971 2.20708 150.424 2.40237 150.047 2.79297C149.669 3.18357 149.396 3.66542 149.227 4.23828L147 3.39844C147.143 2.95577 147.345 2.53252 147.605 2.12891C147.879 1.71226 148.211 1.34765 148.602 1.03516C149.005 0.722667 149.481 0.475267 150.027 0.292969C150.574 0.0976726 151.199 2.82975e-05 151.902 0Z" fill="black"/>
</svg>
