<svg width="120" height="120" viewBox="0 0 120 120" fill="none" xmlns="http://www.w3.org/2000/svg">
<rect width="120" height="120" fill="black"/>
<rect width="120" height="120" fill="white" fill-opacity="0.1"/>
<path fill-rule="evenodd" clip-rule="evenodd" d="M38.7579 48.75C39.834 48.75 40.8161 48.8447 41.7023 49.0338C42.588 49.2228 43.3473 49.5377 43.9801 49.9786C44.6131 50.3988 45.0982 50.9672 45.4358 51.6815C45.7943 52.3957 45.9741 53.2773 45.9741 54.3274C45.9741 55.4618 45.7106 56.4074 45.1831 57.1637C44.6769 57.9198 43.9176 58.5391 42.9053 59.0222C44.2976 59.4214 45.332 60.1269 46.0071 61.1353C46.7029 62.1225 47.0508 63.3207 47.0508 64.7278C47.0507 65.8617 46.8289 66.8486 46.3861 67.6886C45.9431 68.5079 45.342 69.1812 44.5825 69.7064C43.8442 70.2315 42.9893 70.6189 42.019 70.871C41.0696 71.1231 40.0874 71.25 39.0747 71.25H28.125V48.75H38.7579ZM33.0945 67.4048H38.41C38.8953 67.4048 39.3604 67.3643 39.8035 67.2803C40.2464 67.1752 40.636 67.0161 40.9735 66.806C41.3111 66.5749 41.5746 66.2705 41.7645 65.8923C41.9754 65.5143 42.0812 65.0319 42.0813 64.444C42.0813 63.2885 41.7539 62.4681 41.0999 61.9849C40.4459 61.4811 39.5809 61.2286 38.5052 61.2286H33.0945V67.4048ZM33.0945 57.8577H38.1262C39.0117 57.8576 39.7394 57.6475 40.3088 57.2278C40.8785 56.8077 41.1639 56.1241 41.1639 55.1788C41.1639 54.6536 41.0682 54.2222 40.8783 53.8861C40.6885 53.5505 40.4363 53.2877 40.1202 53.0988C39.8038 52.9097 39.4343 52.7828 39.0125 52.7197C38.712 52.6567 38.3991 52.6183 38.075 52.6025L37.7454 52.5952H33.0945V57.8577Z" fill="#F5F5F5"/>
<path d="M56.239 48.75V67.0898H66.4984V71.25H51.2695V48.75H56.239Z" fill="#F5F5F5"/>
<path d="M75.6866 48.75V58.0774L84.516 48.75H90.7196L81.8903 57.6361L91.5747 71.25H85.34L78.5358 61.1353L75.6866 64.0027V71.25H70.719V48.75H75.6866Z" fill="#F5F5F5"/>
</svg>
