<svg width="120" height="120" viewBox="0 0 120 120" fill="none" xmlns="http://www.w3.org/2000/svg">
<rect width="120" height="120" fill="#40A8FD"/>
<path d="M106.004 64.0736C105.652 64.0736 105.3 64.3055 104.713 64.7694C103.539 65.5811 102.13 66.8566 100.721 66.8566C99.1947 66.8566 98.2555 66.1608 98.4903 64.1896C98.7251 62.1024 100.017 58.7397 100.838 56.8844C101.543 55.377 102.247 54.7972 103.891 54.7972C104.713 54.7972 105.535 53.8696 105.652 52.594C105.77 52.1302 105.3 51.8983 104.83 51.8983C102.834 51.8983 102.717 51.4345 102.717 50.6228C102.834 49.5792 104.126 46.9122 104.361 45.4048C104.478 44.941 104.126 44.3612 103.421 44.3612C102.834 44.3612 102.247 44.7091 101.425 45.7527C99.547 48.3037 95.7899 51.7824 92.9721 51.7824C90.2717 51.7824 89.6847 50.6228 89.9195 48.8835C90.1543 47.1441 91.6806 43.2017 93.3243 43.2017C94.8506 43.2017 92.9721 47.1441 96.3769 47.1441C98.2555 47.1441 99.8992 45.8686 100.134 43.6655C100.486 41.3464 98.4903 39.3751 94.2636 39.3751C89.9195 39.3751 84.0491 41.1145 80.6443 50.159C80.1747 51.4345 79.705 51.8983 78.4136 51.8983C77.8265 51.8983 76.8873 52.9419 76.6524 53.8696C76.535 54.3334 76.8873 54.7972 77.5917 54.7972C78.531 54.7972 78.8832 55.1451 78.7658 55.9568C78.6484 56.5365 76.3002 65.4651 75.8306 65.9289C75.361 66.3927 74.5391 66.8566 73.5998 66.8566C72.4258 66.8566 71.4865 65.9289 71.7213 64.1896C72.4258 59.0876 75.3609 54.1015 75.5958 52.4781C75.7132 51.7824 75.3609 51.5504 74.7739 51.5504C73.2476 51.5504 70.3124 52.826 69.1383 52.826C68.0817 52.826 67.2598 51.5504 63.7376 51.5504C59.8631 51.5504 56.8105 52.594 54.4624 54.4493C54.4624 52.826 53.5231 51.8983 51.762 51.8983C48.2398 51.8983 45.7742 55.8408 45.422 55.8408C45.0698 55.8408 46.009 54.1015 46.1264 53.2898C46.2438 52.2462 45.5394 51.5504 44.1305 51.5504C40.3734 51.5504 36.6164 52.4781 36.499 53.9855C36.3816 54.7972 36.8512 54.9132 36.7338 56.0727C36.499 58.044 34.1508 64.5375 33.916 64.8853C33.6812 65.2332 29.5719 68.0161 26.8715 68.0161C24.1712 68.0161 21.823 66.2768 22.4101 62.4503C22.9971 57.812 26.2845 54.4493 28.163 54.4493C28.9849 54.4493 29.3371 54.7972 29.2197 55.261C29.1023 56.0727 28.0456 56.6525 27.8108 58.044C27.6934 59.3195 28.6327 60.1312 30.159 60.1312C32.2723 60.1312 34.2682 58.6237 34.6205 55.9568C34.9727 53.5217 33.4464 51.4345 28.3979 51.4345C20.1793 51.4345 14.1915 56.8844 13.2523 63.6098C12.5478 69.0597 16.5397 72.1905 22.6449 72.1905C27.2238 72.1905 30.5112 70.3352 32.8593 68.4799C32.6245 69.2916 32.3897 70.1033 32.2723 70.5671C32.1549 71.6107 32.6245 71.9586 33.4464 71.9586C34.3856 71.9586 37.086 71.6107 38.9645 71.6107C39.9038 71.6107 40.4908 71.3788 40.6083 70.2193C40.9605 67.6683 43.1912 62.3343 44.6001 60.1312C45.7742 58.2759 46.7135 57.4642 47.0657 57.4642C47.4179 57.4642 47.7701 59.7833 49.6487 59.7833C49.8835 59.7833 50.0009 59.7833 50.2357 59.7833C49.5312 61.2907 49.0616 62.7981 48.9442 64.3055C48.2398 69.2916 51.0575 71.8427 54.932 71.8427C59.7457 71.8427 63.6202 68.364 63.6202 68.364C63.6202 68.364 64.3246 71.8427 68.1991 71.8427C70.782 71.8427 72.8954 70.915 74.6565 69.7555C74.0695 71.3788 73.5998 72.7703 73.1302 73.9299C72.1909 76.3649 71.1343 77.8723 70.0776 79.0319C69.608 79.4957 69.0209 80.0755 68.9035 80.5393C68.7861 81.235 69.1383 81.467 70.0776 81.467C72.1909 81.467 79.8224 78.3362 81.701 73.582C83.2273 69.8714 85.6928 62.7981 87.1017 58.5078C87.9236 56.1887 90.1543 53.7536 92.6199 55.0291C95.0855 56.3046 89.9195 61.5226 89.3325 65.697C88.8628 69.1757 90.5066 71.9586 95.2029 71.9586C99.3121 71.9586 104.126 68.248 106.122 66.0449C106.591 65.5811 106.826 65.1172 106.826 64.7694C106.826 64.4215 106.474 64.0736 106.004 64.0736ZM65.9683 56.1887C65.6161 58.7397 64.0898 63.03 63.1505 64.6534C62.0939 66.6247 60.5676 67.6683 59.2761 67.6683C57.8672 67.6683 57.2802 66.2768 57.3976 64.6534C57.8672 61.0588 60.4502 54.3334 64.2072 54.3334C65.6161 54.3334 66.0857 55.0291 65.9683 56.1887Z" fill="white"/>
</svg>
