<svg preserveAspectRatio="none" width="100%" height="100%" overflow="visible" style="display: block;" viewBox="0 0 58.1571 46.9747" fill="none" xmlns="http://www.w3.org/2000/svg">
<g id="Group 185">
<path id="Vector" d="M29.0782 0.132812C45.0676 0.132812 58.0244 10.6308 58.0245 23.4873C58.0245 36.3438 45.0676 46.8418 29.0782 46.8418C13.0889 46.8416 0.132855 36.3437 0.132855 23.4873C0.13288 10.6309 13.0889 0.132981 29.0782 0.132812ZM17.4405 35.0039C14.1627 35.4996 11.2651 36.2027 8.94926 37.0859L8.74907 37.1631L8.90629 37.3076C13.0281 41.1175 18.8158 43.7434 25.3555 44.4775L25.7725 44.5244L25.459 44.2461C23.1821 42.2271 20.0239 39.0308 17.5811 35.0723L17.5723 35.0596L17.5616 35.0488L17.5547 35.041L17.5069 34.9932L17.4405 35.0039ZM40.5616 35.0947C38.1187 39.0386 34.9673 42.2271 32.6905 44.2461L32.378 44.5234L32.794 44.4775C39.3191 43.7508 45.1 41.125 49.2217 37.3301L49.3799 37.1846L49.1788 37.1084C46.8925 36.2399 43.9799 35.529 40.6944 35.0332L40.6075 35.0205L40.5616 35.0947ZM27.7911 34.2041C25.18 34.2411 22.6423 34.3973 20.2598 34.6562L20.043 34.6797L20.1641 34.8613C22.6256 38.5609 25.7083 41.5173 27.7071 43.2422L27.9258 43.4316V34.2021L27.7911 34.2041ZM30.2383 43.4316L30.4581 43.2422C32.457 41.5172 35.524 38.568 37.9854 34.876L38.1065 34.6943L37.8897 34.6709C35.4925 34.4045 32.9624 34.2411 30.3731 34.2041L30.2383 34.2021V43.4316ZM44.1836 24.6748C43.9857 27.5853 43.0829 30.3305 41.8184 32.8447L41.7373 33.0059L41.9161 33.0352C45.4397 33.6175 48.5231 34.4428 50.918 35.4639L51.0079 35.502L51.0713 35.4287C53.7242 32.3374 55.3851 28.662 55.668 24.6934L55.6778 24.5508H44.1914L44.1836 24.6748ZM2.4893 24.7012C2.77233 28.6621 4.42589 32.3292 7.07133 35.4131L7.13383 35.4873L7.22368 35.4492C9.63346 34.428 12.7172 33.6107 16.2413 33.0283L16.419 32.999L16.3379 32.8379C15.0808 30.331 14.1795 27.5856 13.9815 24.6826L13.9727 24.5586H2.47953L2.4893 24.7012ZM16.3086 24.709C16.5246 27.502 17.4852 30.164 18.7911 32.583L18.834 32.6631L18.9248 32.6523C21.7113 32.3059 24.7049 32.1068 27.795 32.0625L27.9258 32.0605V24.6914H27.793V24.5654H16.2979L16.3086 24.709ZM30.2383 31.9219H30.3711L30.3692 32.0479C33.4592 32.0921 36.4457 32.298 39.2325 32.6445L39.3223 32.6562L39.3653 32.5762C40.679 30.1566 41.6321 27.4945 41.8555 24.6943L41.8672 24.5508H30.2383V31.9219ZM18.7989 14.3984C17.4853 16.8178 16.5321 19.4798 16.3086 22.2725L16.2969 22.416H27.9258V15.1865L28.126 15.1904L27.8946 14.959L27.8877 14.9512L27.6602 14.7246V14.916C24.6203 14.8678 21.6755 14.6712 18.9317 14.3301L18.8418 14.3184L18.7989 14.3984ZM7.07133 11.5537C4.42575 14.6377 2.77224 18.3055 2.4893 22.2666L2.47953 22.4092H13.9727L13.9815 22.2852C14.1794 19.3821 15.0808 16.6368 16.3379 14.1299L16.419 13.9687L16.2413 13.9395C12.7101 13.3571 9.62632 12.5315 7.22368 11.5176L7.13383 11.4805L7.07133 11.5537ZM50.919 11.4961C48.5165 12.5173 45.4398 13.3424 41.9161 13.9248L41.7373 13.9541L41.8184 14.1152C43.0829 16.6295 43.9857 19.3819 44.1836 22.2852L44.1914 22.4092H55.6778L55.668 22.2666C55.3851 18.298 53.7242 14.6226 51.0713 11.5312L51.0079 11.458L50.919 11.4961ZM39.2325 14.3076C36.4456 14.6541 33.4592 14.861 30.3692 14.9053L30.2383 14.9072V22.2764H30.3711V22.4014H41.8672L41.8555 22.2588C41.6395 19.4656 40.6789 16.7953 39.3653 14.376L39.3223 14.2969L39.2325 14.3076ZM30.2383 12.7725L30.3731 12.7705C32.9619 12.7261 35.4922 12.5701 37.8897 12.3037L38.1065 12.2803L37.9854 12.0986C35.524 8.40656 32.457 5.45742 30.4581 3.73242L30.2383 3.54297V12.7725ZM27.7071 3.73242C25.7081 5.45742 22.6323 8.41376 20.1709 12.1133L20.0498 12.2959L20.2676 12.3193C22.6498 12.5709 25.18 12.7257 27.7911 12.7627L27.9258 12.7646V3.54297L27.7071 3.73242ZM25.3633 2.48242C18.8234 3.2165 13.035 5.84239 8.91313 9.65234L8.7559 9.79688L8.9561 9.87305C11.2648 10.7564 14.1703 11.4603 17.4483 11.9561L17.5147 11.9658L17.5801 11.9004L17.5879 11.8867C20.0232 7.92849 23.1889 4.73294 25.4659 2.71387L25.7803 2.43555L25.3633 2.48242ZM32.6983 2.72168C34.975 4.73317 38.1331 7.92123 40.5684 11.8721L40.6153 11.9473L40.7022 11.9336C43.9798 11.4379 46.9 10.7344 49.1866 9.8584L49.3868 9.78223L49.2286 9.63672C45.1068 5.84186 39.326 3.2169 32.8008 2.49023L32.3838 2.44336L32.6983 2.72168Z" fill="var(--fill-0, black)" stroke="var(--stroke-0, black)" stroke-width="0.265623"/>
</g>
</svg>
