<svg width="300.14" height="59" overflow="visible" style="display: block;" viewBox="0 0 300.14 59" fill="none" xmlns="http://www.w3.org/2000/svg">
<g id="Flattened">
<path d="M50.4951 33.2794C50.495 48.087 39.7571 58.9999 24.7306 59H0V45.08H24.7306C28.3681 45.0799 31.3064 43.9741 33.332 41.8799C35.3525 39.7908 36.3658 36.8204 36.3658 33.2794V30.1312H50.4951V33.2794Z" fill="var(--fill-0, white)"/>
<path fill-rule="evenodd" clip-rule="evenodd" d="M158.051 14.4472C163.153 14.4204 168.255 14.3865 173.357 14.4438C178.333 14.4993 182.271 18.2328 182.456 23.1765C182.54 30.4136 182.459 37.6514 182.459 44.8887H175.721L175.723 36.7039C169.324 36.7039 162.925 36.705 156.526 36.705V44.9042H149.746C149.746 37.6643 149.738 30.4242 149.749 23.1843C149.757 18.4498 153.217 14.8705 158.082 14.4789L158.051 14.4472ZM172.993 20.7894C168.015 20.7247 164.36 20.7851 159.396 20.7868H159.395C157.854 20.7885 156.526 21.5132 156.526 23.1849V29.8797C162.925 29.8797 169.325 29.8792 175.724 29.8791C175.727 27.6796 175.754 25.375 175.719 23.1958C175.64 21.7633 174.503 20.9082 173.134 20.7981L173.001 20.7897H172.998L172.995 20.7894H172.993Z" fill="var(--fill-0, white)"/>
<path d="M104.983 14.4112V20.7791C98.3884 20.7791 91.7941 20.7969 85.2 20.7673L82.3738 20.7517C78.1073 20.7231 78.1154 26.3811 82.3683 26.4016H82.3741C86.9174 26.3706 90.9938 26.3999 95.5438 26.4016H95.5476L95.5513 26.4019C108.12 26.6917 107.435 44.9385 94.9112 44.904L72.2856 44.9028V38.5312C79.8254 38.5312 87.3653 38.5077 94.9051 38.5591C98.9496 38.5864 99.3126 33.1434 95.2073 32.9135L95.0631 32.9081H95.0573C90.4579 32.8272 86.3076 32.915 81.7249 32.9081H81.7215C69.0761 32.7538 69.8731 14.3752 82.3683 14.4101L104.983 14.4112Z" fill="var(--fill-0, white)"/>
<path d="M260.897 14.4112V20.7791C254.303 20.7791 247.709 20.8059 241.114 20.7707L238.288 20.7517C234.022 20.7231 234.03 26.381 238.283 26.4016H238.289C242.832 26.3706 246.909 26.3999 251.459 26.4016H251.462L251.466 26.4019C264.035 26.692 263.35 44.9385 250.826 44.904L228.2 44.9028V38.5312C235.74 38.5312 243.28 38.5077 250.82 38.5591C254.865 38.5862 255.227 33.1433 251.122 32.9135L250.978 32.9081H250.972C246.373 32.8272 242.222 32.915 237.64 32.9081H237.636C225.063 32.7546 225.723 14.3751 238.283 14.4101L260.897 14.4112Z" fill="var(--fill-0, white)"/>
<path d="M300.14 14.4112V20.7791C293.546 20.7791 286.951 20.7969 280.357 20.7673L277.531 20.7517C273.265 20.7231 273.273 26.3811 277.526 26.4016H277.531C282.075 26.3706 286.151 26.3999 290.701 26.4016H290.705L290.709 26.4019C303.277 26.6917 302.593 44.9386 290.068 44.904L267.443 44.9028V38.5312C274.983 38.5312 282.523 38.5077 290.063 38.5591C294.107 38.5863 294.47 33.1435 290.365 32.9135L290.221 32.9081H290.215C285.615 32.8272 281.465 32.915 276.882 32.9081H276.879C264.233 32.7538 265.03 14.3752 277.526 14.4101L300.14 14.4112Z" fill="var(--fill-0, white)"/>
<path d="M195.777 14.4098V36.0819C195.777 37.751 197.093 38.5256 198.646 38.5272C203.112 38.5288 207.578 38.5298 212.044 38.5272C213.62 38.4877 214.973 37.8158 214.973 36.0819C214.979 28.863 214.973 21.6442 214.973 14.4253H221.71C221.717 21.6442 221.714 28.8631 221.71 36.0819C221.705 41.0729 217.917 44.8109 212.608 44.87C208.982 44.9106 205.355 44.9042 201.729 44.8881L198.103 44.8702H198.101C192.905 44.8121 189.128 40.9408 189.003 36.0903V36.0862C188.907 28.8612 188.991 21.6351 188.998 14.4098H195.777Z" fill="var(--fill-0, white)"/>
<path d="M144.402 14.3562V20.9153H131.405C131.405 28.8937 131.402 36.872 131.402 44.8504H124.684L124.68 20.9153H111.684V14.3562H144.402Z" fill="var(--fill-0, white)"/>
<path d="M50.4951 13.92H25.7644C22.1268 13.92 19.1883 15.0258 17.1627 17.1201C15.1422 19.2093 14.1292 22.1798 14.1292 25.7209V28.8682H0V25.7209C3.26422e-06 10.9132 10.738 5.49258e-05 25.7644 0H50.4951V13.92Z" fill="var(--fill-0, white)"/>
</g>
</svg>
