<svg preserveAspectRatio="xMidYMid meet" width="436" height="436" overflow="visible" style="display: block;" viewBox="0 0 436 436" fill="none" xmlns="http://www.w3.org/2000/svg">
<g id="Union">
<path fill-rule="evenodd" clip-rule="evenodd" d="M134.564 95.3542C156.22 95.3542 173.776 112.91 173.776 134.566C173.776 156.222 156.22 173.778 134.564 173.778C112.908 173.778 95.3524 156.222 95.3524 134.566C95.3524 112.91 112.908 95.3542 134.564 95.3542ZM134.564 102.263C116.724 102.263 102.261 116.726 102.261 134.566C102.261 152.407 116.724 166.869 134.564 166.869C152.405 166.869 166.867 152.407 166.868 134.566C166.868 116.725 152.405 102.263 134.564 102.263Z" fill="var(--fill-0, #B4B4C6)"/>
<path fill-rule="evenodd" clip-rule="evenodd" d="M425.636 0C431.359 2.35625e-05 435.999 4.6397 435.999 10.3631V289.433C436 289.488 436 289.543 435.999 289.598V425.637C435.999 431.36 431.359 436 425.636 436H51.1735C51.1458 436 51.1182 436 51.0905 436H10.363C4.63971 436 0 431.36 0 425.637V10.3631C5.0063e-05 4.63975 4.6397 4.34421e-05 10.363 0H425.636ZM59.4721 429.091H425.636C427.544 429.091 429.09 427.544 429.09 425.637V290.945L313.354 175.209L59.4721 429.091ZM10.363 6.90859C8.45532 6.90863 6.90862 8.45531 6.90857 10.3631V425.637C6.90857 427.544 8.45527 429.091 10.363 429.091H49.7018L310.911 167.881L310.973 167.821C311.614 167.211 312.466 166.869 313.354 166.869C314.27 166.869 315.149 167.233 315.796 167.881L429.09 281.175V10.3631C429.09 8.45532 427.544 6.90861 425.636 6.90859H10.363Z" fill="var(--fill-0, #B4B4C6)"/>
</g>
</svg>
