<svg width="251" height="50" viewBox="0 0 251 50" fill="none" xmlns="http://www.w3.org/2000/svg">
<path d="M42.0792 28.2029C42.0791 40.7517 33.1309 49.9999 20.6089 50H0V38.2034H20.6089C23.6401 38.2033 26.0887 37.2662 27.7767 35.4915C29.4604 33.721 30.3048 31.2037 30.3049 28.2029V25.5349H42.0792V28.2029Z" fill="white"/>
<path fill-rule="evenodd" clip-rule="evenodd" d="M131.709 12.2434C135.961 12.2207 140.212 12.192 144.464 12.2405C148.611 12.2875 151.893 15.4515 152.046 19.6411C152.116 25.7742 152.049 31.908 152.049 38.0413H146.434L146.436 31.105C141.103 31.105 135.771 31.1059 130.438 31.106V38.0544H124.789C124.789 31.9189 124.782 25.7832 124.791 19.6477C124.798 15.6354 127.681 12.6021 131.735 12.2703L131.709 12.2434ZM144.161 17.6182C140.013 17.5633 136.967 17.6145 132.83 17.616H132.829C131.545 17.6173 130.438 18.2316 130.438 19.6482V25.3218C135.771 25.3218 141.104 25.3213 146.437 25.3213C146.439 23.4573 146.462 21.5042 146.432 19.6575C146.367 18.4435 145.419 17.7188 144.278 17.6255L144.168 17.6184H144.165L144.163 17.6182H144.161Z" fill="white"/>
<path d="M87.4855 12.2129V17.6094C81.9903 17.6094 76.4951 17.6245 71 17.5994L68.6449 17.5862C65.0894 17.5619 65.0961 22.3568 68.6403 22.3743H68.6451C72.4312 22.348 75.8282 22.3728 79.6198 22.3743H79.623L79.6261 22.3745C90.1001 22.6201 89.5295 38.0835 79.0926 38.0542L60.238 38.0532V32.6536C66.5211 32.6536 72.8044 32.6337 79.0875 32.6772C82.458 32.7003 82.7605 28.0876 79.3394 27.8928L79.2193 27.8882H79.2144C75.3816 27.8196 71.923 27.8941 68.1041 27.8882H68.1012C57.5634 27.7575 58.2276 12.1824 68.6403 12.2119L87.4855 12.2129Z" fill="white"/>
<path d="M217.414 12.2129V17.6094C211.919 17.6094 206.424 17.6321 200.929 17.6023L198.574 17.5862C195.018 17.562 195.025 22.3568 198.569 22.3743H198.574C202.36 22.348 205.757 22.3728 209.549 22.3743H209.552L209.555 22.3745C220.029 22.6203 219.458 38.0834 209.021 38.0542L190.167 38.0532V32.6536C196.45 32.6536 202.733 32.6337 209.017 32.6772C212.387 32.7002 212.689 28.0875 209.268 27.8928L209.148 27.8882H209.143C205.311 27.8196 201.852 27.8941 198.033 27.8882H198.03C187.553 27.7582 188.103 12.1823 198.569 12.2119L217.414 12.2129Z" fill="white"/>
<path d="M250.117 12.2129V17.6094C244.621 17.6094 239.126 17.6245 233.631 17.5994L231.276 17.5862C227.72 17.5619 227.727 22.3568 231.271 22.3743H231.276C235.062 22.348 238.459 22.3728 242.251 22.3743H242.254L242.257 22.3745C252.731 22.6201 252.161 38.0836 241.724 38.0542L222.869 38.0532V32.6536C229.152 32.6536 235.436 32.6337 241.719 32.6772C245.089 32.7003 245.392 28.0877 241.971 27.8928L241.851 27.8882H241.846C238.013 27.8196 234.554 27.8941 230.735 27.8882H230.732C220.194 27.7575 220.859 12.1824 231.271 12.2119L250.117 12.2129Z" fill="white"/>
<path d="M163.148 12.2117V30.5779C163.148 31.9924 164.244 32.6488 165.539 32.6501C169.26 32.6515 172.982 32.6524 176.703 32.6501C178.017 32.6167 179.144 32.0473 179.144 30.5779C179.149 24.4602 179.144 18.3425 179.144 12.2249H184.759C184.765 18.3425 184.761 24.4602 184.759 30.5779C184.754 34.8075 181.597 37.9753 177.173 38.0254C174.151 38.0599 171.129 38.0544 168.107 38.0408L165.085 38.0256H165.084C160.754 37.9763 157.606 34.6956 157.503 30.585V30.5815C157.423 24.4587 157.492 18.3348 157.498 12.2117H163.148Z" fill="white"/>
<path d="M120.335 12.1663V17.7249H109.504C109.504 24.4862 109.501 31.2475 109.501 38.0088H103.903L103.9 17.7249H93.0698V12.1663H120.335Z" fill="white"/>
<path d="M42.0792 11.7966H21.4704C18.439 11.7967 15.9903 12.7337 14.3023 14.5085C12.6185 16.279 11.7743 18.7965 11.7743 21.7974V24.4646H0V21.7974C2.72018e-06 9.24844 8.9483 4.65473e-05 21.4704 0H42.0792V11.7966Z" fill="white"/>
</svg>
