<svg width="314" height="108" viewBox="0 0 314 108" fill="none" xmlns="http://www.w3.org/2000/svg">
<path fill-rule="evenodd" clip-rule="evenodd" d="M170.158 93.3369C169.338 93.9098 168.602 94.4632 167.951 94.9971C167.313 95.5179 166.753 96.0518 166.271 96.5986C165.803 97.1454 165.406 97.7185 165.08 98.3174C164.768 98.9032 164.533 99.548 164.377 100.251L164.533 100.29C164.663 100.03 164.82 99.7821 165.002 99.5479C165.184 99.3006 165.399 99.0855 165.646 98.9033C165.907 98.7081 166.2 98.5582 166.525 98.4541C166.864 98.337 167.255 98.2783 167.697 98.2783L167.91 98.2832C168.403 98.3046 168.866 98.4004 169.299 98.5713C169.794 98.7666 170.217 99.0531 170.568 99.4307C170.933 99.7952 171.219 100.238 171.428 100.759C171.636 101.28 171.74 101.866 171.74 102.518C171.74 103.208 171.623 103.839 171.389 104.412C171.154 104.985 170.816 105.48 170.373 105.896C169.943 106.313 169.416 106.639 168.791 106.873C168.179 107.094 167.495 107.205 166.74 107.205C165.946 107.205 165.236 107.081 164.611 106.834C163.999 106.574 163.478 106.215 163.049 105.76C162.619 105.291 162.286 104.731 162.052 104.08C161.83 103.416 161.72 102.674 161.72 101.854C161.72 100.877 161.869 99.9581 162.169 99.0986C162.468 98.2263 162.854 97.432 163.322 96.7158C163.804 95.9868 164.338 95.3356 164.924 94.7627C165.51 94.1898 166.096 93.7145 166.682 93.3369H170.158ZM166.721 100.251C165.979 100.251 165.399 100.453 164.982 100.856C164.566 101.26 164.357 101.84 164.357 102.596V102.83C164.357 103.585 164.559 104.171 164.963 104.588C165.367 104.991 165.953 105.193 166.721 105.193C167.502 105.193 168.094 104.991 168.498 104.588C168.902 104.171 169.103 103.585 169.104 102.83V102.596C169.104 101.84 168.895 101.26 168.479 100.856C168.075 100.453 167.489 100.251 166.721 100.251Z" fill="#131415"/>
<path d="M146.902 93.1025C147.631 93.1025 148.276 93.2068 148.836 93.415C149.409 93.6104 149.892 93.8903 150.282 94.2549C150.673 94.6064 150.966 95.0297 151.161 95.5244C151.369 96.0192 151.474 96.5596 151.474 97.1455C151.474 97.7053 151.382 98.2198 151.2 98.6885C151.031 99.1571 150.79 99.6066 150.478 100.036C150.165 100.453 149.793 100.857 149.363 101.248C148.947 101.639 148.491 102.029 147.996 102.42L145.027 104.822H151.845V106.971H142.234V104.588L146.609 100.856C147.339 100.231 147.879 99.6651 148.23 99.1572C148.582 98.6364 148.758 98.083 148.758 97.4971V97.3018C148.758 96.6508 148.575 96.1559 148.211 95.8174C147.846 95.479 147.338 95.3096 146.688 95.3096C145.971 95.3096 145.424 95.5049 145.047 95.8955C144.669 96.2861 144.396 96.768 144.227 97.3408L142 96.501C142.143 96.0583 142.345 95.6351 142.605 95.2314C142.879 94.8148 143.211 94.4502 143.602 94.1377C144.005 93.8252 144.481 93.5778 145.027 93.3955C145.574 93.2002 146.199 93.1026 146.902 93.1025Z" fill="#131415"/>
<path d="M102.01 25C105.791 25 108.865 26.2115 111.229 28.6348C112.384 29.8207 113.277 31.2397 113.907 32.8896C114.59 34.4881 114.932 36.2417 114.932 38.1494V41.2432H106.895V38.6133C106.894 37.0664 106.449 35.7252 105.556 34.5908C104.719 33.5277 103.605 32.9631 102.214 32.8965L101.933 32.8896C99.9366 32.8896 98.5959 33.5085 97.9131 34.7461C97.283 35.9319 96.9688 37.4528 96.9688 39.3086V67.4648C96.9688 69.063 97.3095 70.4036 97.9922 71.4863C98.7276 72.5691 100.015 73.1104 101.854 73.1104C102.378 73.1103 102.93 73.0334 103.507 72.8789C104.137 72.6726 104.716 72.3627 105.241 71.9502C105.714 71.5378 106.108 70.9706 106.423 70.249C106.738 69.5271 106.895 68.6238 106.895 67.541V64.835H114.932V68.2373C114.932 69.9388 114.59 71.5635 113.907 73.1104C113.277 74.6056 112.384 75.9469 111.229 77.1328C110.073 78.3187 108.707 79.2733 107.132 79.9951C105.609 80.6654 103.954 81 102.168 81C100.645 81 99.0952 80.7943 97.5195 80.3818C95.944 79.9694 94.5261 79.2469 93.2656 78.2158C92.005 77.1845 90.9537 75.869 90.1133 74.2705C89.3255 72.6205 88.9317 70.5322 88.9316 68.0059V37.6855C88.9316 35.8808 89.2466 34.2042 89.877 32.6572C90.5072 31.1104 91.4002 29.7691 92.5557 28.6348C93.7112 27.5005 95.0777 26.6236 96.6533 26.0049C98.2812 25.3348 100.067 25.0001 102.01 25Z" fill="#131415"/>
<path d="M212.182 25.0039C213.993 25.0462 215.646 25.4063 217.141 26.083C218.786 26.8049 220.201 27.7584 221.384 28.9443C223.749 31.4192 224.931 34.2555 224.932 37.4521V41.3203H217.062V39.542C217.062 37.7373 216.626 36.1895 215.752 34.9004C214.929 33.5599 213.514 32.8897 211.509 32.8896C210.429 32.8897 209.554 33.0955 208.886 33.5078C208.217 33.9203 207.678 34.437 207.267 35.0557C206.855 35.726 206.571 36.4994 206.417 37.376C206.263 38.2009 206.187 39.0779 206.187 40.0059C206.187 41.0884 206.211 41.9911 206.263 42.7129C206.366 43.4346 206.572 44.0794 206.881 44.6465C207.189 45.2135 207.626 45.7038 208.191 46.1162C208.808 46.5286 209.632 46.9411 210.66 47.3535L216.677 49.751C218.425 50.4213 219.84 51.2213 220.92 52.1494C222 53.0259 222.849 54.0574 223.466 55.2432C224.031 56.4806 224.417 57.8988 224.623 59.4971C224.829 61.044 224.932 62.8239 224.932 64.835C224.932 67.155 224.7 69.3203 224.237 71.3311C223.774 73.2905 223.029 74.9671 222 76.3594C220.92 77.8031 219.505 78.9367 217.757 79.7617C216.008 80.5867 213.874 81 211.354 81C209.452 81 207.677 80.6654 206.031 79.9951C204.386 79.3248 202.972 78.3959 201.789 77.21C200.606 76.024 199.655 74.6572 198.935 73.1104C198.266 71.5119 197.932 69.7839 197.932 67.9277V64.9893H205.801V67.4648C205.801 68.9083 206.212 70.2234 207.034 71.4092C207.908 72.5435 209.349 73.1103 211.354 73.1104C212.691 73.1103 213.72 72.93 214.439 72.5693C215.211 72.1568 215.803 71.5891 216.215 70.8672C216.626 70.1454 216.858 69.294 216.909 68.3145C217.012 67.2833 217.062 66.1485 217.062 64.9111C217.062 63.4675 217.012 62.2816 216.909 61.3535C216.806 60.4254 216.6 59.6776 216.291 59.1104C215.931 58.5433 215.442 58.0796 214.825 57.7188C214.26 57.3579 213.489 56.971 212.512 56.5586L206.881 54.2373C203.487 52.845 201.197 51.015 200.014 48.7461C198.882 46.4258 198.317 43.5376 198.317 40.083C198.317 38.0205 198.6 36.0604 199.166 34.2041C199.732 32.348 200.581 30.7498 201.712 29.4092C202.792 28.0686 204.155 27.0117 205.801 26.2383C207.498 25.4133 209.503 25.0001 211.817 25L212.182 25.0039Z" fill="#131415"/>
<path fill-rule="evenodd" clip-rule="evenodd" d="M156.432 28.5C173.25 28.5 186.932 39.4865 186.932 53C186.932 66.5135 173.25 77.5 156.432 77.5C139.613 77.5 125.932 66.5135 125.932 53C125.932 39.4865 139.613 28.5 156.432 28.5ZM144.245 65.1494C140.813 65.6656 137.784 66.3977 135.367 67.3145C139.667 71.2668 145.71 73.9941 152.543 74.7568C150.149 72.6458 146.825 69.3022 144.253 65.1572L144.245 65.1494ZM168.595 65.1807C166.023 69.3102 162.706 72.6458 160.312 74.7568C167.13 74.0018 173.165 71.2748 177.465 67.3379C175.079 66.4365 172.034 65.6969 168.595 65.1807ZM155.084 64.3174C152.349 64.3559 149.692 64.5184 147.197 64.7881C149.769 68.6324 152.992 71.7059 155.084 73.501V64.3174ZM157.787 73.501C159.879 71.7058 163.086 68.6395 165.658 64.8027C163.148 64.5254 160.498 64.3559 157.787 64.3174V73.501ZM172.414 54.248C172.205 57.3067 171.251 60.1883 169.919 62.8232C173.622 63.4319 176.868 64.2944 179.394 65.3652C182.073 62.2603 183.778 58.5916 184.149 54.6318L184.182 54.248H172.414ZM128.739 54.8828C128.744 54.9235 128.747 54.9643 128.752 55.0049C128.803 55.4473 128.871 55.8858 128.955 56.3203C129.228 57.7394 129.673 59.1141 130.273 60.4307C130.367 60.6369 130.466 60.8415 130.567 61.0449C131.211 62.3332 132.004 63.5623 132.93 64.7188C132.936 64.7271 132.943 64.7358 132.949 64.7441L133.454 65.3506C135.995 64.2797 139.241 63.4241 142.944 62.8154C141.702 60.3525 140.787 57.6662 140.505 54.8262L140.457 54.2559H128.682L128.739 54.8828ZM143.227 54.79C143.252 55.0166 143.282 55.2421 143.316 55.4668C143.689 57.9187 144.591 60.2623 145.764 62.4229C148.692 62.0607 151.838 61.8519 155.084 61.8057V54.2637H143.177C143.19 54.4396 143.207 54.6151 143.227 54.79ZM157.787 61.791L158.999 61.8164C159.327 61.8254 159.655 61.8362 159.98 61.8486C160.186 61.8565 160.391 61.8658 160.595 61.875C160.747 61.8818 160.898 61.8889 161.05 61.8965C161.213 61.9047 161.376 61.9128 161.538 61.9219C162.22 61.9598 162.894 62.0049 163.561 62.0576C163.703 62.0689 163.845 62.0808 163.987 62.0928C164.203 62.1109 164.418 62.1307 164.632 62.1504C164.748 62.1611 164.863 62.1705 164.979 62.1816C165.318 62.2144 165.656 62.2496 165.991 62.2861C166.364 62.3268 166.733 62.3698 167.1 62.415C168.471 59.9034 169.462 57.1449 169.694 54.248H157.787V61.791ZM145.771 43.585C144.4 46.0966 143.409 48.855 143.177 51.7441H155.084V44.2002C153.153 44.1725 151.258 44.0868 149.423 43.9463C149.24 43.9323 149.058 43.9174 148.876 43.9023C147.819 43.8144 146.782 43.7099 145.771 43.585ZM133.454 40.6426C130.696 43.8398 128.976 47.6377 128.682 51.7363H140.457C140.666 48.6854 141.62 45.8039 142.944 43.1768C139.234 42.5681 135.987 41.7057 133.454 40.6426ZM179.394 40.6191C176.86 41.69 173.622 42.5525 169.919 43.1611C170.078 43.4763 170.232 43.7958 170.38 44.1182C170.409 44.1821 170.438 44.2463 170.467 44.3105C170.517 44.4221 170.567 44.5341 170.615 44.6465C170.62 44.6583 170.626 44.6699 170.631 44.6816C170.694 44.8278 170.756 44.9745 170.816 45.1221C170.845 45.1917 170.872 45.2621 170.899 45.332C170.936 45.4231 170.973 45.5139 171.008 45.6055C171.034 45.6724 171.059 45.7395 171.084 45.8066C171.123 45.9096 171.161 46.0127 171.198 46.1162C171.228 46.1983 171.256 46.2808 171.285 46.3633C171.309 46.4306 171.332 46.4979 171.354 46.5654C171.389 46.667 171.422 46.7689 171.455 46.8711C171.488 46.9747 171.522 47.0784 171.554 47.1826C171.572 47.2437 171.59 47.305 171.608 47.3662C171.646 47.4925 171.682 47.619 171.718 47.7461C171.727 47.7803 171.737 47.8144 171.746 47.8486C171.787 48.0004 171.827 48.1528 171.865 48.3057C171.874 48.3398 171.882 48.374 171.891 48.4082C171.928 48.5616 171.963 48.7157 171.997 48.8701C172.002 48.8929 172.008 48.9156 172.013 48.9385C172.045 49.0854 172.074 49.233 172.103 49.3809C172.109 49.4148 172.117 49.4485 172.123 49.4824C172.228 50.0374 172.31 50.5987 172.366 51.166L172.414 51.7363H184.182C183.887 47.6299 182.159 43.8241 179.394 40.6191ZM167.1 43.5625C164.171 43.9246 161.033 44.1403 157.787 44.1865V51.7285H169.694C169.47 48.8396 168.471 46.0739 167.1 43.5625ZM157.787 41.6826C160.498 41.6364 163.148 41.4746 165.658 41.1973C163.086 37.3605 159.879 34.2942 157.787 32.499V41.6826ZM155.084 32.499C152.992 34.2941 149.777 37.3676 147.205 41.2119C149.7 41.4739 152.349 41.6363 155.084 41.6748V32.499ZM152.551 31.2275C145.718 31.9903 139.675 34.7176 135.375 38.6699C137.784 39.5867 140.821 40.3188 144.253 40.835L144.261 40.8271C146.665 36.9413 149.743 33.7596 152.091 31.6377L152.551 31.2275ZM160.32 31.2354C160.575 31.4595 160.841 31.6976 161.115 31.9492C161.307 32.1248 161.502 32.3066 161.701 32.4951C161.732 32.5241 161.762 32.5537 161.793 32.583C162.08 32.8568 162.375 33.1438 162.674 33.4434C162.748 33.5174 162.822 33.5924 162.896 33.668C163.022 33.7949 163.148 33.9235 163.274 34.0547C163.303 34.0846 163.331 34.1154 163.36 34.1455C163.486 34.2766 163.613 34.4097 163.739 34.5449C163.802 34.6115 163.864 34.6785 163.927 34.7461C164.04 34.8682 164.153 34.9919 164.267 35.1172C164.334 35.1912 164.401 35.2658 164.468 35.3408C164.583 35.4695 164.698 35.5996 164.813 35.7314C164.888 35.8167 164.963 35.9027 165.037 35.9893C165.117 36.0821 165.197 36.1761 165.276 36.2705C165.372 36.383 165.468 36.4958 165.562 36.6104C165.658 36.7256 165.753 36.8426 165.848 36.96C165.923 37.0526 165.998 37.1453 166.073 37.2393C166.18 37.3736 166.286 37.5096 166.393 37.6465C166.465 37.7402 166.539 37.8338 166.611 37.9287C166.689 38.0302 166.764 38.1335 166.841 38.2363C166.933 38.3603 167.027 38.4845 167.118 38.6104C167.426 39.033 167.728 39.4666 168.022 39.9102C168.219 40.2063 168.413 40.5064 168.603 40.8115C172.034 40.2953 175.087 39.5634 177.473 38.6543C173.173 34.7173 167.138 31.9904 160.32 31.2354Z" fill="#131415"/>
<path d="M39.9785 56.3818C40.6457 56.4127 41.2539 56.5513 41.8027 56.7979C42.4299 57.0706 42.9484 57.4708 43.3574 57.998C43.7663 58.5162 44.0303 59.1483 44.1484 59.8936H42.1436C42.0709 59.5119 41.9159 59.1802 41.6797 58.8984C41.4525 58.6076 41.1666 58.3794 40.8213 58.2158C40.5191 58.0727 40.1852 57.9915 39.8203 57.9736L39.6621 57.9707C39.2441 57.9707 38.8528 58.0523 38.4893 58.2158C38.1257 58.3795 37.8114 58.6122 37.5479 58.9121C37.2845 59.2029 37.0753 59.5577 36.9209 59.9756C36.7756 60.3936 36.7021 60.8665 36.7021 61.3936C36.7022 62.075 36.8296 62.6754 37.084 63.1934C37.3385 63.7023 37.694 64.1027 38.1484 64.3936C38.6119 64.6842 39.1526 64.83 39.7705 64.8301C40.1523 64.8301 40.494 64.7751 40.7939 64.666C41.1025 64.557 41.3706 64.4027 41.5977 64.2031C41.8248 64.0032 42.0072 63.7703 42.1436 63.5068C42.2456 63.3026 42.3148 63.0852 42.3506 62.8555L42.375 62.6211H39.416V61.1348H44.1074V66.3164H42.4297V65.0342C42.2843 65.3067 42.0706 65.5479 41.7891 65.7568C41.5074 65.9658 41.1801 66.1299 40.8076 66.248C40.4441 66.3662 40.0573 66.4257 39.6484 66.4258C38.9941 66.4258 38.3756 66.3212 37.7939 66.1123C37.2214 65.9033 36.712 65.5889 36.2666 65.1709C35.8212 64.7528 35.4704 64.2296 35.2158 63.6025C34.9614 62.9754 34.834 62.2387 34.834 61.3936C34.834 60.621 34.9614 59.9247 35.2158 59.3066C35.4703 58.6887 35.8167 58.1618 36.2529 57.7256C36.6983 57.2893 37.2122 56.9568 37.7939 56.7295C38.3847 56.4933 39.0169 56.375 39.6895 56.375L39.9785 56.3818Z" fill="#131415"/>
<path d="M263.388 56.374L263.678 56.3799C264.345 56.4107 264.953 56.5503 265.502 56.7969C266.129 57.0695 266.647 57.4692 267.056 57.9961C267.465 58.5142 267.728 59.1463 267.847 59.8916H265.843C265.77 59.5099 265.615 59.1782 265.379 58.8965C265.152 58.6056 264.865 58.3785 264.52 58.2148C264.174 58.0512 263.788 57.9688 263.36 57.9688C262.942 57.9688 262.551 58.0512 262.188 58.2148C261.824 58.3785 261.511 58.6103 261.247 58.9102C260.983 59.2011 260.774 59.5554 260.619 59.9736C260.474 60.3917 260.401 60.8645 260.401 61.3916C260.401 62.0734 260.529 62.6742 260.783 63.1924C261.038 63.7012 261.392 64.1008 261.847 64.3916C262.31 64.6825 262.852 64.8281 263.47 64.8281C263.851 64.8281 264.192 64.7741 264.492 64.665C264.801 64.556 265.07 64.4011 265.297 64.2012C265.524 64.0012 265.706 63.7695 265.843 63.5059C265.979 63.2331 266.056 62.9373 266.074 62.6191H263.115V61.1328H267.806V66.3145H266.129V65.0332C265.983 65.3058 265.77 65.5468 265.488 65.7559C265.206 65.965 264.879 66.1289 264.506 66.2471C264.142 66.3652 263.756 66.4238 263.347 66.4238C262.692 66.4238 262.074 66.3194 261.492 66.1104C260.919 65.9013 260.41 65.5871 259.965 65.1689C259.52 64.7509 259.17 64.2285 258.915 63.6016C258.66 62.9743 258.533 62.2371 258.533 61.3916C258.533 60.619 258.661 59.9237 258.915 59.3057C259.17 58.6875 259.515 58.16 259.951 57.7236C260.397 57.2873 260.91 56.9558 261.492 56.7285C262.083 56.4922 262.715 56.374 263.388 56.374Z" fill="#131415"/>
<path d="M23.6494 56.375C24.1767 56.375 24.6547 56.4437 25.082 56.5801C25.509 56.7164 25.8822 56.9116 26.2002 57.166C26.5182 57.4205 26.7685 57.7303 26.9502 58.0938C27.1408 58.4481 27.2501 58.8488 27.2773 59.2939H25.4766C25.422 58.9395 25.236 58.6298 24.918 58.3662C24.5998 58.1026 24.1767 57.9707 23.6494 57.9707C23.1677 57.9707 22.7903 58.066 22.5176 58.2568C22.2451 58.4386 22.1084 58.7026 22.1084 59.0479C22.1085 59.3385 22.2093 59.5659 22.4092 59.7295C22.6091 59.8929 22.8769 60.0251 23.2129 60.125L24.8223 60.5752C25.2859 60.7116 25.709 60.8893 26.0908 61.1074C26.4814 61.3164 26.7904 61.6117 27.0176 61.9932C27.2538 62.3749 27.372 62.8845 27.3721 63.5205C27.372 64.102 27.2226 64.6117 26.9229 65.0479C26.6229 65.4841 26.1996 65.8213 25.6543 66.0576C25.118 66.2939 24.4814 66.4121 23.7451 66.4121C23.2088 66.4121 22.7087 66.3342 22.2451 66.1797C21.7816 66.0252 21.3766 65.7979 21.0312 65.498C20.686 65.1982 20.4083 64.8388 20.1992 64.4209C19.9993 63.9938 19.8857 63.5162 19.8584 62.9893H21.6592C21.6866 63.3344 21.7956 63.6481 21.9863 63.9297C22.1772 64.2023 22.4228 64.4214 22.7227 64.585C23.0316 64.7393 23.3726 64.8164 23.7451 64.8164C24.0996 64.8164 24.4092 64.766 24.6729 64.666C24.936 64.5571 25.1408 64.4073 25.2861 64.2168C25.4406 64.026 25.5175 63.8068 25.5176 63.5615C25.5175 63.2254 25.4038 62.9614 25.1768 62.7705C24.9496 62.5707 24.6672 62.4212 24.3311 62.3213L22.7227 61.8711C22.2773 61.7438 21.8632 61.5707 21.4814 61.3525C21.1089 61.1344 20.8083 60.843 20.5811 60.4795C20.354 60.1069 20.2403 59.6338 20.2402 59.0615C20.2403 58.6617 20.3228 58.2978 20.4863 57.9707C20.6499 57.6436 20.8864 57.3613 21.1953 57.125C21.5043 56.8797 21.8635 56.6936 22.2725 56.5664C22.6906 56.4392 23.1495 56.375 23.6494 56.375Z" fill="#131415"/>
<path fill-rule="evenodd" clip-rule="evenodd" d="M3.17773 56.4844C3.85942 56.4844 4.50069 56.5888 5.10059 56.7979C5.70947 56.9979 6.24547 57.3029 6.70898 57.7119C7.17252 58.121 7.53621 58.6348 7.7998 59.2529C8.07237 59.8619 8.20898 60.5756 8.20898 61.3936C8.20893 62.2206 8.07246 62.9435 7.7998 63.5615C7.53618 64.1704 7.17253 64.6799 6.70898 65.0889C6.24549 65.4978 5.70942 65.8076 5.10059 66.0166C4.50073 66.2165 3.85937 66.3164 3.17773 66.3164H0V56.4844H3.17773ZM1.82715 64.707H3.02734C3.45457 64.707 3.86401 64.6484 4.25488 64.5303C4.64565 64.4121 5.00027 64.2251 5.31836 63.9707C5.63637 63.7072 5.88658 63.3662 6.06836 62.9482C6.25922 62.5211 6.35444 62.0024 6.35449 61.3936C6.35449 60.7846 6.25915 60.2707 6.06836 59.8525C5.88662 59.4345 5.63635 59.0983 5.31836 58.8438C5.00025 58.5802 4.64568 58.3887 4.25488 58.2705C3.96181 58.1819 3.65824 58.1267 3.34473 58.1045L3.02734 58.0938H1.82715V64.707Z" fill="#131415"/>
<path d="M17.5537 58.0801H12.8623V60.3164H16.626V61.9121H12.8623V64.7207H17.7031V66.3164H11.0352V56.4844H17.5537V58.0801Z" fill="#131415"/>
<path d="M32.0156 66.3164H30.1885V56.4844H32.0156V66.3164Z" fill="#131415"/>
<path d="M49.1758 56.4844L52.4893 61.8301C52.689 62.166 52.8661 62.4707 53.0205 62.7432C53.175 63.0157 53.2932 63.2349 53.375 63.3984C53.4646 63.5598 53.5106 63.6416 53.5117 63.6436C53.5117 63.6436 53.507 63.5505 53.498 63.3711C53.489 63.1803 53.4798 62.9298 53.4707 62.6211C53.4616 62.3032 53.457 61.9482 53.457 61.5576V56.4844H55.2705V66.3164H53.3076L49.9932 60.998C49.7933 60.6619 49.6164 60.3566 49.4619 60.084C49.3075 59.8025 49.1846 59.5842 49.0938 59.4297L48.9707 59.1846C48.9711 59.1931 48.9757 59.2842 48.9844 59.457C49.0025 59.6388 49.0163 59.8892 49.0254 60.207C49.0345 60.5159 49.0391 60.8708 49.0391 61.2705V66.3164H47.2119V56.4844H49.1758Z" fill="#131415"/>
<path d="M65.0576 58.0801H60.3672V60.3164H64.1309V61.9121H60.3672V64.7207H65.208V66.3164H58.54V56.4844H65.0576V58.0801Z" fill="#131415"/>
<path fill-rule="evenodd" clip-rule="evenodd" d="M72.1904 56.4844C72.845 56.4844 73.4091 56.6025 73.8818 56.8389C74.3543 57.0752 74.7182 57.4161 74.9727 57.8613C75.2361 58.2976 75.3681 58.8254 75.3682 59.4434C75.3681 59.7976 75.3085 60.1342 75.1904 60.4521C75.0723 60.7701 74.8999 61.0572 74.6729 61.3115C74.4547 61.5659 74.1908 61.7759 73.8818 61.9395C74.2089 62.094 74.4638 62.3029 74.6455 62.5664C74.8271 62.83 74.9638 63.1756 75.0547 63.6025L75.3818 65.1572C75.4182 65.357 75.4677 65.5663 75.5312 65.7842C75.6039 65.9931 75.6865 66.171 75.7773 66.3164H73.7998C73.7272 66.2074 73.6639 66.0752 73.6094 65.9209C73.564 65.7665 73.5319 65.616 73.5137 65.4707L73.2539 63.957C73.1903 63.5846 73.0719 63.2848 72.8994 63.0576C72.7358 62.8213 72.504 62.6482 72.2041 62.5391C71.979 62.4572 71.7052 62.4053 71.3828 62.3848L71.0449 62.375H69.791V66.3164H67.9629V56.4844H72.1904ZM69.791 60.7803H71.9316C72.2588 60.7803 72.541 60.7298 72.7773 60.6299C73.0135 60.5209 73.1904 60.3658 73.3086 60.166C73.4358 59.9571 73.4999 59.7159 73.5 59.4434C73.5 59.0164 73.3632 58.6846 73.0908 58.4482C72.8521 58.2413 72.5262 58.1244 72.1133 58.0986L71.9316 58.0938H69.791V60.7803Z" fill="#131415"/>
<path d="M244.751 58.0781H240.06V60.3145H243.823V61.9102H240.06V64.7197H244.9V66.3145H238.232V56.4824H244.751V58.0781Z" fill="#131415"/>
<path d="M252.932 61.8281C253.132 62.1645 253.309 62.4695 253.464 62.7422C253.618 63.0148 253.737 63.2329 253.818 63.3965C253.905 63.5529 253.95 63.6347 253.954 63.6416C253.954 63.6345 253.949 63.5436 253.94 63.3691C253.931 63.1783 253.922 62.9281 253.913 62.6191C253.904 62.301 253.899 61.9465 253.899 61.5557V56.4824H255.714V66.3145H253.75L250.437 60.9961C250.237 60.6598 250.059 60.3557 249.904 60.083C249.75 59.8014 249.627 59.5832 249.536 59.4287L249.413 59.1826C249.413 59.1826 249.418 59.2742 249.427 59.4561C249.445 59.6378 249.459 59.8881 249.468 60.2061C249.477 60.515 249.481 60.8697 249.481 61.2695V66.3145H247.654V56.4824H249.618L252.932 61.8281Z" fill="#131415"/>
<path d="M272.737 66.3145H270.91V56.4824H272.737V66.3145Z" fill="#131415"/>
<path d="M281.283 61.8281C281.483 62.1645 281.661 62.4695 281.815 62.7422C281.97 63.0148 282.088 63.2329 282.17 63.3965C282.257 63.5529 282.302 63.6347 282.306 63.6416C282.305 63.6345 282.301 63.5436 282.292 63.3691C282.283 63.1783 282.274 62.9281 282.265 62.6191C282.256 62.301 282.251 61.9465 282.251 61.5557V56.4824H284.065V66.3145H282.102L278.788 60.9961C278.588 60.6598 278.41 60.3557 278.256 60.083C278.101 59.8014 277.979 59.5832 277.888 59.4287L277.765 59.1826C277.765 59.1826 277.769 59.2742 277.778 59.4561C277.796 59.6378 277.81 59.8881 277.819 60.2061C277.828 60.515 277.833 60.8697 277.833 61.2695V66.3145H276.006V56.4824H277.97L281.283 61.8281Z" fill="#131415"/>
<path d="M293.853 58.0781H289.161V60.3145H292.925V61.9102H289.161V64.7197H294.002V66.3145H287.334V56.4824H293.853V58.0781Z" fill="#131415"/>
<path d="M303.276 58.0781H298.585V60.3145H302.349V61.9102H298.585V64.7197H303.426V66.3145H296.758V56.4824H303.276V58.0781Z" fill="#131415"/>
<path fill-rule="evenodd" clip-rule="evenodd" d="M310.409 56.4824C311.063 56.4824 311.627 56.6007 312.1 56.8369C312.572 57.0733 312.936 57.4149 313.19 57.8604C313.454 58.2967 313.586 58.8242 313.586 59.4424C313.586 59.7968 313.527 60.1331 313.409 60.4512C313.291 60.7693 313.118 61.056 312.891 61.3105C312.672 61.5649 312.409 61.7739 312.1 61.9375C312.427 62.092 312.681 62.301 312.863 62.5645C313.045 62.8281 313.182 63.1743 313.272 63.6016L313.6 65.1553C313.636 65.3553 313.686 65.565 313.75 65.7832C313.823 65.992 313.904 66.1691 313.995 66.3145H312.019C311.946 66.2054 311.882 66.0735 311.827 65.9189C311.782 65.7647 311.75 65.615 311.731 65.4697L311.473 63.9561C311.409 63.5833 311.291 63.2829 311.118 63.0557C310.955 62.8193 310.723 62.6462 310.423 62.5371C310.198 62.4553 309.924 62.4042 309.602 62.3838L309.264 62.374H308.009V66.3145H306.182V56.4824H310.409ZM308.009 60.7783H310.15C310.477 60.7783 310.759 60.7279 310.995 60.6279C311.231 60.5189 311.409 60.3649 311.527 60.165C311.655 59.9561 311.718 59.7149 311.718 59.4424C311.718 59.0151 311.581 58.6827 311.309 58.4463C311.07 58.2396 310.745 58.1235 310.332 58.0977L310.15 58.0918H308.009V60.7783Z" fill="#131415"/>
<path fill-rule="evenodd" clip-rule="evenodd" d="M26.0664 39.5752C26.7846 39.5752 27.4439 39.7025 28.0439 39.957C28.6439 40.2025 29.1669 40.5523 29.6123 41.0068C30.0576 41.4522 30.403 41.9799 30.6484 42.5889C30.8938 43.1979 31.0166 43.8666 31.0166 44.5938C31.0165 45.3206 30.8937 45.9934 30.6484 46.6113C30.403 47.2202 30.0576 47.7526 29.6123 48.207C29.1669 48.6524 28.6438 49.0023 28.0439 49.2568C27.444 49.5022 26.7845 49.625 26.0664 49.625C25.3485 49.625 24.6851 49.5022 24.0762 49.2568C23.4763 49.0023 22.9532 48.6478 22.5078 48.1934C22.0624 47.7389 21.7116 47.2066 21.457 46.5977C21.2118 45.9798 21.089 45.3115 21.0889 44.5938C21.0889 43.8758 21.2117 43.2115 21.457 42.6025C21.7115 41.9935 22.0625 41.4613 22.5078 41.0068C22.9532 40.5525 23.4763 40.2024 24.0762 39.957C24.6851 39.7026 25.3485 39.5752 26.0664 39.5752ZM26.0664 41.1709C25.6121 41.1709 25.1942 41.2571 24.8125 41.4297C24.4308 41.6024 24.0982 41.8433 23.8164 42.1523C23.5439 42.4613 23.3303 42.8252 23.1758 43.2432C23.0304 43.6521 22.957 44.103 22.957 44.5938C22.9571 45.2479 23.0891 45.8346 23.3525 46.3525C23.6162 46.8705 23.9854 47.2801 24.458 47.5801C24.9305 47.8798 25.4668 48.0302 26.0664 48.0303C26.5118 48.0303 26.9213 47.9432 27.2939 47.7705C27.6756 47.5978 28.0027 47.3568 28.2754 47.0479C28.5571 46.7389 28.7715 46.375 28.917 45.957C29.0714 45.5391 29.1484 45.0843 29.1484 44.5938C29.1484 43.9394 29.0164 43.3567 28.7529 42.8477C28.4894 42.3298 28.1255 41.921 27.6621 41.6211C27.1985 41.3211 26.6664 41.1709 26.0664 41.1709Z" fill="#131415"/>
<path d="M47.5615 45.9844C47.5616 46.4295 47.6477 46.8073 47.8203 47.1162C47.9929 47.4159 48.2342 47.6434 48.543 47.7979C48.8611 47.9523 49.2212 48.0303 49.6211 48.0303C50.2299 48.0302 50.7303 47.8615 51.1211 47.5254C51.5118 47.18 51.7069 46.6659 51.707 45.9844V39.6846H53.5342V45.957C53.5341 46.7568 53.3666 47.4302 53.0303 47.9756C52.703 48.5209 52.2431 48.935 51.6523 49.2168C51.0707 49.4893 50.3934 49.625 49.6211 49.625C48.8667 49.625 48.1934 49.4894 47.6025 49.2168C47.021 48.9351 46.5619 48.5207 46.2256 47.9756C45.8984 47.4302 45.7344 46.7568 45.7344 45.957V39.6846H47.5615V45.9844Z" fill="#131415"/>
<path d="M61.6406 39.5752L61.9268 39.582C62.5869 39.6128 63.1914 39.7515 63.7402 39.998C64.3765 40.2708 64.8949 40.671 65.2949 41.1982C65.6947 41.7164 65.9404 42.3531 66.0312 43.1074H64.0947C63.9948 42.5348 63.718 42.0703 63.2637 41.7158C62.8092 41.3522 62.2633 41.1709 61.627 41.1709C61.2088 41.1709 60.8177 41.2478 60.4541 41.4023C60.0907 41.5477 59.768 41.766 59.4863 42.0566C59.2137 42.3475 58.9992 42.7076 58.8447 43.1348C58.6995 43.5528 58.627 44.0396 58.627 44.5938C58.627 45.3298 58.7589 45.9576 59.0225 46.4756C59.2861 46.9844 59.6453 47.3712 60.0996 47.6348C60.5541 47.8982 61.0635 48.0303 61.627 48.0303C62.2813 48.0302 62.8274 47.857 63.2637 47.5117C63.7088 47.1664 63.9856 46.6841 64.0947 46.0664H66.0449C65.9267 46.857 65.6583 47.5214 65.2402 48.0576C64.8221 48.5846 64.2989 48.9796 63.6719 49.2432C63.0538 49.4976 62.3768 49.625 61.6406 49.625C60.9862 49.625 60.3679 49.5205 59.7861 49.3115C59.2045 49.1025 58.6813 48.7891 58.2178 48.3711C57.7634 47.953 57.4042 47.4298 57.1406 46.8027C56.8862 46.1665 56.7589 45.4298 56.7588 44.5938C56.7588 43.7577 56.8908 43.0256 57.1543 42.3984C57.4179 41.7713 57.777 41.2482 58.2314 40.8301C58.6951 40.4119 59.218 40.0978 59.7998 39.8887C60.3815 39.6797 60.9953 39.5752 61.6406 39.5752Z" fill="#131415"/>
<path d="M241.723 39.5762C242.25 39.5762 242.727 39.644 243.154 39.7803C243.582 39.9166 243.954 40.1127 244.272 40.3672C244.591 40.6216 244.841 40.9305 245.022 41.2939C245.213 41.6484 245.322 42.0488 245.35 42.4941H243.55C243.495 42.1398 243.309 41.8309 242.991 41.5674C242.673 41.3037 242.25 41.1719 241.723 41.1719C241.241 41.1719 240.864 41.2671 240.591 41.458C240.318 41.6398 240.182 41.9036 240.182 42.249C240.182 42.5398 240.282 42.767 240.481 42.9307C240.681 43.0943 240.95 43.2262 241.286 43.3262L242.896 43.7764C243.359 43.9127 243.782 44.0895 244.164 44.3076C244.555 44.5167 244.864 44.8126 245.091 45.1943C245.327 45.5761 245.445 46.0854 245.445 46.7217C245.445 47.3035 245.295 47.8127 244.995 48.249C244.695 48.6852 244.273 49.0215 243.728 49.2578C243.191 49.4942 242.555 49.6123 241.818 49.6123C241.282 49.6123 240.782 49.5354 240.318 49.3809C239.855 49.2263 239.45 48.9992 239.104 48.6992C238.759 48.3993 238.482 48.0402 238.272 47.6221C238.073 47.1949 237.959 46.7175 237.932 46.1904H239.731C239.759 46.5356 239.868 46.8492 240.059 47.1309C240.249 47.4035 240.495 47.6215 240.795 47.7852C241.104 47.9397 241.446 48.0176 241.818 48.0176C242.173 48.0176 242.482 47.9671 242.745 47.8672C243.009 47.7581 243.214 47.6079 243.359 47.417C243.514 47.2262 243.591 47.008 243.591 46.7627C243.591 46.4263 243.477 46.1626 243.25 45.9717C243.023 45.7717 242.741 45.6215 242.404 45.5215L240.795 45.0713C240.35 44.9441 239.936 44.7717 239.555 44.5537C239.182 44.3355 238.882 44.0443 238.654 43.6807C238.427 43.308 238.313 42.8353 238.313 42.2627C238.313 41.8628 238.395 41.4991 238.559 41.1719C238.722 40.8447 238.959 40.5625 239.268 40.3262C239.577 40.0807 239.937 39.8939 240.346 39.7666C240.764 39.6394 241.223 39.5762 241.723 39.5762Z" fill="#131415"/>
<path d="M262.912 39.5762L263.298 39.5889C263.675 39.6144 264.023 39.678 264.344 39.7803C264.771 39.9166 265.144 40.1127 265.462 40.3672C265.78 40.6216 266.03 40.9305 266.212 41.2939C266.403 41.6484 266.512 42.0488 266.539 42.4941H264.739C264.685 42.1398 264.499 41.8309 264.181 41.5674C263.862 41.3037 263.439 41.1719 262.912 41.1719C262.43 41.1719 262.053 41.2671 261.78 41.458C261.508 41.6398 261.371 41.9036 261.371 42.249C261.371 42.5398 261.471 42.767 261.671 42.9307C261.871 43.0943 262.139 43.2262 262.476 43.3262L264.085 43.7764C264.549 43.9127 264.972 44.0895 265.354 44.3076C265.744 44.5167 266.053 44.8126 266.28 45.1943C266.517 45.5761 266.635 46.0854 266.635 46.7217C266.635 47.3035 266.485 47.8127 266.185 48.249C265.885 48.6852 265.462 49.0215 264.917 49.2578C264.381 49.4942 263.744 49.6123 263.008 49.6123C262.472 49.6123 261.971 49.5354 261.508 49.3809C261.044 49.2263 260.639 48.9992 260.294 48.6992C259.949 48.3993 259.671 48.0402 259.462 47.6221C259.262 47.1949 259.148 46.7175 259.121 46.1904H260.921C260.948 46.5356 261.057 46.8492 261.248 47.1309C261.439 47.4035 261.685 47.6215 261.984 47.7852C262.293 47.9397 262.635 48.0176 263.008 48.0176C263.362 48.0176 263.671 47.9671 263.935 47.8672C264.198 47.7581 264.403 47.6079 264.549 47.417C264.703 47.2262 264.78 47.008 264.78 46.7627C264.78 46.4263 264.667 46.1626 264.439 45.9717C264.212 45.7717 263.93 45.6215 263.594 45.5215L261.984 45.0713C261.539 44.9441 261.126 44.7717 260.744 44.5537C260.371 44.3355 260.071 44.0443 259.844 43.6807C259.617 43.308 259.503 42.8353 259.503 42.2627C259.503 41.8628 259.585 41.4991 259.748 41.1719C259.912 40.8447 260.148 40.5625 260.457 40.3262C260.766 40.0807 261.126 39.8939 261.535 39.7666C261.953 39.6394 262.412 39.5762 262.912 39.5762Z" fill="#131415"/>
<path d="M310.581 39.5889C310.958 39.6144 311.306 39.678 311.627 39.7803C312.054 39.9166 312.427 40.1127 312.745 40.3672C313.063 40.6216 313.313 40.9305 313.495 41.2939C313.686 41.6484 313.795 42.0488 313.822 42.4941H312.022C311.968 42.1398 311.782 41.8309 311.464 41.5674C311.185 41.3366 310.826 41.2065 310.388 41.1777L310.195 41.1719C309.714 41.1719 309.336 41.2671 309.063 41.458C308.791 41.6398 308.654 41.9036 308.654 42.249C308.654 42.5398 308.754 42.767 308.954 42.9307C309.154 43.0943 309.422 43.2262 309.759 43.3262L311.368 43.7764C311.832 43.9127 312.255 44.0895 312.637 44.3076C313.028 44.5167 313.336 44.8126 313.563 45.1943C313.8 45.5761 313.918 46.0854 313.918 46.7217C313.918 47.3035 313.768 47.8127 313.468 48.249C313.168 48.6852 312.745 49.0215 312.2 49.2578C311.664 49.4942 311.027 49.6123 310.291 49.6123C309.755 49.6123 309.255 49.5354 308.791 49.3809C308.327 49.2263 307.923 48.9992 307.577 48.6992C307.232 48.3993 306.954 48.0402 306.745 47.6221C306.545 47.1949 306.432 46.7175 306.404 46.1904H308.204C308.231 46.5356 308.34 46.8492 308.531 47.1309C308.722 47.4035 308.968 47.6215 309.268 47.7852C309.577 47.9397 309.918 48.0176 310.291 48.0176C310.645 48.0176 310.954 47.9671 311.218 47.8672C311.481 47.7581 311.687 47.6079 311.832 47.417C311.986 47.2262 312.063 47.008 312.063 46.7627C312.063 46.4263 311.95 46.1626 311.723 45.9717C311.495 45.7717 311.213 45.6215 310.877 45.5215L309.268 45.0713C308.822 44.9441 308.409 44.7717 308.027 44.5537C307.655 44.3355 307.354 44.0443 307.127 43.6807C306.9 43.308 306.786 42.8353 306.786 42.2627C306.786 41.8628 306.868 41.4991 307.031 41.1719C307.195 40.8447 307.431 40.5625 307.74 40.3262C308.049 40.0807 308.409 39.8939 308.818 39.7666C309.236 39.6394 309.695 39.5762 310.195 39.5762L310.581 39.5889Z" fill="#131415"/>
<path d="M252.358 43.6943L254.703 39.6855H256.681L253.271 45.4404V49.5176H251.444V45.4404L248.062 39.6855H250.054L252.358 43.6943Z" fill="#131415"/>
<path d="M277.321 39.6855V41.2812H274.321V49.5176H272.508V41.2812H269.508V39.6855H277.321Z" fill="#131415"/>
<path d="M287.511 41.2812H282.819V43.5176H286.583V45.1123H282.819V47.9219H287.66V49.5176H280.992V39.6855H287.511V41.2812Z" fill="#131415"/>
<path d="M293.832 39.6855L296.573 46.04C296.7 46.3309 296.8 46.5856 296.873 46.8037C296.955 47.0219 297.013 47.195 297.05 47.3223C297.085 47.4367 297.103 47.4956 297.104 47.499C297.104 47.499 297.123 47.4402 297.159 47.3223C297.196 47.195 297.251 47.0219 297.323 46.8037C297.405 46.5855 297.509 46.3309 297.637 46.04L300.392 39.6855H302.587V49.5176H300.773V44.2676C300.773 43.9495 300.778 43.6719 300.787 43.4355C300.796 43.1992 300.801 43.0169 300.801 42.8896C300.81 42.7671 300.813 42.7036 300.813 42.6992C300.812 42.7043 300.79 42.768 300.746 42.8896C300.701 43.0078 300.637 43.1763 300.555 43.3945C300.473 43.6127 300.368 43.8673 300.241 44.1582L297.95 49.5176H296.205L293.887 44.1582C293.759 43.8674 293.65 43.6127 293.56 43.3945C293.478 43.1763 293.414 43.0078 293.368 42.8896L293.313 42.6992C293.314 42.7031 293.318 42.7666 293.327 42.8896C293.336 43.0169 293.341 43.1992 293.341 43.4355C293.35 43.6719 293.354 43.9495 293.354 44.2676V49.5176H291.541V39.6855H293.832Z" fill="#131415"/>
<path fill-rule="evenodd" clip-rule="evenodd" d="M4.54004 39.6846C5.1946 39.6846 5.75871 39.8119 6.23145 40.0664C6.70388 40.3119 7.06782 40.6619 7.32227 41.1162C7.57662 41.5706 7.7041 42.1031 7.7041 42.7119C7.70398 43.2753 7.5767 43.7895 7.32227 44.2529C7.06776 44.7072 6.70391 45.0711 6.23145 45.3438C5.75875 45.6073 5.1945 45.7393 4.54004 45.7393H2.13965V49.5166H0.3125V39.6846H4.54004ZM2.13965 44.1299H4.26758C4.60377 44.1299 4.88608 44.0702 5.11328 43.9521C5.34919 43.8341 5.53103 43.666 5.6582 43.4482C5.78536 43.2303 5.84949 42.9843 5.84961 42.7119C5.84961 42.2848 5.713 41.943 5.44043 41.6885C5.20187 41.4579 4.87251 41.3287 4.45312 41.2998L4.26758 41.293H2.13965V44.1299Z" fill="#131415"/>
<path fill-rule="evenodd" clip-rule="evenodd" d="M15.0137 39.6846C15.6682 39.6846 16.2323 39.8027 16.7051 40.0391C17.1775 40.2754 17.5415 40.6163 17.7959 41.0615C18.0594 41.4978 18.1914 42.0256 18.1914 42.6436C18.1913 42.9978 18.1318 43.3344 18.0137 43.6523C17.8955 43.9704 17.7223 44.2573 17.4951 44.5117C17.2771 44.7659 17.0138 44.9752 16.7051 45.1387C17.0322 45.2932 17.287 45.5031 17.4688 45.7666C17.6503 46.0301 17.7861 46.3759 17.877 46.8027L18.2051 48.3574C18.2414 48.5571 18.291 48.7665 18.3545 48.9844C18.4272 49.1933 18.5097 49.3712 18.6006 49.5166H16.623C16.5504 49.4076 16.4861 49.2754 16.4316 49.1211C16.3862 48.9668 16.3551 48.8162 16.3369 48.6709L16.0771 47.1572C16.0135 46.7847 15.8953 46.4841 15.7227 46.2568C15.5591 46.0207 15.3271 45.8483 15.0273 45.7393C14.8022 45.6574 14.5284 45.6055 14.2061 45.585L13.8682 45.5752H12.6133V49.5166H10.7861V39.6846H15.0137ZM12.6133 43.9795H14.7549C15.0817 43.9795 15.3634 43.9299 15.5996 43.8301C15.8358 43.7211 16.0137 43.566 16.1318 43.3662C16.259 43.1573 16.3231 42.916 16.3232 42.6436C16.3232 42.2166 16.1864 41.8848 15.9141 41.6484C15.6754 41.4416 15.3493 41.3246 14.9365 41.2988L14.7549 41.293H12.6133V43.9795Z" fill="#131415"/>
<path fill-rule="evenodd" clip-rule="evenodd" d="M37.4814 39.6846C38.1631 39.6846 38.8044 39.789 39.4043 39.998C40.013 40.198 40.5493 40.5023 41.0127 40.9111C41.4761 41.3201 41.8399 41.8343 42.1035 42.4521C42.3761 43.0612 42.5127 43.7757 42.5127 44.5938C42.5126 45.4207 42.3762 46.1437 42.1035 46.7617C41.8399 47.3706 41.4762 47.8801 41.0127 48.2891C40.5492 48.6979 40.0131 49.0078 39.4043 49.2168C38.8044 49.4167 38.1631 49.5166 37.4814 49.5166H34.3037V39.6846H37.4814ZM36.1309 47.9072H37.3311C37.7583 47.9072 38.1677 47.8476 38.5586 47.7295C38.9493 47.6113 39.304 47.4253 39.6221 47.1709C39.9401 46.9074 40.1903 46.5663 40.3721 46.1484C40.5629 45.7213 40.6581 45.2025 40.6582 44.5938C40.6582 43.9849 40.5628 43.4708 40.3721 43.0527C40.1903 42.6346 39.9401 42.2975 39.6221 42.043C39.304 41.7795 38.9493 41.5889 38.5586 41.4707C38.2655 41.3821 37.962 41.326 37.6484 41.3037L37.3311 41.293H36.1309V47.9072Z" fill="#131415"/>
<path d="M75.9316 39.6846V41.2793H72.9316V49.5166H71.1182V41.2793H68.1182V39.6846H75.9316Z" fill="#131415"/>
<path d="M166.682 5.89844C167.137 5.89847 167.45 5.98968 167.619 6.17188C167.801 6.35408 167.892 6.57569 167.893 6.83594V7.26562C167.893 7.52606 167.801 7.74836 167.619 7.93066C167.45 8.11282 167.137 8.20407 166.682 8.2041C166.226 8.2041 165.907 8.11271 165.725 7.93066C165.555 7.74836 165.471 7.52606 165.471 7.26562V6.83594C165.471 6.57569 165.555 6.35408 165.725 6.17188C165.907 5.9898 166.226 5.89844 166.682 5.89844Z" fill="#131415"/>
<path fill-rule="evenodd" clip-rule="evenodd" d="M166.682 0C168.452 5.46229e-05 169.755 0.618523 170.588 1.85547C171.421 3.09244 171.838 4.82429 171.838 7.05078C171.838 9.27748 171.421 11.01 170.588 12.2471C169.755 13.484 168.452 14.1025 166.682 14.1025C165.796 14.1025 165.028 13.9462 164.377 13.6338C163.726 13.3083 163.186 12.8459 162.756 12.2471C162.339 11.6481 162.026 10.9124 161.817 10.04C161.622 9.16759 161.524 8.17064 161.524 7.05078C161.524 5.94412 161.622 4.95437 161.817 4.08203C162.026 3.19662 162.339 2.45443 162.756 1.85547C163.186 1.25662 163.726 0.800749 164.377 0.488281C165.028 0.162845 165.796 0 166.682 0ZM166.682 2.05078C165.744 2.05078 165.08 2.38948 164.689 3.06641C164.312 3.73044 164.123 4.65505 164.123 5.83984V8.2627C164.123 9.44745 164.312 10.3786 164.689 11.0557C165.08 11.7195 165.744 12.0518 166.682 12.0518C167.619 12.0517 168.277 11.7196 168.654 11.0557C169.045 10.3786 169.24 9.44745 169.24 8.2627V5.83984C169.24 4.65505 169.045 3.73044 168.654 3.06641C168.277 2.3894 167.619 2.05084 166.682 2.05078Z" fill="#131415"/>
<path d="M146.902 0C147.631 0 148.276 0.104248 148.836 0.3125C149.409 0.507824 149.892 0.787738 150.282 1.15234C150.673 1.50389 150.966 1.92714 151.161 2.42188C151.369 2.91662 151.474 3.4571 151.474 4.04297C151.474 4.60272 151.382 5.11728 151.2 5.58594C151.031 6.05454 150.79 6.50403 150.478 6.93359C150.165 7.35029 149.793 7.75486 149.363 8.14551C148.947 8.53601 148.491 8.92688 147.996 9.31738L145.027 11.7197H151.845V13.8682H142.234V11.4854L146.609 7.75391C147.339 7.12889 147.879 6.56251 148.23 6.05469C148.582 5.53384 148.758 4.98048 148.758 4.39453V4.19922C148.758 3.54827 148.575 3.05336 148.211 2.71484C147.846 2.37646 147.338 2.20703 146.688 2.20703C145.971 2.20708 145.424 2.40237 145.047 2.79297C144.669 3.18357 144.396 3.66542 144.227 4.23828L142 3.39844C142.143 2.95577 142.345 2.53252 142.605 2.12891C142.879 1.71226 143.211 1.34765 143.602 1.03516C144.005 0.722667 144.481 0.475267 145.027 0.292969C145.574 0.0976726 146.199 2.82975e-05 146.902 0Z" fill="#131415"/>
</svg>
