<svg width="252" height="34" viewBox="0 0 252 34" fill="none" xmlns="http://www.w3.org/2000/svg">
<path fill-rule="evenodd" clip-rule="evenodd" d="M94.8179 0.101336C100.458 0.0714542 106.099 0.033756 111.739 0.0974883C117.241 0.159305 121.595 4.31526 121.799 9.81841C121.891 17.8744 121.803 25.9313 121.803 33.9875H114.353L114.355 24.8765C107.281 24.8766 100.206 24.8777 93.1317 24.8778V34.0048H85.637C85.637 25.9456 85.628 17.8862 85.6402 9.82707C85.649 4.55683 89.4739 0.572482 94.8529 0.136612L94.8179 0.101336ZM111.337 7.16122C105.834 7.08919 101.794 7.15635 96.3046 7.15833H96.3036C94.6002 7.16014 93.1319 7.96692 93.1317 9.82771V17.2801C100.206 17.2801 107.282 17.2795 114.356 17.2795C114.359 14.8311 114.389 12.2656 114.351 9.8399C114.264 8.2453 113.006 7.29343 111.493 7.17084L111.346 7.16154H111.343L111.34 7.16122H111.337Z" fill="white"/>
<path d="M36.1483 0.0612508V7.14967C28.858 7.14967 21.5677 7.16951 14.2775 7.13652L11.1531 7.11921C6.43622 7.08734 6.44516 13.3856 11.147 13.4085H11.1534C16.1763 13.374 20.683 13.4065 25.7132 13.4085H25.7173L25.7215 13.4088C39.6169 13.7314 38.86 34.0429 25.0138 34.0045L0 34.0032V26.9106C8.33565 26.9106 16.6715 26.8845 25.007 26.9417C29.4785 26.9721 29.8798 20.9131 25.3412 20.6572L25.1818 20.6512H25.1754C20.0904 20.5611 15.502 20.6589 10.4357 20.6512H10.4319C-3.54826 20.4794 -2.66707 0.0211863 11.147 0.0599681L36.1483 0.0612508Z" fill="white"/>
<path d="M208.52 0.0612508V7.14967C201.23 7.14967 193.939 7.17953 186.649 7.14037L183.525 7.11921C178.808 7.08742 178.817 13.3856 183.518 13.4085H183.525C188.548 13.374 193.055 13.4065 198.085 13.4085H198.089L198.093 13.4088C211.989 13.7317 211.231 34.0429 197.385 34.0045L172.372 34.0032V26.9106C180.707 26.9106 189.043 26.8845 197.379 26.9417C201.85 26.9718 202.251 20.913 197.713 20.6572L197.554 20.6512H197.547C192.462 20.5611 187.874 20.6589 182.807 20.6512H182.803C168.904 20.4804 169.633 0.0210269 183.518 0.0599681L208.52 0.0612508Z" fill="white"/>
<path d="M251.904 0.0612508V7.14967C244.614 7.14967 237.324 7.16951 230.034 7.13652L226.909 7.11921C222.192 7.08734 222.201 13.3856 226.903 13.4085H226.91C231.933 13.374 236.439 13.4065 241.47 13.4085H241.474L241.478 13.4088C255.373 13.7314 254.616 34.043 240.77 34.0045L215.757 34.0032V26.9106C224.092 26.9106 232.428 26.8845 240.764 26.9417C245.235 26.972 245.636 20.9132 241.098 20.6572L240.938 20.6512H240.932C235.847 20.5611 231.258 20.6589 226.192 20.6512H226.188C212.208 20.4794 213.089 0.021182 226.903 0.0599681L251.904 0.0612508Z" fill="white"/>
<path d="M136.526 0.0596474V24.1841C136.526 26.0421 137.981 26.9043 139.698 26.9061C144.636 26.9079 149.573 26.9091 154.51 26.9061C156.253 26.8622 157.748 26.1142 157.748 24.1841C157.755 16.1484 157.748 8.11269 157.748 0.0769644H165.197C165.205 8.11267 165.201 16.1484 165.197 24.1841C165.191 29.7399 161.003 33.9009 155.133 33.9666C151.124 34.0119 147.115 34.0047 143.106 33.9868L139.097 33.967H139.095C133.35 33.9022 129.175 29.5928 129.038 24.1934V24.189C128.931 16.1464 129.024 8.10253 129.031 0.0596474H136.526Z" fill="white"/>
<path d="M79.7284 0V7.30136H65.3598C65.3597 16.1825 65.3559 25.0637 65.3559 33.9448H57.9292L57.925 7.30136H43.5567V0H79.7284Z" fill="white"/>
</svg>
