<svg width="64" height="64" viewBox="0 0 64 64" fill="none" xmlns="http://www.w3.org/2000/svg">
<rect width="64" height="64" rx="16" fill="#F7F7F7"/>
<path d="M46.9668 46.3231C46.9668 46.6614 46.7414 46.9999 46.4033 46.9999H37.3887C37.276 46.9999 37.1634 46.9993 37.0508 46.8866L46.9668 36.9637V46.3231ZM27.0215 36.9608L17.2178 46.7714C17.1051 46.6586 16.9922 46.5457 16.9922 46.3202V27.037L26.9092 17.1132H27.0215V36.9608ZM46.4033 16.9999C46.7414 16.9999 46.9668 17.3383 46.9668 17.6766V36.9598L37.0508 27.036V17.6766C37.0508 17.3383 37.2762 16.9999 37.6143 16.9999H46.4033Z" fill="#8DC63F"/>
<path d="M27.0215 46.3231C27.0214 46.6614 26.6837 46.9999 26.3457 46.9999H17.6689C17.4436 46.9999 17.3304 46.887 17.2178 46.7743L27.0215 36.9637V46.3231ZM27.0234 17.1132C27.1361 17.1132 27.249 17.2264 27.249 17.2264L37.0527 27.037V46.8837C36.9402 46.8834 36.8274 46.7714 36.7148 46.7714L27.0234 36.9608V17.1132ZM26.5713 16.9999C26.6838 16.9999 26.7966 16.9997 26.9092 17.1122L16.9922 27.036V17.6766C16.9922 17.3383 17.3309 16.9999 17.6689 16.9999H26.5713Z" fill="#00AE4D"/>
<path d="M37.0527 46.8852V46.8852V27.0381L46.9696 36.9616L37.0527 46.8852V46.8852Z" fill="#00682C"/>
</svg>
