<svg width="64" height="64" viewBox="0 0 64 64" fill="none" xmlns="http://www.w3.org/2000/svg">
<rect width="64" height="64" rx="16" fill="#F7F7F7"/>
<circle cx="19" cy="32" r="10" fill="#EE3B6D"/>
<circle cx="31.752" cy="32" r="10" fill="#63BCFF"/>
<circle cx="44.5527" cy="32" r="10" fill="#8CE879"/>
<path d="M25.376 24.1653C27.5897 25.9995 29 28.7699 29 31.8694C28.9999 34.9685 27.5893 37.7374 25.376 39.5715C23.1628 37.7374 21.7521 34.9684 21.752 31.8694C21.752 28.77 23.1624 25.9995 25.376 24.1653Z" fill="#7F3477"/>
<path d="M38.1777 24.1653C40.3916 25.9995 41.8027 28.7697 41.8027 31.8694C41.8026 34.9686 40.3912 37.7374 38.1777 39.5715C35.9647 37.7374 34.5548 34.9682 34.5547 31.8694C34.5547 28.7701 35.9643 25.9995 38.1777 24.1653Z" fill="#47977C"/>
</svg>
