<svg width="120" height="120" viewBox="0 0 120 120" fill="none" xmlns="http://www.w3.org/2000/svg">
<rect width="120" height="120" fill="#00AFAA"/>
<path d="M53.5822 69.2531C54.13 69.4883 55.6618 72.3092 56.9518 72.3208C58.5418 72.3344 59.8422 71.3699 61.0125 70.4867C59.0989 79.0452 57.0388 85.9433 53.7135 94.0163C53.0658 95.4484 51.6456 98.7946 50.6646 99.8821C49.8983 90.7903 51.4793 78.1767 53.5822 69.2531ZM67.9685 19.8821C68.3966 20.0624 69.0812 21.2746 69.2993 21.7264C74.2417 31.965 71.5236 45.7366 67.9446 55.998L72.1844 59.1066C70.8673 63.8106 69.0043 68.5554 67.617 73.2575C67.469 73.7592 67.3137 74.5308 66.781 74.6668C66.0965 73.7814 63.6482 66.5588 63.1128 65.1004C61.6314 66.6201 59.444 69.0374 57.0849 68.5349C55.3605 67.4232 54.4765 65.0379 53.6965 63.2219C51.1564 65.5217 48.5496 68.467 46 70.9098C46.3879 65.9891 47.2151 58.9889 47.9365 54.0871L53.0601 52.9474C54.3505 41.9932 57.6785 26.0704 67.9685 19.8821ZM65.44 26.9353C59.6292 34.2555 55.6636 49.2146 56.5014 58.7279C56.5786 59.6052 56.9071 60.806 57.2299 61.6215L57.5541 62.1402L57.7759 62.1692C57.9396 61.8674 65.522 27.4811 65.44 26.9353Z" fill="white"/>
<path d="M77.6406 33.0142C86.2928 38.7421 92 48.561 92 59.7144C92 77.3875 77.6731 91.7144 60 91.7144C59.8973 91.7144 59.7948 91.7104 59.6924 91.7095C60.5956 89.3914 61.4043 87.1379 62.1455 84.8853C75.0937 83.7962 85.2627 72.9441 85.2627 59.7144C85.2627 52.316 82.0826 45.6608 77.0146 41.0405C77.1937 39.8317 77.341 38.6138 77.4463 37.3921C77.5707 35.9488 77.6392 34.4852 77.6406 33.0142ZM54.5684 28.1753C54.1286 29.1516 53.7242 30.1355 53.3525 31.1177C52.7677 32.6633 52.253 34.2373 51.7959 35.814C41.8707 39.2201 34.7373 48.6338 34.7373 59.7144C34.7373 68.9006 39.6408 76.9401 46.9727 81.3618C46.6792 83.7803 46.4481 86.2295 46.3008 88.6401C35.4819 83.5072 28 72.4852 28 59.7144C28 43.8928 39.4824 30.7549 54.5684 28.1753Z" fill="white"/>
</svg>
