<svg width="120" height="120" viewBox="0 0 120 120" fill="none" xmlns="http://www.w3.org/2000/svg">
<rect width="120" height="120" fill="#6C106A"/>
<path d="M59.3391 71.2622C58.0842 71.2023 56.8825 70.9392 55.7662 70.5051L46.4026 76.2025C43.1643 78.0997 39.3075 78.6992 35.6384 77.8458C36.2847 81.6473 38.9114 84.8563 42.5458 86.2034C45.2421 87.1979 48.1538 87.0709 50.7597 85.8367C53.3656 84.6024 55.3392 82.4161 56.319 79.6866L59.3391 71.2622Z" fill="white"/>
<path d="M44.282 72.6508L52.024 68.1199C51.1827 67.3153 50.4645 66.383 49.9006 65.354L38.8693 63.495C35.1634 62.831 31.8336 60.7539 29.5696 57.7232C27.6539 61.0719 27.633 65.2471 29.5696 68.6522C31.0046 71.1743 33.3313 72.9829 36.1108 73.7388C38.8972 74.4947 41.7951 74.1061 44.282 72.6508Z" fill="white"/>
<path d="M48.5066 59.891C48.5066 59.0191 48.6047 58.1702 48.7903 57.3545L41.2257 48.606C38.7926 45.6819 37.555 41.9265 37.7438 38.1429C34.1499 39.4534 31.4721 42.6311 30.7938 46.4922C30.2974 49.3529 30.9337 52.2417 32.5908 54.6302C34.2478 57.0117 36.723 58.6041 39.5617 59.1114L48.5353 60.7049C48.5163 60.436 48.5066 60.1646 48.5066 59.891Z" fill="white"/>
<path d="M50.5851 53.3316C51.1642 52.5116 51.8489 51.7715 52.6194 51.1312L52.3963 39.0235C52.3963 35.222 53.8272 31.5541 56.3571 28.7785C55.1751 28.3428 53.9378 28.125 52.7073 28.125C50.2395 28.125 47.7925 28.9893 45.8293 30.6687C43.645 32.5308 42.3039 35.1518 42.0551 38.0468C41.8062 40.9348 42.6772 43.7525 44.509 45.973L50.5851 53.3316Z" fill="white"/>
<path d="M56.5848 48.9941C57.4412 48.7347 58.3403 48.5734 59.269 48.5233L67.1869 38.847C69.6233 35.9286 73.0918 34.0535 76.8482 33.5741C74.9314 30.2327 71.3506 28.125 67.4397 28.125C61.4506 28.125 56.5848 33.0172 56.5848 39.0232V48.9941Z" fill="white"/>
<path d="M63.964 49.2569C64.9067 49.6182 65.7891 50.1012 66.592 50.6867L78.4826 48.3594C82.2486 47.6849 86.0286 48.4659 89.2076 50.5534C89.8714 46.7334 88.481 42.7856 85.5045 40.2507C83.4853 38.5253 81.0258 37.6875 78.5734 37.6875C75.4851 37.6875 72.4178 39.0153 70.2868 41.5998L63.964 49.2569Z" fill="white"/>
<path d="M69.7232 54.1487C70.2404 55.0324 70.6419 55.9921 70.9068 57.0069L81.257 62.942C84.5424 64.8772 86.9318 67.9396 88.0431 71.6116C90.9535 69.1234 92.3843 65.2033 91.7106 61.3186C91.2174 58.4406 89.6476 55.9311 87.293 54.2511C84.9383 52.5639 82.0905 51.9189 79.2774 52.4293L69.7232 54.1487Z" fill="white"/>
<path d="M71.129 61.7212C70.9414 62.8821 70.5782 63.9842 70.0676 64.9994L74.1096 75.7986C75.3897 79.3911 75.2853 83.3584 73.8244 86.8661H73.8453C77.6506 86.8661 81.2124 84.8011 83.1464 81.3995L83.216 81.275C84.5917 78.7782 84.9499 75.8796 84.2177 73.1042C83.4734 70.2825 81.6994 67.9205 79.2089 66.4637L71.129 61.7212Z" fill="white"/>
<path d="M70.0476 77.235L67.0016 68.7821C66.0986 69.5052 65.0829 70.0937 63.9852 70.5169L60.1881 81.0527C58.8954 84.6234 56.289 87.5873 52.942 89.3162C55.8698 91.8072 59.9296 92.5623 63.591 91.2145C69.1881 89.1609 72.088 82.8875 70.0476 77.235Z" fill="white"/>
<path d="M59.9038 67.227C64.0687 67.227 67.445 63.8507 67.445 59.6858C67.445 55.5209 64.0687 52.1446 59.9038 52.1446C55.7389 52.1446 52.3626 55.5209 52.3626 59.6858C52.3626 63.8507 55.7389 67.227 59.9038 67.227Z" fill="white"/>
</svg>
