<svg width="64" height="64" viewBox="0 0 64 64" fill="none" xmlns="http://www.w3.org/2000/svg">
<path d="M0 16C0 7.16344 7.16344 0 16 0H48C56.8366 0 64 7.16344 64 16V48C64 56.8366 56.8366 64 48 64H16C7.16344 64 0 56.8366 0 48V16Z" fill="#F7F7F7"/>
<path d="M29.3281 20.7235C30.5019 15.6442 35.4707 13.4555 39.9363 13.9299C42.1658 14.1668 44.2507 15.0678 45.6559 16.5874C47.0555 18.1013 47.7924 20.2421 47.3134 22.9921C46.4635 25.9383 43.6895 27.827 40.5331 26.9755C40.0498 26.8443 39.5481 26.5787 39.1495 26.2218C38.7507 25.8646 38.4643 25.424 38.3889 24.9465C38.3791 24.8839 38.3754 24.7788 38.386 24.6757C38.3973 24.5656 38.4223 24.4911 38.4449 24.4619C38.4516 24.4536 38.4819 24.4289 38.5742 24.4014C38.6611 24.3755 38.7771 24.3541 38.9226 24.3315C39.2083 24.2871 39.5953 24.2409 40.0137 24.1464C40.8561 23.9563 41.8618 23.564 42.6058 22.561L42.6052 22.5604C43.3229 21.6065 43.5715 20.3517 43.392 19.168C42.9687 16.3794 40.1235 14.5889 37.3752 15.3468C35.626 15.8293 34.8679 16.9522 34.1328 18.456C33.1492 20.4843 34.2936 23.6077 35.1274 25.4852C35.6457 26.6521 36.2773 27.823 36.9267 28.9933C37.5771 30.1653 38.2449 31.3364 38.8416 32.512C40.0358 34.8648 40.9309 37.2112 40.8184 39.5611C39.9031 53.7164 14.4431 53.9366 16.1463 38.5301C16.5245 34.7653 19.695 31.7799 23.6216 31.9598C26.5691 32.0949 27.6089 34.4793 27.4954 36.9864C24.9803 35.9215 22.2337 36.2071 20.9194 38.7998C20.2615 40.2791 20.2462 41.9493 20.8771 43.4393C21.7579 45.5688 23.7538 47.0528 26.0606 47.3868C29.6813 47.9106 32.8227 46.0562 34.2305 42.9012C36.219 38.4435 33.5376 33.8329 31.6551 29.8421C30.1879 26.732 28.5473 24.233 29.3275 20.7229L29.3281 20.7235Z" fill="black"/>
</svg>
